<svg width="302" height="371" viewBox="0 0 302 371" fill="none" xmlns="http://www.w3.org/2000/svg">
<rect width="296" height="360" rx="40" fill="#FFEFE2"/>
<path d="M31.2 67.37L33.96 66.92V45.08L31.2 44.66V44H40.62C43.58 44 45.78 44.63 47.22 45.89C48.66 47.15 49.38 48.97 49.38 51.35C49.38 53.73 48.66 55.55 47.22 56.81C45.78 58.07 43.58 58.7 40.62 58.7H37.26V66.92L40.02 67.37V68H31.2V67.37ZM40.2 57.98C43.9 57.98 45.75 55.97 45.75 51.95V50.75C45.75 46.75 43.9 44.75 40.2 44.75H37.26V57.98H40.2ZM58.9819 68.3C57.5419 68.3 56.2319 67.97 55.0519 67.31C53.8719 66.63 52.9319 65.68 52.2319 64.46C51.5519 63.22 51.2119 61.81 51.2119 60.23C51.2119 58.65 51.5519 57.25 52.2319 56.03C52.9319 54.81 53.8719 53.87 55.0519 53.21C56.2319 52.53 57.5419 52.19 58.9819 52.19C60.4219 52.19 61.7319 52.53 62.9119 53.21C64.0919 53.87 65.0219 54.81 65.7019 56.03C66.4019 57.25 66.7519 58.65 66.7519 60.23C66.7519 61.81 66.4019 63.22 65.7019 64.46C65.0219 65.68 64.0919 66.63 62.9119 67.31C61.7319 67.97 60.4219 68.3 58.9819 68.3ZM58.9819 67.64C60.4619 67.64 61.5719 67.1 62.3119 66.02C63.0719 64.94 63.4519 63.51 63.4519 61.73V58.73C63.4519 56.95 63.0719 55.53 62.3119 54.47C61.5719 53.39 60.4619 52.85 58.9819 52.85C57.5019 52.85 56.3819 53.39 55.6219 54.47C54.8819 55.53 54.5119 56.95 54.5119 58.73V61.73C54.5119 63.51 54.8819 64.94 55.6219 66.02C56.3819 67.1 57.5019 67.64 58.9819 67.64ZM77.0873 68.3C75.6473 68.3 74.3373 67.97 73.1573 67.31C71.9773 66.63 71.0373 65.68 70.3373 64.46C69.6573 63.22 69.3173 61.81 69.3173 60.23C69.3173 58.65 69.6573 57.25 70.3373 56.03C71.0373 54.81 71.9773 53.87 73.1573 53.21C74.3373 52.53 75.6473 52.19 77.0873 52.19C78.5273 52.19 79.8373 52.53 81.0173 53.21C82.1973 53.87 83.1273 54.81 83.8073 56.03C84.5073 57.25 84.8573 58.65 84.8573 60.23C84.8573 61.81 84.5073 63.22 83.8073 64.46C83.1273 65.68 82.1973 66.63 81.0173 67.31C79.8373 67.97 78.5273 68.3 77.0873 68.3ZM77.0873 67.64C78.5673 67.64 79.6773 67.1 80.4173 66.02C81.1773 64.94 81.5573 63.51 81.5573 61.73V58.73C81.5573 56.95 81.1773 55.53 80.4173 54.47C79.6773 53.39 78.5673 52.85 77.0873 52.85C75.6073 52.85 74.4873 53.39 73.7273 54.47C72.9873 55.53 72.6173 56.95 72.6173 58.73V61.73C72.6173 63.51 72.9873 64.94 73.7273 66.02C74.4873 67.1 75.6073 67.64 77.0873 67.64ZM90.1828 48.98C89.6228 48.98 89.1428 48.79 88.7428 48.41C88.3428 48.01 88.1428 47.53 88.1428 46.97C88.1428 46.41 88.3328 45.94 88.7128 45.56C89.1128 45.18 89.6028 44.99 90.1828 44.99C90.7228 44.99 91.1828 45.18 91.5628 45.56C91.9428 45.94 92.1328 46.41 92.1328 46.97C92.1328 47.53 91.9428 48.01 91.5628 48.41C91.1828 48.79 90.7228 48.98 90.1828 48.98ZM87.0928 76.76C85.9728 76.76 85.0828 76.5 84.4228 75.98C83.7628 75.48 83.4328 74.8 83.4328 73.94C83.4328 73.4 83.5828 72.96 83.8828 72.62C84.1828 72.28 84.5828 72.11 85.0828 72.11C85.5428 72.11 85.9428 72.28 86.2828 72.62C86.6228 72.96 86.7928 73.36 86.7928 73.82C86.1728 74 85.8628 74.39 85.8628 74.99C85.8628 75.27 85.9728 75.52 86.1928 75.74C86.4328 75.98 86.7328 76.1 87.0928 76.1C87.8128 76.1 88.3128 75.75 88.5928 75.05C88.8928 74.37 89.0428 73.17 89.0428 71.45V53.36L86.7928 53.06V52.46H92.0428V71.12C92.0428 72.86 91.6628 74.23 90.9028 75.23C90.1628 76.25 88.8928 76.76 87.0928 76.76ZM100.242 68.3C98.9624 68.3 97.9124 67.97 97.0924 67.31C96.2724 66.63 95.8624 65.63 95.8624 64.31C95.8624 62.43 96.6524 61.1 98.2324 60.32C99.8124 59.52 101.642 59.12 103.722 59.12H105.732V56.81C105.732 55.77 105.612 54.97 105.372 54.41C105.152 53.83 104.802 53.43 104.322 53.21C103.842 52.97 103.192 52.85 102.372 52.85C101.432 52.85 100.732 53.04 100.272 53.42C99.8124 53.78 99.5824 54.27 99.5824 54.89C99.5824 55.47 99.8624 55.85 100.422 56.03C100.422 56.53 100.232 56.97 99.8524 57.35C99.4724 57.73 99.0224 57.92 98.5024 57.92C97.9424 57.92 97.4924 57.77 97.1524 57.47C96.8124 57.15 96.6424 56.67 96.6424 56.03C96.6424 54.87 97.2224 53.94 98.3824 53.24C99.5424 52.54 100.992 52.19 102.732 52.19C106.732 52.19 108.732 53.93 108.732 57.41V65.99C108.732 66.43 108.822 66.77 109.002 67.01C109.202 67.23 109.482 67.34 109.842 67.34C110.182 67.34 110.452 67.23 110.652 67.01C110.852 66.77 110.952 66.45 110.952 66.05H111.582C111.582 66.75 111.352 67.3 110.892 67.7C110.452 68.1 109.832 68.3 109.032 68.3C108.112 68.3 107.332 68.04 106.692 67.52C106.072 66.98 105.752 66.15 105.732 65.03C105.252 66.05 104.512 66.85 103.512 67.43C102.532 68.01 101.442 68.3 100.242 68.3ZM101.892 66.98C102.432 66.98 102.982 66.82 103.542 66.5C104.122 66.18 104.612 65.72 105.012 65.12C105.412 64.5 105.652 63.76 105.732 62.9V59.78H103.722C102.082 59.78 100.852 60.15 100.032 60.89C99.2324 61.61 98.8324 62.63 98.8324 63.95C98.8324 65.05 99.0924 65.83 99.6124 66.29C100.132 66.75 100.892 66.98 101.892 66.98Z" fill="#101010"/>
<path d="M31.8864 107H30.4091L34.6818 95.3636H36.1364L40.4091 107H38.9318L35.4545 97.2045H35.3636L31.8864 107ZM32.4318 102.455H38.3864V103.705H32.4318V102.455ZM55.9489 95.3636V107H54.5852L48.2443 97.8636H48.1307V107H46.7216V95.3636H48.0852L54.4489 104.523H54.5625V95.3636H55.9489ZM62.2457 107.182C61.4048 107.182 60.6795 106.996 60.0696 106.625C59.4635 106.25 58.9957 105.727 58.6662 105.057C58.3404 104.383 58.1776 103.598 58.1776 102.705C58.1776 101.811 58.3404 101.023 58.6662 100.341C58.9957 99.6553 59.4541 99.1212 60.0412 98.7386C60.6321 98.3523 61.3215 98.1591 62.1094 98.1591C62.5639 98.1591 63.0128 98.2348 63.456 98.3864C63.8991 98.5379 64.3026 98.7841 64.6662 99.125C65.0298 99.4621 65.3196 99.9091 65.5355 100.466C65.7514 101.023 65.8594 101.708 65.8594 102.523V103.091H59.1321V101.932H64.4957C64.4957 101.439 64.3973 101 64.2003 100.614C64.0071 100.227 63.7306 99.9223 63.3707 99.6989C63.0147 99.4754 62.5942 99.3636 62.1094 99.3636C61.5753 99.3636 61.1132 99.4962 60.723 99.7614C60.3366 100.023 60.0393 100.364 59.831 100.784C59.6226 101.205 59.5185 101.655 59.5185 102.136V102.909C59.5185 103.568 59.6321 104.127 59.8594 104.585C60.0904 105.04 60.4105 105.386 60.8196 105.625C61.2287 105.86 61.7041 105.977 62.2457 105.977C62.598 105.977 62.9162 105.928 63.2003 105.83C63.4882 105.727 63.7363 105.576 63.9446 105.375C64.1529 105.17 64.3139 104.917 64.4276 104.614L65.723 104.977C65.5866 105.417 65.3575 105.803 65.0355 106.136C64.7135 106.466 64.3158 106.723 63.8423 106.909C63.3688 107.091 62.8366 107.182 62.2457 107.182ZM69.8764 107L67.2173 98.2727H68.6264L70.5128 104.955H70.6037L72.4673 98.2727H73.8991L75.7401 104.932H75.831L77.7173 98.2727H79.1264L76.4673 107H75.1491L73.2401 100.295H73.1037L71.1946 107H69.8764ZM85.581 95.3636H87.2628L91.2173 105.023H91.3537L95.3082 95.3636H96.9901V107H95.6719V98.1591H95.5582L91.9219 107H90.6491L87.0128 98.1591H86.8991V107H85.581V95.3636ZM103.293 107.182C102.452 107.182 101.726 106.996 101.116 106.625C100.51 106.25 100.043 105.727 99.7131 105.057C99.3873 104.383 99.2244 103.598 99.2244 102.705C99.2244 101.811 99.3873 101.023 99.7131 100.341C100.043 99.6553 100.501 99.1212 101.088 98.7386C101.679 98.3523 102.368 98.1591 103.156 98.1591C103.611 98.1591 104.06 98.2348 104.503 98.3864C104.946 98.5379 105.349 98.7841 105.713 99.125C106.077 99.4621 106.366 99.9091 106.582 100.466C106.798 101.023 106.906 101.708 106.906 102.523V103.091H100.179V101.932H105.543C105.543 101.439 105.444 101 105.247 100.614C105.054 100.227 104.777 99.9223 104.418 99.6989C104.062 99.4754 103.641 99.3636 103.156 99.3636C102.622 99.3636 102.16 99.4962 101.77 99.7614C101.384 100.023 101.086 100.364 100.878 100.784C100.67 101.205 100.565 101.655 100.565 102.136V102.909C100.565 103.568 100.679 104.127 100.906 104.585C101.137 105.04 101.457 105.386 101.866 105.625C102.276 105.86 102.751 105.977 103.293 105.977C103.645 105.977 103.963 105.928 104.247 105.83C104.535 105.727 104.783 105.576 104.991 105.375C105.2 105.17 105.361 104.917 105.474 104.614L106.77 104.977C106.634 105.417 106.404 105.803 106.082 106.136C105.76 106.466 105.363 106.723 104.889 106.909C104.416 107.091 103.884 107.182 103.293 107.182ZM112.741 98.2727V99.4091H108.219V98.2727H112.741ZM109.537 96.1818H110.878V104.5C110.878 104.879 110.933 105.163 111.043 105.352C111.156 105.538 111.3 105.663 111.474 105.727C111.652 105.788 111.84 105.818 112.037 105.818C112.185 105.818 112.306 105.811 112.401 105.795C112.495 105.777 112.571 105.761 112.628 105.75L112.901 106.955C112.81 106.989 112.683 107.023 112.52 107.057C112.357 107.095 112.151 107.114 111.901 107.114C111.522 107.114 111.151 107.032 110.787 106.869C110.427 106.706 110.128 106.458 109.889 106.125C109.654 105.792 109.537 105.371 109.537 104.864V96.1818ZM117.327 107.205C116.774 107.205 116.272 107.1 115.821 106.892C115.37 106.68 115.012 106.375 114.747 105.977C114.482 105.576 114.349 105.091 114.349 104.523C114.349 104.023 114.448 103.617 114.645 103.307C114.842 102.992 115.105 102.746 115.435 102.568C115.764 102.39 116.128 102.258 116.526 102.17C116.927 102.08 117.33 102.008 117.736 101.955C118.266 101.886 118.696 101.835 119.026 101.801C119.359 101.763 119.601 101.701 119.753 101.614C119.908 101.527 119.986 101.375 119.986 101.159V101.114C119.986 100.553 119.832 100.117 119.526 99.8068C119.223 99.4962 118.762 99.3409 118.145 99.3409C117.505 99.3409 117.003 99.4811 116.639 99.7614C116.276 100.042 116.02 100.341 115.872 100.659L114.599 100.205C114.827 99.6742 115.13 99.2614 115.509 98.9659C115.891 98.6667 116.308 98.4583 116.759 98.3409C117.213 98.2197 117.66 98.1591 118.099 98.1591C118.38 98.1591 118.702 98.1932 119.065 98.2614C119.433 98.3258 119.787 98.4602 120.128 98.6648C120.473 98.8693 120.759 99.178 120.986 99.5909C121.213 100.004 121.327 100.557 121.327 101.25V107H119.986V105.818H119.918C119.827 106.008 119.675 106.21 119.463 106.426C119.251 106.642 118.969 106.826 118.616 106.977C118.264 107.129 117.834 107.205 117.327 107.205ZM117.531 106C118.062 106 118.509 105.896 118.872 105.688C119.24 105.479 119.516 105.21 119.702 104.881C119.891 104.551 119.986 104.205 119.986 103.841V102.614C119.929 102.682 119.804 102.744 119.611 102.801C119.421 102.854 119.202 102.902 118.952 102.943C118.705 102.981 118.465 103.015 118.23 103.045C117.999 103.072 117.812 103.095 117.668 103.114C117.319 103.159 116.993 103.233 116.69 103.335C116.391 103.434 116.149 103.583 115.963 103.784C115.781 103.981 115.69 104.25 115.69 104.591C115.69 105.057 115.863 105.409 116.207 105.648C116.556 105.883 116.997 106 117.531 106ZM125.115 95.3636V107H123.774V95.3636H125.115ZM128.912 95.3636V107H127.571V95.3636H128.912ZM131.368 107V98.2727H132.709V107H131.368ZM132.05 96.8182C131.788 96.8182 131.563 96.7292 131.374 96.5511C131.188 96.3731 131.095 96.1591 131.095 95.9091C131.095 95.6591 131.188 95.4451 131.374 95.267C131.563 95.089 131.788 95 132.05 95C132.311 95 132.535 95.089 132.72 95.267C132.91 95.4451 133.004 95.6591 133.004 95.9091C133.004 96.1591 132.91 96.3731 132.72 96.5511C132.535 96.7292 132.311 96.8182 132.05 96.8182ZM138.71 107.182C137.892 107.182 137.188 106.989 136.597 106.602C136.006 106.216 135.551 105.684 135.233 105.006C134.915 104.328 134.756 103.553 134.756 102.682C134.756 101.795 134.919 101.013 135.244 100.335C135.574 99.6534 136.032 99.1212 136.619 98.7386C137.21 98.3523 137.9 98.1591 138.688 98.1591C139.301 98.1591 139.854 98.2727 140.347 98.5C140.839 98.7273 141.242 99.0455 141.557 99.4545C141.871 99.8636 142.066 100.341 142.142 100.886H140.801C140.699 100.489 140.472 100.136 140.119 99.8295C139.771 99.5189 139.301 99.3636 138.71 99.3636C138.188 99.3636 137.729 99.5 137.335 99.7727C136.945 100.042 136.64 100.422 136.42 100.915C136.205 101.403 136.097 101.977 136.097 102.636C136.097 103.311 136.203 103.898 136.415 104.398C136.631 104.898 136.934 105.286 137.324 105.562C137.718 105.839 138.18 105.977 138.71 105.977C139.059 105.977 139.375 105.917 139.659 105.795C139.943 105.674 140.184 105.5 140.381 105.273C140.578 105.045 140.718 104.773 140.801 104.455H142.142C142.066 104.97 141.879 105.434 141.58 105.847C141.284 106.256 140.892 106.581 140.403 106.824C139.919 107.062 139.354 107.182 138.71 107.182ZM148.784 107V95.3636H155.761V96.6136H150.193V100.545H155.239V101.795H150.193V107H148.784ZM157.993 107V98.2727H159.334V107H157.993ZM158.675 96.8182C158.413 96.8182 158.188 96.7292 157.999 96.5511C157.813 96.3731 157.72 96.1591 157.72 95.9091C157.72 95.6591 157.813 95.4451 157.999 95.267C158.188 95.089 158.413 95 158.675 95C158.936 95 159.16 95.089 159.345 95.267C159.535 95.4451 159.629 95.6591 159.629 95.9091C159.629 96.1591 159.535 96.3731 159.345 96.5511C159.16 96.7292 158.936 96.8182 158.675 96.8182ZM163.131 101.75V107H161.79V98.2727H163.085V99.6364H163.199C163.403 99.1932 163.714 98.8371 164.131 98.5682C164.547 98.2955 165.085 98.1591 165.744 98.1591C166.335 98.1591 166.852 98.2803 167.295 98.5227C167.739 98.7614 168.083 99.125 168.33 99.6136C168.576 100.098 168.699 100.712 168.699 101.455V107H167.358V101.545C167.358 100.86 167.18 100.326 166.824 99.9432C166.468 99.5568 165.979 99.3636 165.358 99.3636C164.93 99.3636 164.547 99.4564 164.21 99.642C163.877 99.8277 163.614 100.098 163.42 100.455C163.227 100.811 163.131 101.242 163.131 101.75ZM171.149 107V98.2727H172.49V107H171.149ZM171.831 96.8182C171.57 96.8182 171.344 96.7292 171.155 96.5511C170.969 96.3731 170.876 96.1591 170.876 95.9091C170.876 95.6591 170.969 95.4451 171.155 95.267C171.344 95.089 171.57 95 171.831 95C172.092 95 172.316 95.089 172.501 95.267C172.691 95.4451 172.786 95.6591 172.786 95.9091C172.786 96.1591 172.691 96.3731 172.501 96.5511C172.316 96.7292 172.092 96.8182 171.831 96.8182ZM181.128 100.227L179.923 100.568C179.848 100.367 179.736 100.172 179.588 99.983C179.444 99.7898 179.247 99.6307 178.997 99.5057C178.747 99.3807 178.427 99.3182 178.037 99.3182C177.503 99.3182 177.058 99.4413 176.702 99.6875C176.349 99.9299 176.173 100.239 176.173 100.614C176.173 100.947 176.295 101.21 176.537 101.403C176.779 101.597 177.158 101.758 177.673 101.886L178.969 102.205C179.749 102.394 180.33 102.684 180.713 103.074C181.096 103.46 181.287 103.958 181.287 104.568C181.287 105.068 181.143 105.515 180.855 105.909C180.571 106.303 180.173 106.614 179.662 106.841C179.151 107.068 178.556 107.182 177.878 107.182C176.988 107.182 176.251 106.989 175.668 106.602C175.084 106.216 174.715 105.652 174.56 104.909L175.832 104.591C175.954 105.061 176.183 105.413 176.52 105.648C176.861 105.883 177.306 106 177.855 106C178.48 106 178.976 105.867 179.344 105.602C179.715 105.333 179.901 105.011 179.901 104.636C179.901 104.333 179.795 104.08 179.582 103.875C179.37 103.667 179.045 103.511 178.605 103.409L177.151 103.068C176.351 102.879 175.764 102.585 175.389 102.188C175.018 101.786 174.832 101.284 174.832 100.682C174.832 100.189 174.971 99.7538 175.247 99.375C175.527 98.9962 175.908 98.6989 176.389 98.483C176.874 98.267 177.423 98.1591 178.037 98.1591C178.901 98.1591 179.579 98.3485 180.071 98.7273C180.567 99.1061 180.92 99.6061 181.128 100.227ZM184.646 101.75V107H183.305V95.3636H184.646V99.6364H184.76C184.964 99.1856 185.271 98.8277 185.68 98.5625C186.093 98.2936 186.643 98.1591 187.328 98.1591C187.923 98.1591 188.444 98.2784 188.891 98.517C189.338 98.7519 189.684 99.1136 189.93 99.6023C190.18 100.087 190.305 100.705 190.305 101.455V107H188.964V101.545C188.964 100.852 188.785 100.316 188.425 99.9375C188.069 99.5549 187.574 99.3636 186.942 99.3636C186.502 99.3636 186.108 99.4564 185.76 99.642C185.415 99.8277 185.143 100.098 184.942 100.455C184.745 100.811 184.646 101.242 184.646 101.75ZM197.44 107V95.3636H201.509C202.319 95.3636 202.988 95.5038 203.514 95.7841C204.041 96.0606 204.433 96.4337 204.69 96.9034C204.948 97.3693 205.077 97.8864 205.077 98.4545C205.077 98.9545 204.988 99.3674 204.81 99.6932C204.635 100.019 204.404 100.277 204.116 100.466C203.832 100.655 203.524 100.795 203.19 100.886V101C203.546 101.023 203.904 101.148 204.264 101.375C204.624 101.602 204.925 101.928 205.168 102.352C205.41 102.777 205.531 103.295 205.531 103.909C205.531 104.492 205.399 105.017 205.134 105.483C204.868 105.949 204.45 106.318 203.878 106.591C203.306 106.864 202.562 107 201.645 107H197.44ZM198.849 105.75H201.645C202.565 105.75 203.219 105.572 203.605 105.216C203.995 104.856 204.19 104.42 204.19 103.909C204.19 103.515 204.09 103.152 203.889 102.818C203.688 102.481 203.402 102.212 203.031 102.011C202.66 101.807 202.221 101.705 201.713 101.705H198.849V105.75ZM198.849 100.477H201.463C201.887 100.477 202.27 100.394 202.611 100.227C202.955 100.061 203.228 99.8258 203.429 99.5227C203.634 99.2197 203.736 98.8636 203.736 98.4545C203.736 97.9432 203.558 97.5095 203.202 97.1534C202.846 96.7936 202.281 96.6136 201.509 96.6136H198.849V100.477ZM207.665 107V98.2727H209.006V107H207.665ZM208.347 96.8182C208.085 96.8182 207.86 96.7292 207.67 96.5511C207.485 96.3731 207.392 96.1591 207.392 95.9091C207.392 95.6591 207.485 95.4451 207.67 95.267C207.86 95.089 208.085 95 208.347 95C208.608 95 208.831 95.089 209.017 95.267C209.206 95.4451 209.301 95.6591 209.301 95.9091C209.301 96.1591 209.206 96.3731 209.017 96.5511C208.831 96.7292 208.608 96.8182 208.347 96.8182ZM214.984 110.455C214.337 110.455 213.78 110.371 213.314 110.205C212.848 110.042 212.46 109.826 212.149 109.557C211.842 109.292 211.598 109.008 211.416 108.705L212.484 107.955C212.606 108.114 212.759 108.295 212.945 108.5C213.13 108.708 213.384 108.888 213.706 109.04C214.032 109.195 214.458 109.273 214.984 109.273C215.689 109.273 216.27 109.102 216.729 108.761C217.187 108.42 217.416 107.886 217.416 107.159V105.386H217.303C217.204 105.545 217.064 105.742 216.882 105.977C216.704 106.208 216.446 106.415 216.109 106.597C215.776 106.775 215.325 106.864 214.757 106.864C214.053 106.864 213.42 106.697 212.859 106.364C212.303 106.03 211.861 105.545 211.536 104.909C211.214 104.273 211.053 103.5 211.053 102.591C211.053 101.697 211.21 100.919 211.524 100.256C211.839 99.589 212.276 99.0739 212.837 98.7102C213.397 98.3428 214.045 98.1591 214.78 98.1591C215.348 98.1591 215.799 98.2538 216.132 98.4432C216.469 98.6288 216.727 98.8409 216.905 99.0795C217.087 99.3144 217.227 99.5076 217.325 99.6591H217.462V98.2727H218.757V107.25C218.757 108 218.587 108.61 218.246 109.08C217.909 109.553 217.454 109.9 216.882 110.119C216.314 110.343 215.681 110.455 214.984 110.455ZM214.939 105.659C215.477 105.659 215.931 105.536 216.303 105.29C216.674 105.044 216.956 104.689 217.149 104.227C217.342 103.765 217.439 103.212 217.439 102.568C217.439 101.939 217.344 101.384 217.155 100.903C216.965 100.422 216.685 100.045 216.314 99.7727C215.943 99.5 215.484 99.3636 214.939 99.3636C214.371 99.3636 213.897 99.5076 213.518 99.7955C213.143 100.083 212.861 100.47 212.672 100.955C212.486 101.439 212.393 101.977 212.393 102.568C212.393 103.174 212.488 103.71 212.678 104.176C212.871 104.638 213.155 105.002 213.53 105.267C213.909 105.528 214.378 105.659 214.939 105.659ZM232.257 98.2727C232.189 97.697 231.912 97.25 231.428 96.9318C230.943 96.6136 230.348 96.4545 229.643 96.4545C229.128 96.4545 228.678 96.5379 228.291 96.7045C227.909 96.8712 227.609 97.1004 227.393 97.392C227.181 97.6837 227.075 98.0152 227.075 98.3864C227.075 98.697 227.149 98.964 227.297 99.1875C227.448 99.4072 227.642 99.5909 227.876 99.7386C228.111 99.8826 228.357 100.002 228.615 100.097C228.873 100.187 229.109 100.261 229.325 100.318L230.507 100.636C230.81 100.716 231.147 100.826 231.518 100.966C231.893 101.106 232.251 101.297 232.592 101.54C232.937 101.778 233.221 102.085 233.445 102.46C233.668 102.835 233.78 103.295 233.78 103.841C233.78 104.47 233.615 105.038 233.286 105.545C232.96 106.053 232.482 106.456 231.854 106.756C231.229 107.055 230.469 107.205 229.575 107.205C228.742 107.205 228.02 107.07 227.411 106.801C226.804 106.532 226.327 106.157 225.979 105.676C225.634 105.195 225.439 104.636 225.393 104H226.848C226.886 104.439 227.034 104.803 227.291 105.091C227.553 105.375 227.882 105.587 228.28 105.727C228.681 105.864 229.113 105.932 229.575 105.932C230.113 105.932 230.596 105.845 231.024 105.67C231.452 105.492 231.791 105.246 232.041 104.932C232.291 104.614 232.416 104.242 232.416 103.818C232.416 103.432 232.308 103.117 232.092 102.875C231.876 102.633 231.592 102.436 231.24 102.284C230.888 102.133 230.507 102 230.098 101.886L228.666 101.477C227.757 101.216 227.037 100.843 226.507 100.358C225.977 99.8731 225.712 99.2386 225.712 98.4545C225.712 97.803 225.888 97.2348 226.24 96.75C226.596 96.2614 227.073 95.8826 227.672 95.6136C228.274 95.3409 228.946 95.2045 229.689 95.2045C230.439 95.2045 231.106 95.339 231.689 95.608C232.272 95.8731 232.734 96.2367 233.075 96.6989C233.42 97.161 233.602 97.6856 233.621 98.2727H232.257ZM235.915 107V98.2727H237.256V107H235.915ZM236.597 96.8182C236.335 96.8182 236.11 96.7292 235.92 96.5511C235.735 96.3731 235.642 96.1591 235.642 95.9091C235.642 95.6591 235.735 95.4451 235.92 95.267C236.11 95.089 236.335 95 236.597 95C236.858 95 237.081 95.089 237.267 95.267C237.456 95.4451 237.551 95.6591 237.551 95.9091C237.551 96.1591 237.456 96.3731 237.267 96.5511C237.081 96.7292 236.858 96.8182 236.597 96.8182ZM239.462 107V105.977L244.416 99.6136V99.5227H239.621V98.2727H246.143V99.3409L241.325 105.659V105.75H246.303V107H239.462ZM251.777 107.182C250.936 107.182 250.211 106.996 249.601 106.625C248.995 106.25 248.527 105.727 248.197 105.057C247.872 104.383 247.709 103.598 247.709 102.705C247.709 101.811 247.872 101.023 248.197 100.341C248.527 99.6553 248.985 99.1212 249.572 98.7386C250.163 98.3523 250.853 98.1591 251.641 98.1591C252.095 98.1591 252.544 98.2348 252.987 98.3864C253.43 98.5379 253.834 98.7841 254.197 99.125C254.561 99.4621 254.851 99.9091 255.067 100.466C255.283 101.023 255.391 101.708 255.391 102.523V103.091H248.663V101.932H254.027C254.027 101.439 253.929 101 253.732 100.614C253.538 100.227 253.262 99.9223 252.902 99.6989C252.546 99.4754 252.125 99.3636 251.641 99.3636C251.107 99.3636 250.644 99.4962 250.254 99.7614C249.868 100.023 249.571 100.364 249.362 100.784C249.154 101.205 249.05 101.655 249.05 102.136V102.909C249.05 103.568 249.163 104.127 249.391 104.585C249.622 105.04 249.942 105.386 250.351 105.625C250.76 105.86 251.235 105.977 251.777 105.977C252.129 105.977 252.447 105.928 252.732 105.83C253.019 105.727 253.268 105.576 253.476 105.375C253.684 105.17 253.845 104.917 253.959 104.614L255.254 104.977C255.118 105.417 254.889 105.803 254.567 106.136C254.245 106.466 253.847 106.723 253.374 106.909C252.9 107.091 252.368 107.182 251.777 107.182ZM30.7727 120.614V119.364H39.5V120.614H35.8409V131H34.4318V120.614H30.7727ZM43.8864 131.182C43.0455 131.182 42.3201 130.996 41.7102 130.625C41.1042 130.25 40.6364 129.727 40.3068 129.057C39.9811 128.383 39.8182 127.598 39.8182 126.705C39.8182 125.811 39.9811 125.023 40.3068 124.341C40.6364 123.655 41.0947 123.121 41.6818 122.739C42.2727 122.352 42.9621 122.159 43.75 122.159C44.2045 122.159 44.6534 122.235 45.0966 122.386C45.5398 122.538 45.9432 122.784 46.3068 123.125C46.6705 123.462 46.9602 123.909 47.1761 124.466C47.392 125.023 47.5 125.708 47.5 126.523V127.091H40.7727V125.932H46.1364C46.1364 125.439 46.0379 125 45.8409 124.614C45.6477 124.227 45.3712 123.922 45.0114 123.699C44.6553 123.475 44.2348 123.364 43.75 123.364C43.2159 123.364 42.7538 123.496 42.3636 123.761C41.9773 124.023 41.6799 124.364 41.4716 124.784C41.2633 125.205 41.1591 125.655 41.1591 126.136V126.909C41.1591 127.568 41.2727 128.127 41.5 128.585C41.7311 129.04 42.0511 129.386 42.4602 129.625C42.8693 129.86 43.3447 129.977 43.8864 129.977C44.2386 129.977 44.5568 129.928 44.8409 129.83C45.1288 129.727 45.3769 129.576 45.5852 129.375C45.7936 129.17 45.9545 128.917 46.0682 128.614L47.3636 128.977C47.2273 129.417 46.9981 129.803 46.6761 130.136C46.3542 130.466 45.9564 130.723 45.483 130.909C45.0095 131.091 44.4773 131.182 43.8864 131.182ZM49.5398 131V122.273H50.8352V123.636H50.9489C51.1307 123.17 51.4242 122.809 51.8295 122.551C52.2348 122.29 52.7216 122.159 53.2898 122.159C53.8655 122.159 54.3447 122.29 54.7273 122.551C55.1136 122.809 55.4148 123.17 55.6307 123.636H55.7216C55.9451 123.186 56.2803 122.828 56.7273 122.562C57.1742 122.294 57.7102 122.159 58.3352 122.159C59.1155 122.159 59.7538 122.403 60.25 122.892C60.7462 123.377 60.9943 124.133 60.9943 125.159V131H59.6534V125.159C59.6534 124.515 59.4773 124.055 59.125 123.778C58.7727 123.502 58.358 123.364 57.8807 123.364C57.267 123.364 56.7917 123.549 56.4545 123.92C56.1174 124.288 55.9489 124.754 55.9489 125.318V131H54.5852V125.023C54.5852 124.527 54.4242 124.127 54.1023 123.824C53.7803 123.517 53.3655 123.364 52.858 123.364C52.5095 123.364 52.1837 123.456 51.8807 123.642C51.5814 123.828 51.339 124.085 51.1534 124.415C50.9716 124.741 50.8807 125.117 50.8807 125.545V131H49.5398ZM63.446 134.273V122.273H64.7415V123.659H64.9006C64.9991 123.508 65.1354 123.314 65.3097 123.08C65.4877 122.841 65.7415 122.629 66.071 122.443C66.4044 122.254 66.8551 122.159 67.4233 122.159C68.1581 122.159 68.8059 122.343 69.3665 122.71C69.9271 123.078 70.3646 123.598 70.679 124.273C70.9934 124.947 71.1506 125.742 71.1506 126.659C71.1506 127.583 70.9934 128.384 70.679 129.062C70.3646 129.737 69.929 130.259 69.3722 130.631C68.8153 130.998 68.1733 131.182 67.446 131.182C66.8854 131.182 66.4366 131.089 66.0994 130.903C65.7623 130.714 65.5028 130.5 65.321 130.261C65.1392 130.019 64.9991 129.818 64.9006 129.659H64.7869V134.273H63.446ZM64.7642 126.636C64.7642 127.295 64.8608 127.877 65.054 128.381C65.2472 128.881 65.5294 129.273 65.9006 129.557C66.2718 129.837 66.7263 129.977 67.2642 129.977C67.8248 129.977 68.2926 129.83 68.6676 129.534C69.0464 129.235 69.3305 128.833 69.5199 128.33C69.7131 127.822 69.8097 127.258 69.8097 126.636C69.8097 126.023 69.715 125.47 69.5256 124.977C69.34 124.481 69.0578 124.089 68.679 123.801C68.304 123.509 67.8324 123.364 67.2642 123.364C66.7188 123.364 66.2604 123.502 65.8892 123.778C65.518 124.051 65.2377 124.434 65.0483 124.926C64.8589 125.415 64.7642 125.985 64.7642 126.636ZM74.5369 119.364V131H73.196V119.364H74.5369ZM80.652 131.182C79.8111 131.182 79.0857 130.996 78.4759 130.625C77.8698 130.25 77.402 129.727 77.0724 129.057C76.7467 128.383 76.5838 127.598 76.5838 126.705C76.5838 125.811 76.7467 125.023 77.0724 124.341C77.402 123.655 77.8603 123.121 78.4474 122.739C79.0384 122.352 79.7277 122.159 80.5156 122.159C80.9702 122.159 81.419 122.235 81.8622 122.386C82.3054 122.538 82.7088 122.784 83.0724 123.125C83.4361 123.462 83.7259 123.909 83.9418 124.466C84.1577 125.023 84.2656 125.708 84.2656 126.523V127.091H77.5384V125.932H82.902C82.902 125.439 82.8035 125 82.6065 124.614C82.4134 124.227 82.1368 123.922 81.777 123.699C81.4209 123.475 81.0005 123.364 80.5156 123.364C79.9815 123.364 79.5194 123.496 79.1293 123.761C78.7429 124.023 78.4455 124.364 78.2372 124.784C78.0289 125.205 77.9247 125.655 77.9247 126.136V126.909C77.9247 127.568 78.0384 128.127 78.2656 128.585C78.4967 129.04 78.8168 129.386 79.2259 129.625C79.6349 129.86 80.1103 129.977 80.652 129.977C81.0043 129.977 81.3224 129.928 81.6065 129.83C81.8944 129.727 82.1425 129.576 82.3509 129.375C82.5592 129.17 82.7202 128.917 82.8338 128.614L84.1293 128.977C83.9929 129.417 83.7637 129.803 83.4418 130.136C83.1198 130.466 82.7221 130.723 82.2486 130.909C81.7751 131.091 81.2429 131.182 80.652 131.182ZM100.351 123H98.9418C98.8584 122.595 98.7126 122.239 98.5043 121.932C98.2997 121.625 98.0497 121.367 97.7543 121.159C97.4626 120.947 97.1387 120.788 96.7827 120.682C96.4266 120.576 96.0554 120.523 95.669 120.523C94.9645 120.523 94.3262 120.701 93.7543 121.057C93.1861 121.413 92.7334 121.938 92.3963 122.631C92.063 123.324 91.8963 124.174 91.8963 125.182C91.8963 126.189 92.063 127.04 92.3963 127.733C92.7334 128.426 93.1861 128.951 93.7543 129.307C94.3262 129.663 94.9645 129.841 95.669 129.841C96.0554 129.841 96.4266 129.788 96.7827 129.682C97.1387 129.576 97.4626 129.419 97.7543 129.21C98.0497 128.998 98.2997 128.739 98.5043 128.432C98.7126 128.121 98.8584 127.765 98.9418 127.364H100.351C100.245 127.958 100.052 128.491 99.7713 128.96C99.491 129.43 99.1425 129.83 98.7259 130.159C98.3092 130.485 97.8414 130.733 97.3224 130.903C96.8073 131.074 96.2562 131.159 95.669 131.159C94.6766 131.159 93.794 130.917 93.0213 130.432C92.2486 129.947 91.6406 129.258 91.1974 128.364C90.7543 127.47 90.5327 126.409 90.5327 125.182C90.5327 123.955 90.7543 122.894 91.1974 122C91.6406 121.106 92.2486 120.417 93.0213 119.932C93.794 119.447 94.6766 119.205 95.669 119.205C96.2562 119.205 96.8073 119.29 97.3224 119.46C97.8414 119.631 98.3092 119.881 98.7259 120.21C99.1425 120.536 99.491 120.934 99.7713 121.403C100.052 121.869 100.245 122.402 100.351 123ZM105.014 131.205C104.461 131.205 103.959 131.1 103.509 130.892C103.058 130.68 102.7 130.375 102.435 129.977C102.17 129.576 102.037 129.091 102.037 128.523C102.037 128.023 102.135 127.617 102.332 127.307C102.529 126.992 102.793 126.746 103.122 126.568C103.452 126.39 103.815 126.258 104.213 126.17C104.615 126.08 105.018 126.008 105.423 125.955C105.954 125.886 106.384 125.835 106.713 125.801C107.046 125.763 107.289 125.701 107.44 125.614C107.596 125.527 107.673 125.375 107.673 125.159V125.114C107.673 124.553 107.52 124.117 107.213 123.807C106.91 123.496 106.45 123.341 105.832 123.341C105.192 123.341 104.69 123.481 104.327 123.761C103.963 124.042 103.707 124.341 103.56 124.659L102.287 124.205C102.514 123.674 102.817 123.261 103.196 122.966C103.579 122.667 103.995 122.458 104.446 122.341C104.901 122.22 105.348 122.159 105.787 122.159C106.067 122.159 106.389 122.193 106.753 122.261C107.12 122.326 107.474 122.46 107.815 122.665C108.16 122.869 108.446 123.178 108.673 123.591C108.901 124.004 109.014 124.557 109.014 125.25V131H107.673V129.818H107.605C107.514 130.008 107.363 130.21 107.151 130.426C106.938 130.642 106.656 130.826 106.304 130.977C105.952 131.129 105.522 131.205 105.014 131.205ZM105.219 130C105.749 130 106.196 129.896 106.56 129.688C106.927 129.479 107.204 129.21 107.389 128.881C107.579 128.551 107.673 128.205 107.673 127.841V126.614C107.616 126.682 107.491 126.744 107.298 126.801C107.109 126.854 106.889 126.902 106.639 126.943C106.393 126.981 106.152 127.015 105.918 127.045C105.687 127.072 105.499 127.095 105.355 127.114C105.007 127.159 104.681 127.233 104.378 127.335C104.079 127.434 103.836 127.583 103.651 127.784C103.469 127.981 103.378 128.25 103.378 128.591C103.378 129.057 103.55 129.409 103.895 129.648C104.243 129.883 104.685 130 105.219 130ZM112.803 119.364V131H111.462V119.364H112.803ZM118.918 131.182C118.077 131.182 117.351 130.996 116.741 130.625C116.135 130.25 115.668 129.727 115.338 129.057C115.012 128.383 114.849 127.598 114.849 126.705C114.849 125.811 115.012 125.023 115.338 124.341C115.668 123.655 116.126 123.121 116.713 122.739C117.304 122.352 117.993 122.159 118.781 122.159C119.236 122.159 119.685 122.235 120.128 122.386C120.571 122.538 120.974 122.784 121.338 123.125C121.702 123.462 121.991 123.909 122.207 124.466C122.423 125.023 122.531 125.708 122.531 126.523V127.091H115.804V125.932H121.168C121.168 125.439 121.069 125 120.872 124.614C120.679 124.227 120.402 123.922 120.043 123.699C119.687 123.475 119.266 123.364 118.781 123.364C118.247 123.364 117.785 123.496 117.395 123.761C117.009 124.023 116.711 124.364 116.503 124.784C116.295 125.205 116.19 125.655 116.19 126.136V126.909C116.19 127.568 116.304 128.127 116.531 128.585C116.762 129.04 117.082 129.386 117.491 129.625C117.901 129.86 118.376 129.977 118.918 129.977C119.27 129.977 119.588 129.928 119.872 129.83C120.16 129.727 120.408 129.576 120.616 129.375C120.825 129.17 120.986 128.917 121.099 128.614L122.395 128.977C122.259 129.417 122.029 129.803 121.707 130.136C121.385 130.466 120.988 130.723 120.514 130.909C120.041 131.091 119.509 131.182 118.918 131.182ZM125.912 125.75V131H124.571V122.273H125.866V123.636H125.98C126.185 123.193 126.495 122.837 126.912 122.568C127.329 122.295 127.866 122.159 128.526 122.159C129.116 122.159 129.634 122.28 130.077 122.523C130.52 122.761 130.865 123.125 131.111 123.614C131.357 124.098 131.48 124.712 131.48 125.455V131H130.139V125.545C130.139 124.86 129.961 124.326 129.605 123.943C129.249 123.557 128.76 123.364 128.139 123.364C127.711 123.364 127.329 123.456 126.991 123.642C126.658 123.828 126.395 124.098 126.202 124.455C126.009 124.811 125.912 125.242 125.912 125.75ZM137.226 131.182C136.499 131.182 135.857 130.998 135.3 130.631C134.743 130.259 134.307 129.737 133.993 129.062C133.679 128.384 133.521 127.583 133.521 126.659C133.521 125.742 133.679 124.947 133.993 124.273C134.307 123.598 134.745 123.078 135.305 122.71C135.866 122.343 136.514 122.159 137.249 122.159C137.817 122.159 138.266 122.254 138.595 122.443C138.929 122.629 139.182 122.841 139.357 123.08C139.535 123.314 139.673 123.508 139.771 123.659H139.885V119.364H141.226V131H139.93V129.659H139.771C139.673 129.818 139.533 130.019 139.351 130.261C139.169 130.5 138.91 130.714 138.572 130.903C138.235 131.089 137.786 131.182 137.226 131.182ZM137.408 129.977C137.946 129.977 138.4 129.837 138.771 129.557C139.143 129.273 139.425 128.881 139.618 128.381C139.811 127.877 139.908 127.295 139.908 126.636C139.908 125.985 139.813 125.415 139.624 124.926C139.434 124.434 139.154 124.051 138.783 123.778C138.411 123.502 137.953 123.364 137.408 123.364C136.839 123.364 136.366 123.509 135.987 123.801C135.612 124.089 135.33 124.481 135.141 124.977C134.955 125.47 134.862 126.023 134.862 126.636C134.862 127.258 134.957 127.822 135.146 128.33C135.339 128.833 135.624 129.235 135.999 129.534C136.377 129.83 136.847 129.977 137.408 129.977ZM146.436 131.205C145.883 131.205 145.381 131.1 144.93 130.892C144.48 130.68 144.122 130.375 143.857 129.977C143.591 129.576 143.459 129.091 143.459 128.523C143.459 128.023 143.557 127.617 143.754 127.307C143.951 126.992 144.214 126.746 144.544 126.568C144.874 126.39 145.237 126.258 145.635 126.17C146.036 126.08 146.44 126.008 146.845 125.955C147.375 125.886 147.805 125.835 148.135 125.801C148.468 125.763 148.711 125.701 148.862 125.614C149.018 125.527 149.095 125.375 149.095 125.159V125.114C149.095 124.553 148.942 124.117 148.635 123.807C148.332 123.496 147.872 123.341 147.254 123.341C146.614 123.341 146.112 123.481 145.749 123.761C145.385 124.042 145.129 124.341 144.982 124.659L143.709 124.205C143.936 123.674 144.239 123.261 144.618 122.966C145 122.667 145.417 122.458 145.868 122.341C146.322 122.22 146.769 122.159 147.209 122.159C147.489 122.159 147.811 122.193 148.175 122.261C148.542 122.326 148.896 122.46 149.237 122.665C149.582 122.869 149.868 123.178 150.095 123.591C150.322 124.004 150.436 124.557 150.436 125.25V131H149.095V129.818H149.027C148.936 130.008 148.785 130.21 148.572 130.426C148.36 130.642 148.078 130.826 147.726 130.977C147.374 131.129 146.944 131.205 146.436 131.205ZM146.641 130C147.171 130 147.618 129.896 147.982 129.688C148.349 129.479 148.625 129.21 148.811 128.881C149 128.551 149.095 128.205 149.095 127.841V126.614C149.038 126.682 148.913 126.744 148.72 126.801C148.531 126.854 148.311 126.902 148.061 126.943C147.815 126.981 147.574 127.015 147.339 127.045C147.108 127.072 146.921 127.095 146.777 127.114C146.429 127.159 146.103 127.233 145.8 127.335C145.5 127.434 145.258 127.583 145.072 127.784C144.891 127.981 144.8 128.25 144.8 128.591C144.8 129.057 144.972 129.409 145.317 129.648C145.665 129.883 146.107 130 146.641 130ZM152.884 131V122.273H154.179V123.591H154.27C154.429 123.159 154.717 122.809 155.134 122.54C155.55 122.271 156.02 122.136 156.543 122.136C156.641 122.136 156.764 122.138 156.912 122.142C157.06 122.146 157.171 122.152 157.247 122.159V123.523C157.202 123.511 157.098 123.494 156.935 123.472C156.776 123.445 156.607 123.432 156.429 123.432C156.005 123.432 155.626 123.521 155.293 123.699C154.963 123.873 154.702 124.116 154.509 124.426C154.319 124.733 154.224 125.083 154.224 125.477V131H152.884ZM165.018 124.227L163.814 124.568C163.738 124.367 163.626 124.172 163.479 123.983C163.335 123.79 163.138 123.631 162.888 123.506C162.638 123.381 162.318 123.318 161.928 123.318C161.393 123.318 160.948 123.441 160.592 123.688C160.24 123.93 160.064 124.239 160.064 124.614C160.064 124.947 160.185 125.21 160.428 125.403C160.67 125.597 161.049 125.758 161.564 125.886L162.859 126.205C163.64 126.394 164.221 126.684 164.604 127.074C164.986 127.46 165.178 127.958 165.178 128.568C165.178 129.068 165.034 129.515 164.746 129.909C164.462 130.303 164.064 130.614 163.553 130.841C163.041 131.068 162.446 131.182 161.768 131.182C160.878 131.182 160.142 130.989 159.558 130.602C158.975 130.216 158.606 129.652 158.45 128.909L159.723 128.591C159.844 129.061 160.073 129.413 160.411 129.648C160.751 129.883 161.196 130 161.746 130C162.371 130 162.867 129.867 163.234 129.602C163.606 129.333 163.791 129.011 163.791 128.636C163.791 128.333 163.685 128.08 163.473 127.875C163.261 127.667 162.935 127.511 162.496 127.409L161.041 127.068C160.242 126.879 159.655 126.585 159.28 126.188C158.909 125.786 158.723 125.284 158.723 124.682C158.723 124.189 158.861 123.754 159.138 123.375C159.418 122.996 159.799 122.699 160.28 122.483C160.765 122.267 161.314 122.159 161.928 122.159C162.791 122.159 163.469 122.348 163.962 122.727C164.458 123.106 164.81 123.606 165.018 124.227ZM171.673 131V129.977L175.514 125.773C175.965 125.28 176.336 124.852 176.628 124.489C176.92 124.121 177.135 123.777 177.276 123.455C177.42 123.129 177.491 122.788 177.491 122.432C177.491 122.023 177.393 121.669 177.196 121.369C177.003 121.07 176.738 120.839 176.401 120.676C176.063 120.513 175.685 120.432 175.264 120.432C174.817 120.432 174.427 120.525 174.094 120.71C173.764 120.892 173.509 121.148 173.327 121.477C173.149 121.807 173.06 122.193 173.06 122.636H171.719C171.719 121.955 171.876 121.356 172.19 120.841C172.505 120.326 172.933 119.924 173.474 119.636C174.02 119.348 174.632 119.205 175.31 119.205C175.991 119.205 176.596 119.348 177.122 119.636C177.649 119.924 178.062 120.312 178.361 120.801C178.66 121.29 178.81 121.833 178.81 122.432C178.81 122.86 178.732 123.278 178.577 123.688C178.425 124.093 178.16 124.545 177.781 125.045C177.406 125.542 176.885 126.148 176.219 126.864L173.605 129.659V129.75H179.014V131H171.673ZM185.156 131.159C184.3 131.159 183.571 130.926 182.969 130.46C182.366 129.991 181.906 129.311 181.588 128.42C181.27 127.527 181.111 126.447 181.111 125.182C181.111 123.924 181.27 122.85 181.588 121.96C181.91 121.066 182.372 120.384 182.974 119.915C183.58 119.441 184.308 119.205 185.156 119.205C186.005 119.205 186.73 119.441 187.332 119.915C187.938 120.384 188.401 121.066 188.719 121.96C189.041 122.85 189.202 123.924 189.202 125.182C189.202 126.447 189.043 127.527 188.724 128.42C188.406 129.311 187.946 129.991 187.344 130.46C186.741 130.926 186.012 131.159 185.156 131.159ZM185.156 129.909C186.005 129.909 186.664 129.5 187.134 128.682C187.603 127.864 187.838 126.697 187.838 125.182C187.838 124.174 187.73 123.316 187.514 122.608C187.302 121.9 186.995 121.36 186.594 120.989C186.196 120.617 185.717 120.432 185.156 120.432C184.315 120.432 183.658 120.847 183.185 121.676C182.711 122.502 182.474 123.67 182.474 125.182C182.474 126.189 182.58 127.045 182.793 127.75C183.005 128.455 183.31 128.991 183.707 129.358C184.109 129.725 184.592 129.909 185.156 129.909ZM191.361 131V129.977L195.202 125.773C195.652 125.28 196.024 124.852 196.315 124.489C196.607 124.121 196.823 123.777 196.963 123.455C197.107 123.129 197.179 122.788 197.179 122.432C197.179 122.023 197.08 121.669 196.884 121.369C196.69 121.07 196.425 120.839 196.088 120.676C195.751 120.513 195.372 120.432 194.952 120.432C194.505 120.432 194.115 120.525 193.781 120.71C193.452 120.892 193.196 121.148 193.014 121.477C192.836 121.807 192.747 122.193 192.747 122.636H191.406C191.406 121.955 191.563 121.356 191.878 120.841C192.192 120.326 192.62 119.924 193.162 119.636C193.707 119.348 194.319 119.205 194.997 119.205C195.679 119.205 196.283 119.348 196.81 119.636C197.336 119.924 197.749 120.312 198.048 120.801C198.348 121.29 198.497 121.833 198.497 122.432C198.497 122.86 198.42 123.278 198.264 123.688C198.113 124.093 197.848 124.545 197.469 125.045C197.094 125.542 196.573 126.148 195.906 126.864L193.293 129.659V129.75H198.702V131H191.361ZM200.526 128.614V127.455L205.639 119.364H206.48V121.159H205.912L202.048 127.273V127.364H208.935V128.614H200.526ZM206.003 131V128.261V127.722V119.364H207.344V131H206.003ZM218.155 131.205C217.602 131.205 217.1 131.1 216.649 130.892C216.198 130.68 215.84 130.375 215.575 129.977C215.31 129.576 215.178 129.091 215.178 128.523C215.178 128.023 215.276 127.617 215.473 127.307C215.67 126.992 215.933 126.746 216.263 126.568C216.592 126.39 216.956 126.258 217.354 126.17C217.755 126.08 218.159 126.008 218.564 125.955C219.094 125.886 219.524 125.835 219.854 125.801C220.187 125.763 220.429 125.701 220.581 125.614C220.736 125.527 220.814 125.375 220.814 125.159V125.114C220.814 124.553 220.661 124.117 220.354 123.807C220.051 123.496 219.59 123.341 218.973 123.341C218.333 123.341 217.831 123.481 217.467 123.761C217.104 124.042 216.848 124.341 216.7 124.659L215.428 124.205C215.655 123.674 215.958 123.261 216.337 122.966C216.719 122.667 217.136 122.458 217.587 122.341C218.041 122.22 218.488 122.159 218.928 122.159C219.208 122.159 219.53 122.193 219.893 122.261C220.261 122.326 220.615 122.46 220.956 122.665C221.301 122.869 221.587 123.178 221.814 123.591C222.041 124.004 222.155 124.557 222.155 125.25V131H220.814V129.818H220.746C220.655 130.008 220.503 130.21 220.291 130.426C220.079 130.642 219.797 130.826 219.445 130.977C219.092 131.129 218.662 131.205 218.155 131.205ZM218.359 130C218.89 130 219.337 129.896 219.7 129.688C220.068 129.479 220.344 129.21 220.53 128.881C220.719 128.551 220.814 128.205 220.814 127.841V126.614C220.757 126.682 220.632 126.744 220.439 126.801C220.25 126.854 220.03 126.902 219.78 126.943C219.534 126.981 219.293 127.015 219.058 127.045C218.827 127.072 218.64 127.095 218.496 127.114C218.147 127.159 217.821 127.233 217.518 127.335C217.219 127.434 216.977 127.583 216.791 127.784C216.609 127.981 216.518 128.25 216.518 128.591C216.518 129.057 216.691 129.409 217.036 129.648C217.384 129.883 217.825 130 218.359 130ZM224.602 131V122.273H225.898V123.591H225.989C226.148 123.159 226.436 122.809 226.852 122.54C227.269 122.271 227.739 122.136 228.261 122.136C228.36 122.136 228.483 122.138 228.631 122.142C228.778 122.146 228.89 122.152 228.966 122.159V123.523C228.92 123.511 228.816 123.494 228.653 123.472C228.494 123.445 228.326 123.432 228.148 123.432C227.723 123.432 227.345 123.521 227.011 123.699C226.682 123.873 226.42 124.116 226.227 124.426C226.038 124.733 225.943 125.083 225.943 125.477V131H224.602ZM233.949 131.182C233.108 131.182 232.383 130.996 231.773 130.625C231.167 130.25 230.699 129.727 230.369 129.057C230.044 128.383 229.881 127.598 229.881 126.705C229.881 125.811 230.044 125.023 230.369 124.341C230.699 123.655 231.157 123.121 231.744 122.739C232.335 122.352 233.025 122.159 233.812 122.159C234.267 122.159 234.716 122.235 235.159 122.386C235.602 122.538 236.006 122.784 236.369 123.125C236.733 123.462 237.023 123.909 237.239 124.466C237.455 125.023 237.562 125.708 237.562 126.523V127.091H230.835V125.932H236.199C236.199 125.439 236.1 125 235.903 124.614C235.71 124.227 235.434 123.922 235.074 123.699C234.718 123.475 234.297 123.364 233.812 123.364C233.278 123.364 232.816 123.496 232.426 123.761C232.04 124.023 231.742 124.364 231.534 124.784C231.326 125.205 231.222 125.655 231.222 126.136V126.909C231.222 127.568 231.335 128.127 231.562 128.585C231.794 129.04 232.114 129.386 232.523 129.625C232.932 129.86 233.407 129.977 233.949 129.977C234.301 129.977 234.619 129.928 234.903 129.83C235.191 129.727 235.439 129.576 235.648 129.375C235.856 129.17 236.017 128.917 236.131 128.614L237.426 128.977C237.29 129.417 237.061 129.803 236.739 130.136C236.417 130.466 236.019 130.723 235.545 130.909C235.072 131.091 234.54 131.182 233.949 131.182ZM33.7955 155.205C33.2424 155.205 32.7405 155.1 32.2898 154.892C31.839 154.68 31.4811 154.375 31.2159 153.977C30.9508 153.576 30.8182 153.091 30.8182 152.523C30.8182 152.023 30.9167 151.617 31.1136 151.307C31.3106 150.992 31.5739 150.746 31.9034 150.568C32.233 150.39 32.5966 150.258 32.9943 150.17C33.3958 150.08 33.7992 150.008 34.2045 149.955C34.7348 149.886 35.1648 149.835 35.4943 149.801C35.8277 149.763 36.0701 149.701 36.2216 149.614C36.3769 149.527 36.4545 149.375 36.4545 149.159V149.114C36.4545 148.553 36.3011 148.117 35.9943 147.807C35.6913 147.496 35.2311 147.341 34.6136 147.341C33.9735 147.341 33.4716 147.481 33.108 147.761C32.7443 148.042 32.4886 148.341 32.3409 148.659L31.0682 148.205C31.2955 147.674 31.5985 147.261 31.9773 146.966C32.3598 146.667 32.7765 146.458 33.2273 146.341C33.6818 146.22 34.1288 146.159 34.5682 146.159C34.8485 146.159 35.1705 146.193 35.5341 146.261C35.9015 146.326 36.2557 146.46 36.5966 146.665C36.9413 146.869 37.2273 147.178 37.4545 147.591C37.6818 148.004 37.7955 148.557 37.7955 149.25V155H36.4545V153.818H36.3864C36.2955 154.008 36.1439 154.21 35.9318 154.426C35.7197 154.642 35.4375 154.826 35.0852 154.977C34.733 155.129 34.303 155.205 33.7955 155.205ZM34 154C34.5303 154 34.9773 153.896 35.3409 153.688C35.7083 153.479 35.9848 153.21 36.1705 152.881C36.3598 152.551 36.4545 152.205 36.4545 151.841V150.614C36.3977 150.682 36.2727 150.744 36.0795 150.801C35.8902 150.854 35.6705 150.902 35.4205 150.943C35.1742 150.981 34.9337 151.015 34.6989 151.045C34.4678 151.072 34.2803 151.095 34.1364 151.114C33.7879 151.159 33.4621 151.233 33.1591 151.335C32.8598 151.434 32.6174 151.583 32.4318 151.784C32.25 151.981 32.1591 152.25 32.1591 152.591C32.1591 153.057 32.3314 153.409 32.6761 153.648C33.0246 153.883 33.4659 154 34 154ZM47.0668 146.273L43.8395 155H42.4759L39.2486 146.273H40.7031L43.1122 153.227H43.2031L45.6122 146.273H47.0668ZM51.1392 155.205C50.5862 155.205 50.0843 155.1 49.6335 154.892C49.1828 154.68 48.8248 154.375 48.5597 153.977C48.2945 153.576 48.1619 153.091 48.1619 152.523C48.1619 152.023 48.2604 151.617 48.4574 151.307C48.6544 150.992 48.9176 150.746 49.2472 150.568C49.5767 150.39 49.9403 150.258 50.3381 150.17C50.7396 150.08 51.143 150.008 51.5483 149.955C52.0786 149.886 52.5085 149.835 52.8381 149.801C53.1714 149.763 53.4138 149.701 53.5653 149.614C53.7206 149.527 53.7983 149.375 53.7983 149.159V149.114C53.7983 148.553 53.6449 148.117 53.3381 147.807C53.035 147.496 52.5748 147.341 51.9574 147.341C51.3172 147.341 50.8153 147.481 50.4517 147.761C50.0881 148.042 49.8324 148.341 49.6847 148.659L48.4119 148.205C48.6392 147.674 48.9422 147.261 49.321 146.966C49.7036 146.667 50.1203 146.458 50.571 146.341C51.0256 146.22 51.4725 146.159 51.9119 146.159C52.1922 146.159 52.5142 146.193 52.8778 146.261C53.2453 146.326 53.5994 146.46 53.9403 146.665C54.285 146.869 54.571 147.178 54.7983 147.591C55.0256 148.004 55.1392 148.557 55.1392 149.25V155H53.7983V153.818H53.7301C53.6392 154.008 53.4877 154.21 53.2756 154.426C53.0634 154.642 52.7813 154.826 52.429 154.977C52.0767 155.129 51.6468 155.205 51.1392 155.205ZM51.3438 154C51.8741 154 52.321 153.896 52.6847 153.688C53.0521 153.479 53.3286 153.21 53.5142 152.881C53.7036 152.551 53.7983 152.205 53.7983 151.841V150.614C53.7415 150.682 53.6165 150.744 53.4233 150.801C53.2339 150.854 53.0142 150.902 52.7642 150.943C52.518 150.981 52.2775 151.015 52.0426 151.045C51.8116 151.072 51.6241 151.095 51.4801 151.114C51.1316 151.159 50.8059 151.233 50.5028 151.335C50.2036 151.434 49.9612 151.583 49.7756 151.784C49.5938 151.981 49.5028 152.25 49.5028 152.591C49.5028 153.057 49.6752 153.409 50.0199 153.648C50.3684 153.883 50.8097 154 51.3438 154ZM57.5866 155V146.273H58.9276V155H57.5866ZM58.2685 144.818C58.0071 144.818 57.7817 144.729 57.5923 144.551C57.4067 144.373 57.3139 144.159 57.3139 143.909C57.3139 143.659 57.4067 143.445 57.5923 143.267C57.7817 143.089 58.0071 143 58.2685 143C58.5298 143 58.7533 143.089 58.9389 143.267C59.1283 143.445 59.223 143.659 59.223 143.909C59.223 144.159 59.1283 144.373 58.9389 144.551C58.7533 144.729 58.5298 144.818 58.2685 144.818ZM62.7244 143.364V155H61.3835V143.364H62.7244ZM67.7486 155.205C67.1955 155.205 66.6937 155.1 66.2429 154.892C65.7921 154.68 65.4342 154.375 65.169 153.977C64.9039 153.576 64.7713 153.091 64.7713 152.523C64.7713 152.023 64.8698 151.617 65.0668 151.307C65.2637 150.992 65.527 150.746 65.8565 150.568C66.1861 150.39 66.5497 150.258 66.9474 150.17C67.349 150.08 67.7524 150.008 68.1577 149.955C68.688 149.886 69.1179 149.835 69.4474 149.801C69.7808 149.763 70.0232 149.701 70.1747 149.614C70.33 149.527 70.4077 149.375 70.4077 149.159V149.114C70.4077 148.553 70.2543 148.117 69.9474 147.807C69.6444 147.496 69.1842 147.341 68.5668 147.341C67.9266 147.341 67.4247 147.481 67.0611 147.761C66.6974 148.042 66.4418 148.341 66.294 148.659L65.0213 148.205C65.2486 147.674 65.5516 147.261 65.9304 146.966C66.313 146.667 66.7296 146.458 67.1804 146.341C67.6349 146.22 68.0819 146.159 68.5213 146.159C68.8016 146.159 69.1236 146.193 69.4872 146.261C69.8546 146.326 70.2088 146.46 70.5497 146.665C70.8944 146.869 71.1804 147.178 71.4077 147.591C71.6349 148.004 71.7486 148.557 71.7486 149.25V155H70.4077V153.818H70.3395C70.2486 154.008 70.0971 154.21 69.8849 154.426C69.6728 154.642 69.3906 154.826 69.0384 154.977C68.6861 155.129 68.2562 155.205 67.7486 155.205ZM67.9531 154C68.4834 154 68.9304 153.896 69.294 153.688C69.6615 153.479 69.938 153.21 70.1236 152.881C70.313 152.551 70.4077 152.205 70.4077 151.841V150.614C70.3509 150.682 70.2259 150.744 70.0327 150.801C69.8433 150.854 69.6236 150.902 69.3736 150.943C69.1274 150.981 68.8868 151.015 68.652 151.045C68.4209 151.072 68.2334 151.095 68.0895 151.114C67.741 151.159 67.4152 151.233 67.1122 151.335C66.813 151.434 66.5705 151.583 66.3849 151.784C66.2031 151.981 66.1122 152.25 66.1122 152.591C66.1122 153.057 66.2846 153.409 66.6293 153.648C66.9777 153.883 67.419 154 67.9531 154ZM74.3778 155V143.364H75.7188V147.659H75.8324C75.9309 147.508 76.0672 147.314 76.2415 147.08C76.4195 146.841 76.6733 146.629 77.0028 146.443C77.3362 146.254 77.7869 146.159 78.3551 146.159C79.09 146.159 79.7377 146.343 80.2983 146.71C80.8589 147.078 81.2964 147.598 81.6108 148.273C81.9252 148.947 82.0824 149.742 82.0824 150.659C82.0824 151.583 81.9252 152.384 81.6108 153.062C81.2964 153.737 80.8608 154.259 80.304 154.631C79.7472 154.998 79.1051 155.182 78.3778 155.182C77.8172 155.182 77.3684 155.089 77.0312 154.903C76.6941 154.714 76.4347 154.5 76.2528 154.261C76.071 154.019 75.9309 153.818 75.8324 153.659H75.6733V155H74.3778ZM75.696 150.636C75.696 151.295 75.7926 151.877 75.9858 152.381C76.179 152.881 76.4612 153.273 76.8324 153.557C77.2036 153.837 77.6581 153.977 78.196 153.977C78.7566 153.977 79.2244 153.83 79.5994 153.534C79.9782 153.235 80.2623 152.833 80.4517 152.33C80.6449 151.822 80.7415 151.258 80.7415 150.636C80.7415 150.023 80.6468 149.47 80.4574 148.977C80.2718 148.481 79.9896 148.089 79.6108 147.801C79.2358 147.509 78.7642 147.364 78.196 147.364C77.6506 147.364 77.1922 147.502 76.821 147.778C76.4498 148.051 76.1695 148.434 75.9801 148.926C75.7907 149.415 75.696 149.985 75.696 150.636ZM85.4744 143.364V155H84.1335V143.364H85.4744ZM91.5895 155.182C90.7486 155.182 90.0232 154.996 89.4134 154.625C88.8073 154.25 88.3395 153.727 88.0099 153.057C87.6842 152.383 87.5213 151.598 87.5213 150.705C87.5213 149.811 87.6842 149.023 88.0099 148.341C88.3395 147.655 88.7978 147.121 89.3849 146.739C89.9759 146.352 90.6652 146.159 91.4531 146.159C91.9077 146.159 92.3565 146.235 92.7997 146.386C93.2429 146.538 93.6463 146.784 94.0099 147.125C94.3736 147.462 94.6634 147.909 94.8793 148.466C95.0952 149.023 95.2031 149.708 95.2031 150.523V151.091H88.4759V149.932H93.8395C93.8395 149.439 93.741 149 93.544 148.614C93.3509 148.227 93.0743 147.922 92.7145 147.699C92.3584 147.475 91.938 147.364 91.4531 147.364C90.919 147.364 90.4569 147.496 90.0668 147.761C89.6804 148.023 89.383 148.364 89.1747 148.784C88.9664 149.205 88.8622 149.655 88.8622 150.136V150.909C88.8622 151.568 88.9759 152.127 89.2031 152.585C89.4342 153.04 89.7543 153.386 90.1634 153.625C90.5724 153.86 91.0478 153.977 91.5895 153.977C91.9418 153.977 92.2599 153.928 92.544 153.83C92.8319 153.727 93.08 153.576 93.2884 153.375C93.4967 153.17 93.6577 152.917 93.7713 152.614L95.0668 152.977C94.9304 153.417 94.7012 153.803 94.3793 154.136C94.0573 154.466 93.6596 154.723 93.1861 154.909C92.7126 155.091 92.1804 155.182 91.5895 155.182ZM105.538 146.273V147.409H101.016V146.273H105.538ZM102.334 144.182H103.675V152.5C103.675 152.879 103.73 153.163 103.839 153.352C103.953 153.538 104.097 153.663 104.271 153.727C104.449 153.788 104.637 153.818 104.834 153.818C104.982 153.818 105.103 153.811 105.197 153.795C105.292 153.777 105.368 153.761 105.425 153.75L105.697 154.955C105.607 154.989 105.48 155.023 105.317 155.057C105.154 155.095 104.947 155.114 104.697 155.114C104.319 155.114 103.947 155.032 103.584 154.869C103.224 154.706 102.925 154.458 102.686 154.125C102.451 153.792 102.334 153.371 102.334 152.864V144.182ZM111.007 155.182C110.219 155.182 109.528 154.994 108.933 154.619C108.342 154.244 107.88 153.72 107.547 153.045C107.217 152.371 107.053 151.583 107.053 150.682C107.053 149.773 107.217 148.979 107.547 148.301C107.88 147.623 108.342 147.097 108.933 146.722C109.528 146.347 110.219 146.159 111.007 146.159C111.795 146.159 112.484 146.347 113.075 146.722C113.67 147.097 114.132 147.623 114.462 148.301C114.795 148.979 114.962 149.773 114.962 150.682C114.962 151.583 114.795 152.371 114.462 153.045C114.132 153.72 113.67 154.244 113.075 154.619C112.484 154.994 111.795 155.182 111.007 155.182ZM111.007 153.977C111.606 153.977 112.098 153.824 112.484 153.517C112.871 153.21 113.157 152.807 113.342 152.307C113.528 151.807 113.621 151.265 113.621 150.682C113.621 150.098 113.528 149.555 113.342 149.051C113.157 148.547 112.871 148.14 112.484 147.83C112.098 147.519 111.606 147.364 111.007 147.364C110.409 147.364 109.916 147.519 109.53 147.83C109.143 148.14 108.857 148.547 108.672 149.051C108.486 149.555 108.393 150.098 108.393 150.682C108.393 151.265 108.486 151.807 108.672 152.307C108.857 152.807 109.143 153.21 109.53 153.517C109.916 153.824 110.409 153.977 111.007 153.977ZM121.69 155V143.364H123.031V147.659H123.145C123.243 147.508 123.38 147.314 123.554 147.08C123.732 146.841 123.986 146.629 124.315 146.443C124.649 146.254 125.099 146.159 125.668 146.159C126.402 146.159 127.05 146.343 127.611 146.71C128.171 147.078 128.609 147.598 128.923 148.273C129.238 148.947 129.395 149.742 129.395 150.659C129.395 151.583 129.238 152.384 128.923 153.062C128.609 153.737 128.173 154.259 127.616 154.631C127.06 154.998 126.418 155.182 125.69 155.182C125.13 155.182 124.681 155.089 124.344 154.903C124.007 154.714 123.747 154.5 123.565 154.261C123.384 154.019 123.243 153.818 123.145 153.659H122.986V155H121.69ZM123.009 150.636C123.009 151.295 123.105 151.877 123.298 152.381C123.491 152.881 123.774 153.273 124.145 153.557C124.516 153.837 124.971 153.977 125.509 153.977C126.069 153.977 126.537 153.83 126.912 153.534C127.291 153.235 127.575 152.833 127.764 152.33C127.957 151.822 128.054 151.258 128.054 150.636C128.054 150.023 127.959 149.47 127.77 148.977C127.584 148.481 127.302 148.089 126.923 147.801C126.548 147.509 126.077 147.364 125.509 147.364C124.963 147.364 124.505 147.502 124.134 147.778C123.762 148.051 123.482 148.434 123.293 148.926C123.103 149.415 123.009 149.985 123.009 150.636ZM136.946 151.432V146.273H138.287V155H136.946V153.523H136.855C136.651 153.966 136.332 154.343 135.901 154.653C135.469 154.96 134.923 155.114 134.264 155.114C133.719 155.114 133.234 154.994 132.81 154.756C132.385 154.513 132.052 154.15 131.81 153.665C131.567 153.176 131.446 152.561 131.446 151.818V146.273H132.787V151.727C132.787 152.364 132.965 152.871 133.321 153.25C133.681 153.629 134.139 153.818 134.696 153.818C135.029 153.818 135.368 153.733 135.713 153.562C136.062 153.392 136.353 153.131 136.588 152.778C136.827 152.426 136.946 151.977 136.946 151.432ZM141.607 158.273C141.379 158.273 141.177 158.254 140.999 158.216C140.821 158.182 140.697 158.148 140.629 158.114L140.97 156.932C141.296 157.015 141.584 157.045 141.834 157.023C142.084 157 142.305 156.888 142.499 156.688C142.696 156.491 142.875 156.17 143.038 155.727L143.288 155.045L140.061 146.273H141.516L143.925 153.227H144.016L146.425 146.273H147.879L144.175 156.273C144.008 156.723 143.802 157.097 143.555 157.392C143.309 157.691 143.023 157.913 142.697 158.057C142.375 158.201 142.012 158.273 141.607 158.273ZM156.717 155.205C156.164 155.205 155.662 155.1 155.212 154.892C154.761 154.68 154.403 154.375 154.138 153.977C153.873 153.576 153.74 153.091 153.74 152.523C153.74 152.023 153.839 151.617 154.036 151.307C154.232 150.992 154.496 150.746 154.825 150.568C155.155 150.39 155.518 150.258 155.916 150.17C156.318 150.08 156.721 150.008 157.126 149.955C157.657 149.886 158.087 149.835 158.416 149.801C158.75 149.763 158.992 149.701 159.143 149.614C159.299 149.527 159.376 149.375 159.376 149.159V149.114C159.376 148.553 159.223 148.117 158.916 147.807C158.613 147.496 158.153 147.341 157.536 147.341C156.895 147.341 156.393 147.481 156.03 147.761C155.666 148.042 155.411 148.341 155.263 148.659L153.99 148.205C154.217 147.674 154.52 147.261 154.899 146.966C155.282 146.667 155.698 146.458 156.149 146.341C156.604 146.22 157.051 146.159 157.49 146.159C157.77 146.159 158.092 146.193 158.456 146.261C158.823 146.326 159.178 146.46 159.518 146.665C159.863 146.869 160.149 147.178 160.376 147.591C160.604 148.004 160.717 148.557 160.717 149.25V155H159.376V153.818H159.308C159.217 154.008 159.066 154.21 158.854 154.426C158.642 154.642 158.359 154.826 158.007 154.977C157.655 155.129 157.225 155.205 156.717 155.205ZM156.922 154C157.452 154 157.899 153.896 158.263 153.688C158.63 153.479 158.907 153.21 159.092 152.881C159.282 152.551 159.376 152.205 159.376 151.841V150.614C159.32 150.682 159.195 150.744 159.001 150.801C158.812 150.854 158.592 150.902 158.342 150.943C158.096 150.981 157.856 151.015 157.621 151.045C157.39 151.072 157.202 151.095 157.058 151.114C156.71 151.159 156.384 151.233 156.081 151.335C155.782 151.434 155.539 151.583 155.354 151.784C155.172 151.981 155.081 152.25 155.081 152.591C155.081 153.057 155.253 153.409 155.598 153.648C155.946 153.883 156.388 154 156.922 154ZM166.96 146.273V147.409H162.438V146.273H166.96ZM163.756 144.182H165.097V152.5C165.097 152.879 165.152 153.163 165.261 153.352C165.375 153.538 165.519 153.663 165.693 153.727C165.871 153.788 166.059 153.818 166.256 153.818C166.403 153.818 166.525 153.811 166.619 153.795C166.714 153.777 166.79 153.761 166.847 153.75L167.119 154.955C167.028 154.989 166.902 155.023 166.739 155.057C166.576 155.095 166.369 155.114 166.119 155.114C165.741 155.114 165.369 155.032 165.006 154.869C164.646 154.706 164.347 154.458 164.108 154.125C163.873 153.792 163.756 153.371 163.756 152.864V144.182ZM177.273 146.273V147.409H172.75V146.273H177.273ZM174.068 144.182H175.409V152.5C175.409 152.879 175.464 153.163 175.574 153.352C175.688 153.538 175.831 153.663 176.006 153.727C176.184 153.788 176.371 153.818 176.568 153.818C176.716 153.818 176.837 153.811 176.932 153.795C177.027 153.777 177.102 153.761 177.159 153.75L177.432 154.955C177.341 154.989 177.214 155.023 177.051 155.057C176.888 155.095 176.682 155.114 176.432 155.114C176.053 155.114 175.682 155.032 175.318 154.869C174.958 154.706 174.659 154.458 174.42 154.125C174.186 153.792 174.068 153.371 174.068 152.864V144.182ZM180.818 149.75V155H179.477V143.364H180.818V147.636H180.932C181.136 147.186 181.443 146.828 181.852 146.562C182.265 146.294 182.814 146.159 183.5 146.159C184.095 146.159 184.616 146.278 185.062 146.517C185.509 146.752 185.856 147.114 186.102 147.602C186.352 148.087 186.477 148.705 186.477 149.455V155H185.136V149.545C185.136 148.852 184.956 148.316 184.597 147.938C184.241 147.555 183.746 147.364 183.114 147.364C182.674 147.364 182.28 147.456 181.932 147.642C181.587 147.828 181.314 148.098 181.114 148.455C180.917 148.811 180.818 149.242 180.818 149.75ZM192.589 155.182C191.749 155.182 191.023 154.996 190.413 154.625C189.807 154.25 189.339 153.727 189.01 153.057C188.684 152.383 188.521 151.598 188.521 150.705C188.521 149.811 188.684 149.023 189.01 148.341C189.339 147.655 189.798 147.121 190.385 146.739C190.976 146.352 191.665 146.159 192.453 146.159C192.908 146.159 193.357 146.235 193.8 146.386C194.243 146.538 194.646 146.784 195.01 147.125C195.374 147.462 195.663 147.909 195.879 148.466C196.095 149.023 196.203 149.708 196.203 150.523V151.091H189.476V149.932H194.839C194.839 149.439 194.741 149 194.544 148.614C194.351 148.227 194.074 147.922 193.714 147.699C193.358 147.475 192.938 147.364 192.453 147.364C191.919 147.364 191.457 147.496 191.067 147.761C190.68 148.023 190.383 148.364 190.175 148.784C189.966 149.205 189.862 149.655 189.862 150.136V150.909C189.862 151.568 189.976 152.127 190.203 152.585C190.434 153.04 190.754 153.386 191.163 153.625C191.572 153.86 192.048 153.977 192.589 153.977C192.942 153.977 193.26 153.928 193.544 153.83C193.832 153.727 194.08 153.576 194.288 153.375C194.497 153.17 194.658 152.917 194.771 152.614L196.067 152.977C195.93 153.417 195.701 153.803 195.379 154.136C195.057 154.466 194.66 154.723 194.186 154.909C193.713 155.091 193.18 155.182 192.589 155.182ZM206.538 146.273V147.409H202.016V146.273H206.538ZM203.334 144.182H204.675V152.5C204.675 152.879 204.73 153.163 204.839 153.352C204.953 153.538 205.097 153.663 205.271 153.727C205.449 153.788 205.637 153.818 205.834 153.818C205.982 153.818 206.103 153.811 206.197 153.795C206.292 153.777 206.368 153.761 206.425 153.75L206.697 154.955C206.607 154.989 206.48 155.023 206.317 155.057C206.154 155.095 205.947 155.114 205.697 155.114C205.319 155.114 204.947 155.032 204.584 154.869C204.224 154.706 203.925 154.458 203.686 154.125C203.451 153.792 203.334 153.371 203.334 152.864V144.182ZM212.121 155.182C211.28 155.182 210.554 154.996 209.945 154.625C209.339 154.25 208.871 153.727 208.541 153.057C208.215 152.383 208.053 151.598 208.053 150.705C208.053 149.811 208.215 149.023 208.541 148.341C208.871 147.655 209.329 147.121 209.916 146.739C210.507 146.352 211.196 146.159 211.984 146.159C212.439 146.159 212.888 146.235 213.331 146.386C213.774 146.538 214.178 146.784 214.541 147.125C214.905 147.462 215.195 147.909 215.411 148.466C215.626 149.023 215.734 149.708 215.734 150.523V151.091H209.007V149.932H214.371C214.371 149.439 214.272 149 214.075 148.614C213.882 148.227 213.606 147.922 213.246 147.699C212.89 147.475 212.469 147.364 211.984 147.364C211.45 147.364 210.988 147.496 210.598 147.761C210.212 148.023 209.914 148.364 209.706 148.784C209.498 149.205 209.393 149.655 209.393 150.136V150.909C209.393 151.568 209.507 152.127 209.734 152.585C209.965 153.04 210.286 153.386 210.695 153.625C211.104 153.86 211.579 153.977 212.121 153.977C212.473 153.977 212.791 153.928 213.075 153.83C213.363 153.727 213.611 153.576 213.82 153.375C214.028 153.17 214.189 152.917 214.303 152.614L215.598 152.977C215.462 153.417 215.232 153.803 214.911 154.136C214.589 154.466 214.191 154.723 213.717 154.909C213.244 155.091 212.712 155.182 212.121 155.182ZM217.774 155V146.273H219.07V147.636H219.183C219.365 147.17 219.659 146.809 220.064 146.551C220.469 146.29 220.956 146.159 221.524 146.159C222.1 146.159 222.579 146.29 222.962 146.551C223.348 146.809 223.649 147.17 223.865 147.636H223.956C224.179 147.186 224.515 146.828 224.962 146.562C225.409 146.294 225.945 146.159 226.57 146.159C227.35 146.159 227.988 146.403 228.484 146.892C228.981 147.377 229.229 148.133 229.229 149.159V155H227.888V149.159C227.888 148.515 227.712 148.055 227.359 147.778C227.007 147.502 226.592 147.364 226.115 147.364C225.501 147.364 225.026 147.549 224.689 147.92C224.352 148.288 224.183 148.754 224.183 149.318V155H222.82V149.023C222.82 148.527 222.659 148.127 222.337 147.824C222.015 147.517 221.6 147.364 221.092 147.364C220.744 147.364 220.418 147.456 220.115 147.642C219.816 147.828 219.573 148.085 219.388 148.415C219.206 148.741 219.115 149.117 219.115 149.545V155H217.774ZM231.68 158.273V146.273H232.976V147.659H233.135C233.233 147.508 233.37 147.314 233.544 147.08C233.722 146.841 233.976 146.629 234.305 146.443C234.639 146.254 235.089 146.159 235.658 146.159C236.393 146.159 237.04 146.343 237.601 146.71C238.161 147.078 238.599 147.598 238.913 148.273C239.228 148.947 239.385 149.742 239.385 150.659C239.385 151.583 239.228 152.384 238.913 153.062C238.599 153.737 238.163 154.259 237.607 154.631C237.05 154.998 236.408 155.182 235.68 155.182C235.12 155.182 234.671 155.089 234.334 154.903C233.997 154.714 233.737 154.5 233.555 154.261C233.374 154.019 233.233 153.818 233.135 153.659H233.021V158.273H231.68ZM232.999 150.636C232.999 151.295 233.095 151.877 233.288 152.381C233.482 152.881 233.764 153.273 234.135 153.557C234.506 153.837 234.961 153.977 235.499 153.977C236.059 153.977 236.527 153.83 236.902 153.534C237.281 153.235 237.565 152.833 237.754 152.33C237.947 151.822 238.044 151.258 238.044 150.636C238.044 150.023 237.949 149.47 237.76 148.977C237.574 148.481 237.292 148.089 236.913 147.801C236.538 147.509 236.067 147.364 235.499 147.364C234.953 147.364 234.495 147.502 234.124 147.778C233.752 148.051 233.472 148.434 233.283 148.926C233.093 149.415 232.999 149.985 232.999 150.636ZM242.771 143.364V155H241.43V143.364H242.771ZM248.886 155.182C248.045 155.182 247.32 154.996 246.71 154.625C246.104 154.25 245.636 153.727 245.307 153.057C244.981 152.383 244.818 151.598 244.818 150.705C244.818 149.811 244.981 149.023 245.307 148.341C245.636 147.655 246.095 147.121 246.682 146.739C247.273 146.352 247.962 146.159 248.75 146.159C249.205 146.159 249.653 146.235 250.097 146.386C250.54 146.538 250.943 146.784 251.307 147.125C251.67 147.462 251.96 147.909 252.176 148.466C252.392 149.023 252.5 149.708 252.5 150.523V151.091H245.773V149.932H251.136C251.136 149.439 251.038 149 250.841 148.614C250.648 148.227 250.371 147.922 250.011 147.699C249.655 147.475 249.235 147.364 248.75 147.364C248.216 147.364 247.754 147.496 247.364 147.761C246.977 148.023 246.68 148.364 246.472 148.784C246.263 149.205 246.159 149.655 246.159 150.136V150.909C246.159 151.568 246.273 152.127 246.5 152.585C246.731 153.04 247.051 153.386 247.46 153.625C247.869 153.86 248.345 153.977 248.886 153.977C249.239 153.977 249.557 153.928 249.841 153.83C250.129 153.727 250.377 153.576 250.585 153.375C250.794 153.17 250.955 152.917 251.068 152.614L252.364 152.977C252.227 153.417 251.998 153.803 251.676 154.136C251.354 154.466 250.956 154.723 250.483 154.909C250.009 155.091 249.477 155.182 248.886 155.182ZM256.54 153.409L256.449 154.023C256.384 154.455 256.286 154.917 256.153 155.409C256.025 155.902 255.89 156.366 255.75 156.801C255.61 157.237 255.494 157.583 255.403 157.841H254.381C254.43 157.598 254.494 157.278 254.574 156.881C254.653 156.483 254.733 156.038 254.812 155.545C254.896 155.057 254.964 154.557 255.017 154.045L255.085 153.409H256.54ZM33.2045 179L30.5455 170.273H31.9545L33.8409 176.955H33.9318L35.7955 170.273H37.2273L39.0682 176.932H39.1591L41.0455 170.273H42.4545L39.7955 179H38.4773L36.5682 172.295H36.4318L34.5227 179H33.2045ZM47.5895 179.182C46.7486 179.182 46.0232 178.996 45.4134 178.625C44.8073 178.25 44.3395 177.727 44.0099 177.057C43.6842 176.383 43.5213 175.598 43.5213 174.705C43.5213 173.811 43.6842 173.023 44.0099 172.341C44.3395 171.655 44.7978 171.121 45.3849 170.739C45.9759 170.352 46.6652 170.159 47.4531 170.159C47.9077 170.159 48.3565 170.235 48.7997 170.386C49.2429 170.538 49.6463 170.784 50.0099 171.125C50.3736 171.462 50.6634 171.909 50.8793 172.466C51.0952 173.023 51.2031 173.708 51.2031 174.523V175.091H44.4759V173.932H49.8395C49.8395 173.439 49.741 173 49.544 172.614C49.3509 172.227 49.0743 171.922 48.7145 171.699C48.3584 171.475 47.938 171.364 47.4531 171.364C46.919 171.364 46.4569 171.496 46.0668 171.761C45.6804 172.023 45.383 172.364 45.1747 172.784C44.9664 173.205 44.8622 173.655 44.8622 174.136V174.909C44.8622 175.568 44.9759 176.127 45.2031 176.585C45.4342 177.04 45.7543 177.386 46.1634 177.625C46.5724 177.86 47.0478 177.977 47.5895 177.977C47.9418 177.977 48.2599 177.928 48.544 177.83C48.8319 177.727 49.08 177.576 49.2884 177.375C49.4967 177.17 49.6577 176.917 49.7713 176.614L51.0668 176.977C50.9304 177.417 50.7012 177.803 50.3793 178.136C50.0573 178.466 49.6596 178.723 49.1861 178.909C48.7126 179.091 48.1804 179.182 47.5895 179.182ZM60.3111 179.205C59.758 179.205 59.2562 179.1 58.8054 178.892C58.3546 178.68 57.9967 178.375 57.7315 177.977C57.4664 177.576 57.3338 177.091 57.3338 176.523C57.3338 176.023 57.4323 175.617 57.6293 175.307C57.8262 174.992 58.0895 174.746 58.419 174.568C58.7486 174.39 59.1122 174.258 59.5099 174.17C59.9115 174.08 60.3149 174.008 60.7202 173.955C61.2505 173.886 61.6804 173.835 62.0099 173.801C62.3433 173.763 62.5857 173.701 62.7372 173.614C62.8925 173.527 62.9702 173.375 62.9702 173.159V173.114C62.9702 172.553 62.8168 172.117 62.5099 171.807C62.2069 171.496 61.7467 171.341 61.1293 171.341C60.4891 171.341 59.9872 171.481 59.6236 171.761C59.2599 172.042 59.0043 172.341 58.8565 172.659L57.5838 172.205C57.8111 171.674 58.1141 171.261 58.4929 170.966C58.8755 170.667 59.2921 170.458 59.7429 170.341C60.1974 170.22 60.6444 170.159 61.0838 170.159C61.3641 170.159 61.6861 170.193 62.0497 170.261C62.4171 170.326 62.7713 170.46 63.1122 170.665C63.4569 170.869 63.7429 171.178 63.9702 171.591C64.1974 172.004 64.3111 172.557 64.3111 173.25V179H62.9702V177.818H62.902C62.8111 178.008 62.6596 178.21 62.4474 178.426C62.2353 178.642 61.9531 178.826 61.6009 178.977C61.2486 179.129 60.8187 179.205 60.3111 179.205ZM60.5156 178C61.0459 178 61.4929 177.896 61.8565 177.688C62.224 177.479 62.5005 177.21 62.6861 176.881C62.8755 176.551 62.9702 176.205 62.9702 175.841V174.614C62.9134 174.682 62.7884 174.744 62.5952 174.801C62.4058 174.854 62.1861 174.902 61.9361 174.943C61.6899 174.981 61.4493 175.015 61.2145 175.045C60.9834 175.072 60.7959 175.095 60.652 175.114C60.3035 175.159 59.9777 175.233 59.6747 175.335C59.3755 175.434 59.133 175.583 58.9474 175.784C58.7656 175.981 58.6747 176.25 58.6747 176.591C58.6747 177.057 58.8471 177.409 59.1918 177.648C59.5402 177.883 59.9815 178 60.5156 178ZM66.7585 179V170.273H68.054V171.591H68.1449C68.304 171.159 68.5919 170.809 69.0085 170.54C69.4252 170.271 69.8949 170.136 70.4176 170.136C70.5161 170.136 70.6392 170.138 70.7869 170.142C70.9347 170.146 71.0464 170.152 71.1222 170.159V171.523C71.0767 171.511 70.9725 171.494 70.8097 171.472C70.6506 171.445 70.482 171.432 70.304 171.432C69.8797 171.432 69.5009 171.521 69.1676 171.699C68.8381 171.873 68.5767 172.116 68.3835 172.426C68.1941 172.733 68.0994 173.083 68.0994 173.477V179H66.7585ZM76.1051 179.182C75.2642 179.182 74.5388 178.996 73.929 178.625C73.3229 178.25 72.8551 177.727 72.5256 177.057C72.1998 176.383 72.0369 175.598 72.0369 174.705C72.0369 173.811 72.1998 173.023 72.5256 172.341C72.8551 171.655 73.3134 171.121 73.9006 170.739C74.4915 170.352 75.1809 170.159 75.9688 170.159C76.4233 170.159 76.8722 170.235 77.3153 170.386C77.7585 170.538 78.1619 170.784 78.5256 171.125C78.8892 171.462 79.179 171.909 79.3949 172.466C79.6108 173.023 79.7188 173.708 79.7188 174.523V175.091H72.9915V173.932H78.3551C78.3551 173.439 78.2566 173 78.0597 172.614C77.8665 172.227 77.59 171.922 77.2301 171.699C76.8741 171.475 76.4536 171.364 75.9688 171.364C75.4347 171.364 74.9725 171.496 74.5824 171.761C74.196 172.023 73.8987 172.364 73.6903 172.784C73.482 173.205 73.3778 173.655 73.3778 174.136V174.909C73.3778 175.568 73.4915 176.127 73.7188 176.585C73.9498 177.04 74.2699 177.386 74.679 177.625C75.0881 177.86 75.5634 177.977 76.1051 177.977C76.4574 177.977 76.7756 177.928 77.0597 177.83C77.3475 177.727 77.5956 177.576 77.804 177.375C78.0123 177.17 78.1733 176.917 78.2869 176.614L79.5824 176.977C79.446 177.417 79.2169 177.803 78.8949 178.136C78.5729 178.466 78.1752 178.723 77.7017 178.909C77.2282 179.091 76.696 179.182 76.1051 179.182ZM86.2585 179V170.273H87.554V171.591H87.6449C87.804 171.159 88.0919 170.809 88.5085 170.54C88.9252 170.271 89.3949 170.136 89.9176 170.136C90.0161 170.136 90.1392 170.138 90.2869 170.142C90.4347 170.146 90.5464 170.152 90.6222 170.159V171.523C90.5767 171.511 90.4725 171.494 90.3097 171.472C90.1506 171.445 89.982 171.432 89.804 171.432C89.3797 171.432 89.0009 171.521 88.6676 171.699C88.3381 171.873 88.0767 172.116 87.8835 172.426C87.6941 172.733 87.5994 173.083 87.5994 173.477V179H86.2585ZM97.7116 175.432V170.273H99.0526V179H97.7116V177.523H97.6207C97.4162 177.966 97.098 178.343 96.6662 178.653C96.2344 178.96 95.6889 179.114 95.0298 179.114C94.4844 179.114 93.9995 178.994 93.5753 178.756C93.151 178.513 92.8177 178.15 92.5753 177.665C92.3329 177.176 92.2116 176.561 92.2116 175.818V170.273H93.5526V175.727C93.5526 176.364 93.7306 176.871 94.0866 177.25C94.4465 177.629 94.9048 177.818 95.4616 177.818C95.795 177.818 96.134 177.733 96.4787 177.562C96.8272 177.392 97.1188 177.131 97.3537 176.778C97.5923 176.426 97.7116 175.977 97.7116 175.432ZM102.849 173.75V179H101.509V170.273H102.804V171.636H102.918C103.122 171.193 103.433 170.837 103.849 170.568C104.266 170.295 104.804 170.159 105.463 170.159C106.054 170.159 106.571 170.28 107.014 170.523C107.457 170.761 107.802 171.125 108.048 171.614C108.295 172.098 108.418 172.712 108.418 173.455V179H107.077V173.545C107.077 172.86 106.899 172.326 106.543 171.943C106.187 171.557 105.698 171.364 105.077 171.364C104.649 171.364 104.266 171.456 103.929 171.642C103.596 171.828 103.332 172.098 103.139 172.455C102.946 172.811 102.849 173.242 102.849 173.75ZM112.209 173.75V179H110.868V170.273H112.163V171.636H112.277C112.482 171.193 112.792 170.837 113.209 170.568C113.625 170.295 114.163 170.159 114.822 170.159C115.413 170.159 115.93 170.28 116.374 170.523C116.817 170.761 117.161 171.125 117.408 171.614C117.654 172.098 117.777 172.712 117.777 173.455V179H116.436V173.545C116.436 172.86 116.258 172.326 115.902 171.943C115.546 171.557 115.057 171.364 114.436 171.364C114.008 171.364 113.625 171.456 113.288 171.642C112.955 171.828 112.692 172.098 112.499 172.455C112.305 172.811 112.209 173.242 112.209 173.75ZM120.227 179V170.273H121.568V179H120.227ZM120.909 168.818C120.648 168.818 120.422 168.729 120.233 168.551C120.047 168.373 119.955 168.159 119.955 167.909C119.955 167.659 120.047 167.445 120.233 167.267C120.422 167.089 120.648 167 120.909 167C121.17 167 121.394 167.089 121.58 167.267C121.769 167.445 121.864 167.659 121.864 167.909C121.864 168.159 121.769 168.373 121.58 168.551C121.394 168.729 121.17 168.818 120.909 168.818ZM125.365 173.75V179H124.024V170.273H125.32V171.636H125.433C125.638 171.193 125.948 170.837 126.365 170.568C126.782 170.295 127.32 170.159 127.979 170.159C128.57 170.159 129.087 170.28 129.53 170.523C129.973 170.761 130.318 171.125 130.564 171.614C130.81 172.098 130.933 172.712 130.933 173.455V179H129.592V173.545C129.592 172.86 129.414 172.326 129.058 171.943C128.702 171.557 128.214 171.364 127.592 171.364C127.164 171.364 126.782 171.456 126.445 171.642C126.111 171.828 125.848 172.098 125.655 172.455C125.462 172.811 125.365 173.242 125.365 173.75ZM136.906 182.455C136.259 182.455 135.702 182.371 135.236 182.205C134.77 182.042 134.382 181.826 134.071 181.557C133.764 181.292 133.52 181.008 133.338 180.705L134.406 179.955C134.527 180.114 134.681 180.295 134.866 180.5C135.052 180.708 135.306 180.888 135.628 181.04C135.954 181.195 136.38 181.273 136.906 181.273C137.611 181.273 138.192 181.102 138.651 180.761C139.109 180.42 139.338 179.886 139.338 179.159V177.386H139.224C139.126 177.545 138.986 177.742 138.804 177.977C138.626 178.208 138.368 178.415 138.031 178.597C137.698 178.775 137.247 178.864 136.679 178.864C135.974 178.864 135.342 178.697 134.781 178.364C134.224 178.03 133.783 177.545 133.457 176.909C133.135 176.273 132.974 175.5 132.974 174.591C132.974 173.697 133.132 172.919 133.446 172.256C133.76 171.589 134.198 171.074 134.759 170.71C135.319 170.343 135.967 170.159 136.702 170.159C137.27 170.159 137.721 170.254 138.054 170.443C138.391 170.629 138.649 170.841 138.827 171.08C139.009 171.314 139.149 171.508 139.247 171.659H139.384V170.273H140.679V179.25C140.679 180 140.509 180.61 140.168 181.08C139.83 181.553 139.376 181.9 138.804 182.119C138.236 182.343 137.603 182.455 136.906 182.455ZM136.861 177.659C137.399 177.659 137.853 177.536 138.224 177.29C138.596 177.044 138.878 176.689 139.071 176.227C139.264 175.765 139.361 175.212 139.361 174.568C139.361 173.939 139.266 173.384 139.077 172.903C138.887 172.422 138.607 172.045 138.236 171.773C137.865 171.5 137.406 171.364 136.861 171.364C136.293 171.364 135.819 171.508 135.44 171.795C135.065 172.083 134.783 172.47 134.594 172.955C134.408 173.439 134.315 173.977 134.315 174.568C134.315 175.174 134.41 175.71 134.599 176.176C134.793 176.638 135.077 177.002 135.452 177.267C135.83 177.528 136.3 177.659 136.861 177.659ZM151.179 179.182C150.391 179.182 149.7 178.994 149.105 178.619C148.514 178.244 148.052 177.72 147.719 177.045C147.389 176.371 147.224 175.583 147.224 174.682C147.224 173.773 147.389 172.979 147.719 172.301C148.052 171.623 148.514 171.097 149.105 170.722C149.7 170.347 150.391 170.159 151.179 170.159C151.967 170.159 152.656 170.347 153.247 170.722C153.842 171.097 154.304 171.623 154.634 172.301C154.967 172.979 155.134 173.773 155.134 174.682C155.134 175.583 154.967 176.371 154.634 177.045C154.304 177.72 153.842 178.244 153.247 178.619C152.656 178.994 151.967 179.182 151.179 179.182ZM151.179 177.977C151.777 177.977 152.27 177.824 152.656 177.517C153.043 177.21 153.329 176.807 153.514 176.307C153.7 175.807 153.793 175.265 153.793 174.682C153.793 174.098 153.7 173.555 153.514 173.051C153.329 172.547 153.043 172.14 152.656 171.83C152.27 171.519 151.777 171.364 151.179 171.364C150.58 171.364 150.088 171.519 149.702 171.83C149.315 172.14 149.029 172.547 148.844 173.051C148.658 173.555 148.565 174.098 148.565 174.682C148.565 175.265 148.658 175.807 148.844 176.307C149.029 176.807 149.315 177.21 149.702 177.517C150.088 177.824 150.58 177.977 151.179 177.977ZM162.68 175.432V170.273H164.021V179H162.68V177.523H162.589C162.385 177.966 162.067 178.343 161.635 178.653C161.203 178.96 160.658 179.114 159.999 179.114C159.453 179.114 158.968 178.994 158.544 178.756C158.12 178.513 157.786 178.15 157.544 177.665C157.302 177.176 157.18 176.561 157.18 175.818V170.273H158.521V175.727C158.521 176.364 158.699 176.871 159.055 177.25C159.415 177.629 159.874 177.818 160.43 177.818C160.764 177.818 161.103 177.733 161.447 177.562C161.796 177.392 162.088 177.131 162.322 176.778C162.561 176.426 162.68 175.977 162.68 175.432ZM170.273 170.273V171.409H165.75V170.273H170.273ZM167.068 168.182H168.409V176.5C168.409 176.879 168.464 177.163 168.574 177.352C168.688 177.538 168.831 177.663 169.006 177.727C169.184 177.788 169.371 177.818 169.568 177.818C169.716 177.818 169.837 177.811 169.932 177.795C170.027 177.777 170.102 177.761 170.159 177.75L170.432 178.955C170.341 178.989 170.214 179.023 170.051 179.057C169.888 179.095 169.682 179.114 169.432 179.114C169.053 179.114 168.682 179.032 168.318 178.869C167.958 178.706 167.659 178.458 167.42 178.125C167.186 177.792 167.068 177.371 167.068 176.864V168.182ZM180.676 170.273V171.409H175.972V170.273H180.676ZM177.381 179V169.068C177.381 168.568 177.498 168.152 177.733 167.818C177.968 167.485 178.273 167.235 178.648 167.068C179.023 166.902 179.419 166.818 179.835 166.818C180.165 166.818 180.434 166.845 180.642 166.898C180.85 166.951 181.006 167 181.108 167.045L180.722 168.205C180.653 168.182 180.559 168.153 180.438 168.119C180.32 168.085 180.165 168.068 179.972 168.068C179.528 168.068 179.208 168.18 179.011 168.403C178.818 168.627 178.722 168.955 178.722 169.386V179H177.381ZM184.874 179.205C184.321 179.205 183.819 179.1 183.368 178.892C182.917 178.68 182.559 178.375 182.294 177.977C182.029 177.576 181.896 177.091 181.896 176.523C181.896 176.023 181.995 175.617 182.192 175.307C182.389 174.992 182.652 174.746 182.982 174.568C183.311 174.39 183.675 174.258 184.072 174.17C184.474 174.08 184.877 174.008 185.283 173.955C185.813 173.886 186.243 173.835 186.572 173.801C186.906 173.763 187.148 173.701 187.3 173.614C187.455 173.527 187.533 173.375 187.533 173.159V173.114C187.533 172.553 187.379 172.117 187.072 171.807C186.769 171.496 186.309 171.341 185.692 171.341C185.052 171.341 184.55 171.481 184.186 171.761C183.822 172.042 183.567 172.341 183.419 172.659L182.146 172.205C182.374 171.674 182.677 171.261 183.055 170.966C183.438 170.667 183.855 170.458 184.305 170.341C184.76 170.22 185.207 170.159 185.646 170.159C185.927 170.159 186.249 170.193 186.612 170.261C186.98 170.326 187.334 170.46 187.675 170.665C188.019 170.869 188.305 171.178 188.533 171.591C188.76 172.004 188.874 172.557 188.874 173.25V179H187.533V177.818H187.464C187.374 178.008 187.222 178.21 187.01 178.426C186.798 178.642 186.516 178.826 186.163 178.977C185.811 179.129 185.381 179.205 184.874 179.205ZM185.078 178C185.608 178 186.055 177.896 186.419 177.688C186.786 177.479 187.063 177.21 187.249 176.881C187.438 176.551 187.533 176.205 187.533 175.841V174.614C187.476 174.682 187.351 174.744 187.158 174.801C186.968 174.854 186.749 174.902 186.499 174.943C186.252 174.981 186.012 175.015 185.777 175.045C185.546 175.072 185.358 175.095 185.214 175.114C184.866 175.159 184.54 175.233 184.237 175.335C183.938 175.434 183.696 175.583 183.51 175.784C183.328 175.981 183.237 176.25 183.237 176.591C183.237 177.057 183.41 177.409 183.754 177.648C184.103 177.883 184.544 178 185.078 178ZM197.503 172.227L196.298 172.568C196.223 172.367 196.111 172.172 195.963 171.983C195.819 171.79 195.622 171.631 195.372 171.506C195.122 171.381 194.802 171.318 194.412 171.318C193.878 171.318 193.433 171.441 193.077 171.688C192.724 171.93 192.548 172.239 192.548 172.614C192.548 172.947 192.67 173.21 192.912 173.403C193.154 173.597 193.533 173.758 194.048 173.886L195.344 174.205C196.124 174.394 196.705 174.684 197.088 175.074C197.471 175.46 197.662 175.958 197.662 176.568C197.662 177.068 197.518 177.515 197.23 177.909C196.946 178.303 196.548 178.614 196.037 178.841C195.526 179.068 194.931 179.182 194.253 179.182C193.363 179.182 192.626 178.989 192.043 178.602C191.459 178.216 191.09 177.652 190.935 176.909L192.207 176.591C192.329 177.061 192.558 177.413 192.895 177.648C193.236 177.883 193.681 178 194.23 178C194.855 178 195.351 177.867 195.719 177.602C196.09 177.333 196.276 177.011 196.276 176.636C196.276 176.333 196.17 176.08 195.957 175.875C195.745 175.667 195.42 175.511 194.98 175.409L193.526 175.068C192.726 174.879 192.139 174.585 191.764 174.188C191.393 173.786 191.207 173.284 191.207 172.682C191.207 172.189 191.346 171.754 191.622 171.375C191.902 170.996 192.283 170.699 192.764 170.483C193.249 170.267 193.798 170.159 194.412 170.159C195.276 170.159 195.954 170.348 196.446 170.727C196.942 171.106 197.295 171.606 197.503 172.227ZM203.476 170.273V171.409H198.953V170.273H203.476ZM200.271 168.182H201.612V176.5C201.612 176.879 201.667 177.163 201.777 177.352C201.891 177.538 202.035 177.663 202.209 177.727C202.387 177.788 202.574 177.818 202.771 177.818C202.919 177.818 203.04 177.811 203.135 177.795C203.23 177.777 203.305 177.761 203.362 177.75L203.635 178.955C203.544 178.989 203.417 179.023 203.254 179.057C203.091 179.095 202.885 179.114 202.635 179.114C202.256 179.114 201.885 179.032 201.521 178.869C201.161 178.706 200.862 178.458 200.624 178.125C200.389 177.792 200.271 177.371 200.271 176.864V168.182ZM207.493 177.409L207.402 178.023C207.338 178.455 207.239 178.917 207.107 179.409C206.978 179.902 206.843 180.366 206.703 180.801C206.563 181.237 206.447 181.583 206.357 181.841H205.334C205.383 181.598 205.447 181.278 205.527 180.881C205.607 180.483 205.686 180.038 205.766 179.545C205.849 179.057 205.917 178.557 205.97 178.045L206.038 177.409H207.493Z" fill="#101010"/>
<path d="M168 356.5L296.5 228L302 222.5V371H168V356.5Z" fill="white"/>
<path d="M296.5 255.5V228.5H156.5V360.5H179C211.4 363.3 226.833 341.333 230.5 330C233.7 301.6 252.167 294.833 261 295C293 293.8 298 268.167 296.5 255.5Z" fill="#FFEFE2"/>
<circle cx="267" cy="331" r="20" fill="#FFEFE2"/>
<path d="M259.597 326.584C259.361 326.579 259.173 326.767 259.178 327.004C259.182 327.24 259.378 327.436 259.615 327.441L269.526 327.645L269.73 337.556C269.734 337.792 269.93 337.988 270.167 337.993C270.285 337.995 270.392 337.95 270.467 337.874C270.543 337.798 270.589 337.692 270.587 337.573L270.374 327.234C270.372 327.12 270.324 327.01 270.242 326.928C270.16 326.846 270.05 326.799 269.936 326.797L259.597 326.584Z" fill="white" stroke="#412236" stroke-width="0.6"/>
<path d="M157.239 327.652H146.11C148.336 326.609 150.431 325.174 152.395 323.217C158.025 317.609 160.25 309.261 158.287 301.565L158.025 300.783L157.239 300.652C155.275 300.13 153.311 299.87 151.347 299.87C150.693 299.87 150.169 299.87 149.514 300C148.729 297.652 147.55 295.304 145.979 293.217L145.587 292.565L144.801 292.696C142.968 292.957 141.135 293.348 139.564 294.13C137.6 291.13 134.85 288.652 131.708 286.826L131.054 286.435L130.268 286.696C127.126 288.522 124.376 291 122.412 294C120.71 293.348 119.008 292.826 117.175 292.565H116.39L115.866 293.217C114.295 295.304 113.116 297.522 112.331 300C111.676 300 111.153 299.87 110.498 299.87C108.534 299.87 106.57 300.13 104.606 300.652L103.821 300.783L103.69 301.565C101.595 309.261 103.821 317.609 109.45 323.217C111.283 325.044 113.378 326.478 115.735 327.652H106.439C105.784 315.522 96.2267 305.87 84.1814 304.696L95.1793 239.348C95.1793 239.087 95.1793 238.957 95.0484 238.826C95.703 238.044 96.6195 236.739 96.6195 235.044C96.6195 233.478 95.9649 231.913 94.5247 230.478C93.2154 229.174 92.5608 227.739 92.5608 226.174C92.6917 223.826 94.5247 222.13 94.5247 222.13C94.6556 222 96.6195 220.304 96.6195 217.826C96.6195 216.261 95.9649 214.696 94.5247 213.261C94.3938 213.13 94.2628 213.13 94.2628 213.261C94.1319 213.391 94.1319 213.522 94.2628 213.522C95.5721 214.826 96.2267 216.261 96.2267 217.826C96.2267 220.174 94.2628 221.87 94.2628 221.87C94.1319 222 92.168 223.696 92.168 226.174C92.168 227.739 92.8226 229.304 94.2628 230.739C95.5721 232.044 96.2267 233.478 96.2267 235.044C96.2267 236.609 95.3103 237.913 94.7865 238.565C94.6556 238.565 94.6556 238.435 94.5247 238.435C94.1319 238.304 93.6082 238.696 93.6082 239.087L82.6102 304.565C82.3484 304.565 82.2175 304.565 81.9556 304.565C81.6938 304.565 81.5628 304.565 81.301 304.565L70.303 239.087C70.1721 238.696 69.7793 238.304 69.3865 238.435C69.2556 238.435 69.2556 238.565 69.2556 238.565C68.2082 237.391 67.6845 236.087 67.6845 234.783C67.8154 232.435 69.6484 230.739 69.6484 230.739C69.7793 230.609 71.7432 228.913 71.7432 226.435C71.7432 224.87 71.0886 223.304 69.6484 221.87C69.5175 221.739 69.3865 221.739 69.3865 221.87C69.2556 222 69.2556 222.13 69.3865 222.13C70.6958 223.435 71.3505 224.87 71.3505 226.435C71.2195 228.783 69.3865 230.478 69.3865 230.478C69.2556 230.609 67.2917 232.304 67.2917 234.783C67.2917 236.217 67.8154 237.522 68.8628 238.696C68.7319 238.957 68.7319 239.087 68.7319 239.348L79.7298 304.696C72.5288 305.348 66.3752 309.13 62.3164 314.609L61.9237 313.044C61.6618 311.478 60.0907 308.348 58.3886 306.652C59.436 303.522 57.9958 301.044 57.9958 300.913C57.9958 300.913 56.2938 297.783 57.9958 294.391C57.9958 294.261 57.9958 294.13 57.8649 294.13C57.734 294.13 57.603 294.13 57.603 294.261C55.77 297.913 57.4721 301.044 57.603 301.174C57.603 301.174 58.9123 303.522 58.1267 306.391C57.4721 305.87 56.9484 305.609 56.4247 305.609C56.1628 305.609 55.77 305.739 55.5082 305.87C51.9731 297.522 56.0319 290.217 56.0319 290.217C56.0319 290.087 60.6144 282 56.0319 272.87C56.0319 272.739 55.901 272.739 55.77 272.739C55.6391 272.739 55.6391 272.87 55.6391 273C60.0907 281.87 55.6391 289.826 55.6391 289.957C55.6391 290.087 51.4494 297.522 55.1154 306.13C53.1515 307.565 51.1876 311.478 50.9257 313.174L48.3072 324C48.0453 325.435 48.3072 326.87 49.0927 327.913H42.6773C41.8917 327.913 41.368 328.565 41.368 329.217C41.368 330 42.0226 330.522 42.6773 330.522H157.239C158.025 330.522 158.548 329.87 158.548 329.217C158.679 328.174 158.025 327.652 157.239 327.652ZM150.3 302.609C150.693 302.609 151.086 302.609 151.478 302.609C152.918 302.609 154.359 302.739 155.799 303.13C157.239 309.652 155.275 316.696 150.431 321.391C147.027 324.783 142.706 326.739 137.993 327.13C137.469 327.13 136.945 327.261 136.422 327.261C135.767 327.261 135.112 327.261 134.458 327.13C135.505 326.348 136.422 325.435 137.338 324.522C141.397 320.087 143.884 314.217 143.884 308.087C143.884 306.913 143.754 305.609 143.623 304.435C144.932 303.783 146.241 303.391 147.681 303.13C148.467 302.739 149.383 302.609 150.3 302.609ZM144.408 295.435C145.456 296.87 146.372 298.565 146.896 300.261C145.587 300.522 144.277 300.913 143.099 301.435C142.575 299.609 141.921 297.913 141.004 296.348C142.051 295.957 143.23 295.696 144.408 295.435ZM130.923 289.565C133.279 291 135.374 292.957 136.945 295.304C137.469 296.087 137.993 296.739 138.386 297.652C139.302 299.348 139.957 301.044 140.349 302.87C140.611 303.783 140.742 304.696 140.873 305.739C141.004 306.522 141.004 307.304 141.004 308.087C141.004 313.565 138.909 318.913 135.243 322.826C134.458 323.609 133.672 324.391 132.756 325.044C132.494 325.304 132.101 325.565 131.839 325.696C131.708 325.826 131.446 325.957 131.315 326.087C131.184 326.217 131.054 326.217 130.923 326.348C130.792 326.217 130.661 326.217 130.53 326.087C130.399 325.957 130.137 325.826 130.006 325.696C129.613 325.435 129.351 325.174 128.959 324.913C128.042 324.261 127.257 323.478 126.471 322.696C122.805 318.783 120.579 313.435 120.579 307.957C120.579 307.174 120.579 306.391 120.71 305.609C120.841 304.696 120.972 303.652 121.234 302.739C121.627 300.913 122.412 299.217 123.198 297.522C123.46 297.13 123.591 296.739 123.853 296.348C124.114 295.957 124.376 295.565 124.638 295.174C126.471 292.957 128.566 291 130.923 289.565ZM117.568 295.435C118.746 295.565 119.925 295.957 120.972 296.348C120.056 297.913 119.401 299.609 118.877 301.435C117.568 300.913 116.39 300.522 115.08 300.261C115.735 298.565 116.521 297 117.568 295.435ZM106.177 303C108.01 302.609 109.843 302.478 111.676 302.609C112.2 302.609 112.593 302.609 113.116 302.739C113.64 302.739 114.033 302.87 114.426 303C115.866 303.261 117.175 303.652 118.484 304.304C118.223 305.478 118.223 306.783 118.223 307.957C118.223 314.087 120.579 319.957 124.638 324.391C125.555 325.304 126.471 326.217 127.519 327C126.864 327.13 126.209 327.13 125.555 327.13C125.031 327.13 124.507 327.13 123.983 327C119.27 326.609 114.949 324.652 111.545 321.261C106.701 316.565 104.737 309.652 106.177 303ZM81.9556 307.304C93.4773 307.304 102.904 316.304 103.69 327.652H63.7566C64.5422 326.478 64.8041 325.174 64.5422 323.609L63.2329 318.13C66.8989 311.609 73.969 307.304 81.9556 307.304Z" fill="black"/>
</svg>
