<svg width="24" height="22" viewBox="0 0 24 22" fill="none" xmlns="http://www.w3.org/2000/svg">
<path d="M23.4707 16.1404C23.3221 15.9043 22.3021 15.4153 22.3021 15.4153C21.8991 15.215 18.9358 13.7658 18.3788 13.5673C17.9015 13.3965 17.3615 13.2025 16.8779 13.9213C16.5099 14.4649 15.4325 15.7202 15.0824 16.1162C14.8361 16.3952 14.6113 16.4864 14.066 16.2146C13.9746 16.1699 11.3355 15.0434 9.51493 13.4359C7.8994 12.0116 6.7809 10.2521 6.37522 9.56104C6.12448 9.13904 6.28836 8.94325 6.59552 8.6348C6.78627 8.44973 7.62179 7.44034 7.68806 7.34289C7.82149 7.14083 8.0597 6.65447 8.0597 6.65447C8.3006 6.17883 8.15015 5.76578 8.01582 5.49309C7.91911 5.30534 6.4003 1.65135 6.25433 1.30803C5.82179 0.276293 5.3597 0.222652 4.91731 0.247686C4.70239 0.262884 2.69104 0.27808 2.05075 0.972759L1.93791 1.09167C1.30836 1.75595 0 3.13816 0 5.81138C0 6.42649 0.0985074 7.07289 0.301791 7.78992C0.675224 9.07825 1.40597 10.4882 2.37134 11.7783C2.39283 11.8051 3.86418 13.8453 4.6003 14.6911C6.92687 17.3661 9.55522 19.342 12.2069 20.3764C15.5955 21.6978 17.0409 22 17.8621 22C18.2221 22 18.9779 21.8176 19.1427 21.8024C20.177 21.7094 22.6379 20.43 23.1537 18.9915C23.6436 17.6334 23.6534 16.4452 23.4707 16.1404Z" fill="#DB4242"/>
</svg>
