<svg width="23" height="18" viewBox="0 0 23 18" fill="none" xmlns="http://www.w3.org/2000/svg">
<g clip-path="url(#clip0_1_41)">
<path fill-rule="evenodd" clip-rule="evenodd" d="M16.4953 8.23978C16.1599 8.23978 15.8879 7.98817 15.8879 7.66823V1.9697C15.8879 1.65404 16.1597 1.39815 16.4953 1.39815L20.7608 1.39815C21.0963 1.39815 21.3683 1.64976 21.3683 1.9697V7.66823C21.3683 7.98389 21.0965 8.23978 20.7608 8.23978H16.4953ZM3.70615 8.23978C3.3716 8.23978 3.1004 7.98817 3.1004 7.66823L3.1004 1.9697C3.1004 1.65404 3.37498 1.39815 3.70615 1.39815H14.0643C14.3988 1.39815 14.67 1.64976 14.67 1.9697V7.66823C14.67 7.98389 14.3955 8.23978 14.0643 8.23978H3.70615ZM10.4044 16.2217C10.0698 16.2217 9.79862 15.9701 9.79862 15.6501V9.9516C9.79862 9.63594 10.0732 9.38005 10.4044 9.38005H20.7625C21.0971 9.38005 21.3683 9.63166 21.3683 9.9516V15.6501C21.3683 15.9658 21.0937 16.2217 20.7625 16.2217H10.4044ZM3.70784 16.2217C3.37236 16.2217 3.1004 15.9701 3.1004 15.6501L3.1004 9.9516C3.1004 9.63594 3.37217 9.38005 3.70784 9.38005H7.97333C8.3088 9.38005 8.58076 9.63166 8.58076 9.9516V15.6501C8.58076 15.9658 8.30899 16.2217 7.97333 16.2217H3.70784Z" fill="#DB4242"/>
</g>
<defs>
<clipPath id="clip0_1_41">
<rect width="18" height="22" fill="white" transform="matrix(0 -1 1 0 0.789062 18)"/>
</clipPath>
</defs>
</svg>
