<svg width="34" height="28" viewBox="0 0 34 28" fill="none" xmlns="http://www.w3.org/2000/svg">
<path d="M15.4545 12.4444H10.8182V7.77775H15.4545V12.4444ZM26.2726 17.1111H10.8182V18.6666H26.2726V17.1111ZM26.2726 14H10.8182V15.5555H26.2726V14ZM26.2726 7.77775H17V9.33331H26.2726V7.77775ZM26.2726 10.8889H17V12.4444H26.2726V10.8889ZM26.2726 20.2222H10.8182V21.7778H26.2726V20.2222ZM30.9089 3.11108V21.7778C30.9089 22.6029 30.5832 23.3942 30.0036 23.9776C29.4239 24.5611 28.6377 24.8889 27.818 24.8889H5.40906C4.79424 24.8889 4.2046 24.643 3.76986 24.2054C3.33512 23.7679 3.09088 23.1744 3.09088 22.5555V6.2222H6.18179V3.11108H30.9089ZM5.40906 23.3333C5.61393 23.3331 5.81034 23.2511 5.95521 23.1052C6.10007 22.9594 6.18156 22.7617 6.18179 22.5555V7.77775H4.63634V22.5555C4.63657 22.7617 4.71806 22.9594 4.86292 23.1052C5.00778 23.2511 5.20419 23.3331 5.40906 23.3333ZM29.3634 4.66664H7.72725V22.5555C7.72471 22.8211 7.67668 23.0843 7.58528 23.3335L27.818 23.3333C28.2277 23.3328 28.6205 23.1688 28.9102 22.8772C29.2 22.5856 29.363 22.1902 29.3634 21.7778V4.66664Z" fill="black"/>
</svg>
