<svg width="22" height="21" viewBox="0 0 22 21" fill="none" xmlns="http://www.w3.org/2000/svg">
<path d="M5.74911 17.4835C5.5111 17.4832 5.27614 17.4299 5.06135 17.3274C4.84655 17.2248 4.65734 17.0757 4.50749 16.8908C4.35764 16.7058 4.25092 16.4898 4.19512 16.2585C4.13931 16.0271 4.13583 15.7862 4.18491 15.5533C4.45239 14.2755 5.05139 13.0906 5.92173 12.1175C6.79208 11.1445 7.90313 10.4176 9.14331 10.0099L9.47151 9.90188L9.19491 9.69488C8.5547 9.21661 8.08134 8.54889 7.84198 7.78644C7.60262 7.024 7.60942 6.20554 7.86141 5.44718C8.1134 4.68882 8.59779 4.02905 9.24586 3.56149C9.89393 3.09392 10.6728 2.84229 11.4719 2.84229C12.271 2.84229 13.0499 3.09392 13.698 3.56149C14.346 4.02905 14.8304 4.68882 15.0824 5.44718C15.3344 6.20554 15.3412 7.024 15.1018 7.78644C14.8625 8.54889 14.3891 9.21661 13.7489 9.69488L13.4729 9.90188L13.8005 10.0099C13.9019 10.0429 13.9955 10.0759 14.0861 10.1101C14.1362 10.1286 14.1822 10.1569 14.2212 10.1933C14.2603 10.2298 14.2917 10.2737 14.3135 10.3225C14.3466 10.3956 14.3572 10.4768 14.3441 10.556C14.3311 10.6352 14.2948 10.7087 14.24 10.7673C14.1852 10.8259 14.1143 10.8669 14.0362 10.8853C13.9581 10.9036 13.8763 10.8984 13.8011 10.8703C13.1047 10.6089 12.3692 10.4669 11.6255 10.4503H11.6147C11.5667 10.4503 11.5187 10.4533 11.4707 10.4533C11.4227 10.4533 11.3753 10.4533 11.3279 10.4503H11.3171C8.26611 10.5217 5.60091 12.7375 4.97991 15.7201C4.95548 15.8357 4.95724 15.9553 4.98506 16.0701C5.01289 16.1849 5.06607 16.2921 5.14071 16.3837C5.21365 16.4747 5.3063 16.5481 5.41168 16.5982C5.51706 16.6483 5.63243 16.6738 5.74911 16.6729H7.82331C7.92826 16.6769 8.02757 16.7214 8.10039 16.7971C8.17322 16.8728 8.2139 16.9737 8.2139 17.0788C8.2139 17.1838 8.17322 17.2848 8.10039 17.3604C8.02757 17.4361 7.92826 17.4806 7.82331 17.4847L5.74911 17.4835ZM11.4707 9.63548H11.6045H11.6165C12.3967 9.59742 13.1311 9.25586 13.6629 8.68371C14.1946 8.11157 14.4817 7.35419 14.4626 6.57331C14.4436 5.79243 14.12 5.04993 13.561 4.50437C13.002 3.95882 12.2518 3.65343 11.4707 3.65343C10.6896 3.65343 9.93944 3.95882 9.38042 4.50437C8.8214 5.04993 8.49783 5.79243 8.4788 6.57331C8.45977 7.35419 8.74678 8.11157 9.27856 8.68371C9.81033 9.25586 10.5447 9.59742 11.3249 9.63548H11.3363H11.4707Z" fill="white"/>
<path d="M16.5977 15.14C16.8221 15.14 17.0039 14.9582 17.0039 14.7338C17.0039 14.5095 16.8221 14.3276 16.5977 14.3276C16.3734 14.3276 16.1915 14.5095 16.1915 14.7338C16.1915 14.9582 16.3734 15.14 16.5977 15.14Z" fill="white"/>
<path d="M15.2351 17.4835C14.9573 17.4826 14.686 17.3992 14.4557 17.2437C14.2255 17.0883 14.0467 16.8678 13.9421 16.6105C13.8464 16.3744 13.7698 16.131 13.7129 15.8827C13.7005 15.8309 13.6984 15.7771 13.7067 15.7245C13.7151 15.6719 13.7337 15.6215 13.7616 15.576C13.7894 15.5306 13.826 15.4912 13.8691 15.4599C13.9122 15.4286 13.9611 15.4061 14.0129 15.3937C14.045 15.3865 14.0778 15.383 14.1107 15.3835C14.202 15.3834 14.2906 15.4141 14.3622 15.4708C14.4337 15.5274 14.484 15.6066 14.5049 15.6955C14.5525 15.9023 14.6161 16.1051 14.6951 16.3021C14.7398 16.4102 14.8151 16.5029 14.9118 16.5688C15.0085 16.6347 15.1223 16.6709 15.2393 16.6729H17.0891C17.2023 16.6731 17.3131 16.6403 17.408 16.5785C17.5028 16.5167 17.5776 16.4285 17.6231 16.3249C17.7875 15.9475 17.9831 15.3649 17.9831 14.7319C17.9831 14.0989 17.7851 13.5319 17.6231 13.1653C17.5765 13.0628 17.5009 12.9761 17.4058 12.9158C17.3106 12.8556 17.1999 12.8245 17.0873 12.8263H15.2507C15.1351 12.8226 15.0212 12.8547 14.9246 12.9182C14.8279 12.9816 14.7532 13.0734 14.7107 13.1809C14.6304 13.3847 14.5637 13.5935 14.5109 13.8061C14.4893 13.8945 14.4387 13.9731 14.3671 14.0293C14.2955 14.0854 14.2071 14.1158 14.1161 14.1157H10.0121L9.40128 14.7445L10.0307 15.3835H11.7647C11.8193 15.3814 11.8738 15.3903 11.9248 15.4098C11.9759 15.4292 12.0226 15.4588 12.0619 15.4967C12.1013 15.5346 12.1327 15.58 12.1541 15.6303C12.1755 15.6806 12.1865 15.7347 12.1865 15.7894C12.1865 15.844 12.1755 15.8981 12.1541 15.9484C12.1327 15.9987 12.1013 16.0442 12.0619 16.0821C12.0226 16.12 11.9759 16.1495 11.9248 16.169C11.8738 16.1884 11.8193 16.1974 11.7647 16.1953H9.85908C9.80533 16.1954 9.75209 16.1849 9.70245 16.1643C9.65281 16.1437 9.60775 16.1134 9.56988 16.0753L8.54448 15.0295C8.46984 14.954 8.42798 14.8521 8.42798 14.746C8.42798 14.6398 8.46984 14.538 8.54448 14.4625L9.55068 13.4257C9.58847 13.3867 9.6337 13.3558 9.68369 13.3346C9.73368 13.3135 9.78741 13.3026 9.84168 13.3027H13.8077L13.8485 13.1797C13.8899 13.0561 13.9283 12.9541 13.9535 12.8887C14.0549 12.6281 14.2335 12.4047 14.4653 12.2483C14.6971 12.0918 14.9711 12.0099 15.2507 12.0133H17.0819C17.351 12.0127 17.6145 12.0897 17.8409 12.2351C18.0674 12.3805 18.2471 12.588 18.3587 12.8329C18.5549 13.2727 18.7895 13.9585 18.7913 14.7289C18.7931 15.4993 18.5603 16.1995 18.3647 16.6489C18.2562 16.8971 18.0777 17.1082 17.851 17.2565C17.6243 17.4047 17.3593 17.4836 17.0885 17.4835H15.2351Z" fill="white"/>
</svg>
