<svg width="25" height="17" viewBox="0 0 25 17" fill="none" xmlns="http://www.w3.org/2000/svg">
<path d="M23.3671 2.52223L13.0127 8.36022C12.9524 8.39441 12.8843 8.4119 12.8145 8.4119H12.7628C12.6939 8.4119 12.6257 8.39441 12.5646 8.36022L2.21106 2.52223C2.01441 2.41091 1.94311 2.15964 2.0528 1.96006C2.16248 1.76048 2.41006 1.68812 2.60671 1.79944L12.7887 7.54042L22.9706 1.79944C23.1681 1.68812 23.4156 1.76048 23.5245 1.96006C23.6342 2.15964 23.5637 2.41091 23.3671 2.52223ZM23.0247 0.45166H2.55343C1.57802 0.45166 0.789062 1.25317 0.789062 2.24234V14.6602C0.789062 15.6494 1.57802 16.4517 2.55343 16.4517H23.0247C23.9993 16.4517 24.7891 15.6494 24.7891 14.6602V2.24234C24.7891 1.25317 23.9993 0.45166 23.0247 0.45166Z" fill="#DB4242"/>
</svg>
