<svg width="78" height="77" viewBox="0 0 78 77" fill="none" xmlns="http://www.w3.org/2000/svg">
<path d="M71.0312 10.7272H69.75V4.36359C69.75 2.2585 68.0254 0.54541 65.9062 0.54541H63.3438C61.2246 0.54541 59.5 2.2585 59.5 4.36359V10.7272H18.5V4.36359C18.5 2.2585 16.7754 0.54541 14.6562 0.54541H12.0938C9.97456 0.54541 8.25 2.2585 8.25 4.36359V10.7272H6.96875C3.43634 10.7272 0.5625 13.582 0.5625 17.0909V70.5454C0.5625 74.0543 3.43634 76.909 6.96875 76.909H71.0312C74.5637 76.909 77.4375 74.0543 77.4375 70.5454V17.0909C77.4375 13.582 74.5637 10.7272 71.0312 10.7272ZM62.0625 4.36359C62.0625 3.66105 62.6365 3.09086 63.3438 3.09086H65.9062C66.6135 3.09086 67.1875 3.66105 67.1875 4.36359V12V17.0909C67.1875 17.7934 66.6135 18.3636 65.9062 18.3636H63.3438C62.6365 18.3636 62.0625 17.7934 62.0625 17.0909V12V4.36359ZM10.8125 4.36359C10.8125 3.66105 11.3865 3.09086 12.0938 3.09086H14.6562C15.3635 3.09086 15.9375 3.66105 15.9375 4.36359V12V17.0909C15.9375 17.7934 15.3635 18.3636 14.6562 18.3636H12.0938C11.3865 18.3636 10.8125 17.7934 10.8125 17.0909V12V4.36359ZM6.96875 13.2727H8.25V17.0909C8.25 19.196 9.97456 20.909 12.0938 20.909H14.6562C16.7754 20.909 18.5 19.196 18.5 17.0909V13.2727H59.5V17.0909C59.5 19.196 61.2246 20.909 63.3438 20.909H65.9062C68.0254 20.909 69.75 19.196 69.75 17.0909V13.2727H71.0312C73.1504 13.2727 74.875 14.9858 74.875 17.0909V31.0909H3.125V17.0909C3.125 14.9858 4.84956 13.2727 6.96875 13.2727ZM71.0312 74.3636H6.96875C4.84956 74.3636 3.125 72.6505 3.125 70.5454V33.6363H74.875V70.5454C74.875 72.6505 73.1504 74.3636 71.0312 74.3636Z" fill="black"/>
<path d="M24.9062 27.2728H53.0938C53.8023 27.2728 54.375 26.7039 54.375 26V18.3637C54.375 17.6599 53.8023 17.0909 53.0938 17.0909H24.9062C24.1977 17.0909 23.625 17.6599 23.625 18.3637V26C23.625 26.7039 24.1977 27.2728 24.9062 27.2728ZM26.1875 19.6364H51.8125V24.7273H26.1875V19.6364Z" fill="black"/>
<path d="M17.2188 37.4546H9.53125C8.82272 37.4546 8.25 38.0235 8.25 38.7273V45.091C8.25 45.7948 8.82272 46.3637 9.53125 46.3637H17.2188C17.9273 46.3637 18.5 45.7948 18.5 45.091V38.7273C18.5 38.0235 17.9273 37.4546 17.2188 37.4546ZM15.9375 43.8182H10.8125V40H15.9375V43.8182Z" fill="black"/>
<path d="M33.875 37.4546H26.1875C25.479 37.4546 24.9062 38.0235 24.9062 38.7273V45.091C24.9062 45.7948 25.479 46.3637 26.1875 46.3637H33.875C34.5835 46.3637 35.1562 45.7948 35.1562 45.091V38.7273C35.1562 38.0235 34.5835 37.4546 33.875 37.4546ZM32.5938 43.8182H27.4688V40H32.5938V43.8182Z" fill="black"/>
<path d="M44.125 46.3637H51.8125C52.521 46.3637 53.0938 45.7948 53.0938 45.091V38.7273C53.0938 38.0235 52.521 37.4546 51.8125 37.4546H44.125C43.4165 37.4546 42.8438 38.0235 42.8438 38.7273V45.091C42.8438 45.7948 43.4165 46.3637 44.125 46.3637ZM45.4062 40H50.5312V43.8182H45.4062V40Z" fill="black"/>
<path d="M68.4688 37.4546H60.7812C60.0727 37.4546 59.5 38.0235 59.5 38.7273V45.091C59.5 45.7948 60.0727 46.3637 60.7812 46.3637H68.4688C69.1773 46.3637 69.75 45.7948 69.75 45.091V38.7273C69.75 38.0235 69.1773 37.4546 68.4688 37.4546ZM67.1875 43.8182H62.0625V40H67.1875V43.8182Z" fill="black"/>
<path d="M17.2188 50.1818H9.53125C8.82272 50.1818 8.25 50.7507 8.25 51.4545V57.8181C8.25 58.5219 8.82272 59.0909 9.53125 59.0909H17.2188C17.9273 59.0909 18.5 58.5219 18.5 57.8181V51.4545C18.5 50.7507 17.9273 50.1818 17.2188 50.1818ZM15.9375 56.5454H10.8125V52.7272H15.9375V56.5454Z" fill="black"/>
<path d="M33.875 50.1818H26.1875C25.479 50.1818 24.9062 50.7507 24.9062 51.4545V57.8181C24.9062 58.5219 25.479 59.0909 26.1875 59.0909H33.875C34.5835 59.0909 35.1562 58.5219 35.1562 57.8181V51.4545C35.1562 50.7507 34.5835 50.1818 33.875 50.1818ZM32.5938 56.5454H27.4688V52.7272H32.5938V56.5454Z" fill="black"/>
<path d="M44.125 59.0909H51.8125C52.521 59.0909 53.0938 58.5219 53.0938 57.8181V51.4545C53.0938 50.7507 52.521 50.1818 51.8125 50.1818H44.125C43.4165 50.1818 42.8438 50.7507 42.8438 51.4545V57.8181C42.8438 58.5219 43.4165 59.0909 44.125 59.0909ZM45.4062 52.7272H50.5312V56.5454H45.4062V52.7272Z" fill="black"/>
<path d="M68.4688 50.1818H60.7812C60.0727 50.1818 59.5 50.7507 59.5 51.4545V57.8181C59.5 58.5219 60.0727 59.0909 60.7812 59.0909H68.4688C69.1773 59.0909 69.75 58.5219 69.75 57.8181V51.4545C69.75 50.7507 69.1773 50.1818 68.4688 50.1818ZM67.1875 56.5454H62.0625V52.7272H67.1875V56.5454Z" fill="black"/>
<path d="M17.2188 62.9091H9.53125C8.82272 62.9091 8.25 63.478 8.25 64.1818V70.5454C8.25 71.2492 8.82272 71.8181 9.53125 71.8181H17.2188C17.9273 71.8181 18.5 71.2492 18.5 70.5454V64.1818C18.5 63.478 17.9273 62.9091 17.2188 62.9091ZM15.9375 69.2727H10.8125V65.4545H15.9375V69.2727Z" fill="black"/>
<path d="M33.875 62.9091H26.1875C25.479 62.9091 24.9062 63.478 24.9062 64.1818V70.5454C24.9062 71.2492 25.479 71.8181 26.1875 71.8181H33.875C34.5835 71.8181 35.1562 71.2492 35.1562 70.5454V64.1818C35.1562 63.478 34.5835 62.9091 33.875 62.9091ZM32.5938 69.2727H27.4688V65.4545H32.5938V69.2727Z" fill="black"/>
<path d="M46.6017 68.6605L43.7496 65.8274L41.9379 67.627L45.7817 71.4452C46.0212 71.6858 46.348 71.8181 46.6875 71.8181C46.7067 71.8181 46.7259 71.8181 46.7452 71.8168C47.1052 71.8003 47.4409 71.6348 47.6728 71.3612L54.079 63.7248L52.1097 62.0945L46.6017 68.6605Z" fill="black"/>
<path d="M61.9767 68.6605L59.1246 65.8274L57.3129 67.627L61.1567 71.4452C61.3962 71.6858 61.723 71.8181 62.0625 71.8181C62.0817 71.8181 62.1009 71.8181 62.1202 71.8168C62.4802 71.8003 62.8159 71.6348 63.0478 71.3612L69.454 63.7248L67.4847 62.0945L61.9767 68.6605Z" fill="black"/>
</svg>
