<svg width="120" height="97" viewBox="0 0 120 97" fill="none" xmlns="http://www.w3.org/2000/svg">
<path d="M19.0544 16.7708L19.0458 6.87481L19.0456 6.85589H19.0458C19.0396 6.59823 19.0275 6.4226 19.0094 6.29056L19.009 6.28747L19.0094 6.28742C18.9848 6.10735 18.9479 5.98296 18.9006 5.86334C18.7194 5.40555 18.4033 5.12759 18.0569 4.96961C17.6112 4.76634 17.0995 4.7857 16.8112 4.86754C14.3041 5.57927 12.4275 5.11395 10.6036 4.66169C8.83481 4.22311 7.11039 3.79551 4.89665 4.28097C4.51833 4.36397 4.17977 4.6149 3.94153 4.93077C3.70559 5.24356 3.55413 5.64147 3.55413 6.01174V10.1715C3.55413 10.1892 3.55477 10.2068 3.55589 10.2243C3.54093 11.294 3.81141 11.8803 4.32579 12.2251C4.82201 12.5577 5.37537 12.5443 6.06881 12.5028C7.42827 12.4213 8.70771 12.6951 10.0138 12.9745C12.2014 13.4426 14.458 13.9251 17.4574 13.0117L17.4606 16.7659L17.2342 16.7761C17.1614 16.7775 17.0875 16.789 17.0144 16.8116C16.8033 16.877 16.586 16.9899 16.3788 17.1351C16.013 17.3913 15.6331 17.7809 15.3671 18.1887C15.0374 18.6944 14.8669 19.2644 15.0219 19.7736C15.0609 19.9021 15.117 20.0214 15.1917 20.1299L15.9003 21.1586C15.4792 21.359 15.0471 21.6376 14.703 21.9347C14.4253 22.1743 14.1891 22.4367 14.0359 22.6977C13.7957 23.1068 13.7299 23.5316 13.9182 23.9402C14.0059 24.1301 14.1419 24.2946 14.3329 24.4272L15.1344 24.9838C14.6635 25.2095 14.2562 25.5021 13.908 25.8286C13.1358 26.5525 12.6547 27.4525 12.4164 28.1447C12.2876 28.5191 12.1909 28.8664 12.2087 29.2257C9.68965 31.5583 7.84127 34.5152 6.48757 37.6704C4.68405 41.8741 3.76377 46.4174 3.30405 50.2843C3.26519 50.6114 3.19285 51.4111 3.12693 52.1403L3.08095 52.6467C3.07701 52.6703 3.07401 52.6943 3.07211 52.7186C3.01385 53.4477 3.09469 54.028 3.28065 54.5109C3.48065 55.0303 3.78761 55.413 4.16729 55.7267C5.88397 57.1452 9.17695 57.0704 10.3979 57.0198V62.974H6.89393V58.9774C6.89393 58.5319 6.53575 58.1707 6.09393 58.1707C5.65211 58.1707 5.29393 58.5319 5.29393 58.9774V62.974H2.13101V58.9774C2.13101 58.5319 1.77283 58.1707 1.33101 58.1707C0.889186 58.1707 0.531006 58.5319 0.531006 58.9774V63.7808C0.531006 64.2263 0.889186 64.5875 1.33101 64.5875H10.3979V67.1397L2.54809 67.1373C2.10799 67.1373 1.75121 67.4971 1.75121 67.9409C1.75121 68.3847 2.10799 68.7444 2.54809 68.7444L11.1713 68.7471L11.1979 68.7476L11.2241 68.7471L35.8123 68.7547V72.2291L2.52331 72.1878C2.08321 72.1878 1.72643 72.5476 1.72643 72.9914C1.72643 73.4352 2.08321 73.7949 2.52331 73.7949L36.4211 73.837C36.4824 73.8522 36.5464 73.8603 36.6123 73.8603H49.3137V77.9393H36.6123C36.1705 77.9393 35.8123 78.3005 35.8123 78.746C35.8123 79.1916 36.1705 79.5527 36.6123 79.5527H83.4017C83.8435 79.5527 84.2017 79.1916 84.2017 78.746C84.2017 78.3005 83.8435 77.9393 83.4017 77.9393H70.1761V73.8603H83.4017C83.4676 73.8603 83.5317 73.8522 83.593 73.837L117.477 73.7949C117.917 73.7949 118.274 73.4352 118.274 72.9914C118.274 72.5476 117.917 72.1878 117.477 72.1878L84.1976 72.2291L84.1937 68.7056L94.5084 68.7176C94.5773 68.7371 94.6499 68.7476 94.725 68.7476C94.7994 68.7476 94.8714 68.7373 94.9398 68.7181L108.656 68.7341C108.704 68.7429 108.752 68.7476 108.802 68.7476C108.851 68.7476 108.899 68.7431 108.946 68.7345L117.452 68.7444C117.892 68.7444 118.249 68.3847 118.249 67.9409C118.249 67.4971 117.892 67.1373 117.452 67.1373L109.602 67.1281V64.5875H118.669C119.111 64.5875 119.469 64.2263 119.469 63.7808V58.9774C119.469 58.5319 119.111 58.1707 118.669 58.1707C118.227 58.1707 117.869 58.5319 117.869 58.9774V62.974H114.706V58.9774C114.706 58.5319 114.348 58.1707 113.906 58.1707C113.464 58.1707 113.106 58.5319 113.106 58.9774V62.974H109.602V57.0198C110.823 57.0704 114.116 57.1452 115.833 55.7267C116.212 55.413 116.519 55.0303 116.719 54.5109C116.905 54.028 116.986 53.4477 116.928 52.7186C116.926 52.6943 116.923 52.6703 116.919 52.6467L116.873 52.1403C116.807 51.4111 116.735 50.6114 116.696 50.2843C116.236 46.4174 115.316 41.8741 113.512 37.6704C112.159 34.5152 110.31 31.5583 107.791 29.2257C107.809 28.8664 107.712 28.5191 107.584 28.1447C107.345 27.4525 106.864 26.5525 106.092 25.8286C105.744 25.5021 105.337 25.2095 104.866 24.9838L105.667 24.4272C105.858 24.2946 105.994 24.1301 106.082 23.9402C106.27 23.5316 106.204 23.1068 105.964 22.6977C105.811 22.4367 105.575 22.1743 105.297 21.9347C104.953 21.6376 104.521 21.359 104.1 21.1586L104.808 20.1299C104.883 20.0214 104.939 19.9021 104.978 19.7736C105.133 19.2644 104.963 18.6944 104.633 18.1887C104.367 17.7809 103.987 17.3913 103.621 17.1351C103.414 16.9899 103.197 16.877 102.986 16.8116C102.912 16.789 102.839 16.7775 102.766 16.7761L102.539 16.7659L102.543 13.0117C105.542 13.9251 107.799 13.4426 109.986 12.9745C111.292 12.6951 112.572 12.4213 113.931 12.5028C114.625 12.5443 115.178 12.5577 115.674 12.2251C116.189 11.8803 116.459 11.294 116.444 10.2243C116.445 10.2068 116.446 10.1892 116.446 10.1715V6.01174C116.446 5.64147 116.294 5.24356 116.058 4.93077C115.82 4.6149 115.482 4.36397 115.103 4.28097C112.89 3.79551 111.165 4.22311 109.396 4.66169C107.572 5.11395 105.696 5.57927 103.189 4.86754C102.9 4.7857 102.389 4.76634 101.943 4.96961C101.597 5.12759 101.281 5.40555 101.099 5.86334C101.052 5.98296 101.015 6.10735 100.991 6.28742L100.991 6.28747L100.991 6.29056C100.973 6.4226 100.96 6.59823 100.954 6.85589H100.954L100.954 6.87481L100.946 16.7708L100.809 16.7769C100.732 16.7803 100.659 16.7942 100.59 16.8173C100.346 16.8964 100.084 17.0459 99.8363 17.2381C99.4924 17.505 99.1481 17.8761 98.9108 18.2559C98.608 18.7404 98.4584 19.2771 98.6058 19.7615C98.6491 19.9039 98.7166 20.0379 98.8108 20.1614L99.5515 21.1318C99.1127 21.3337 98.6568 21.6241 98.2971 21.9347C98.0195 22.1743 97.7833 22.4367 97.63 22.6977C97.3898 23.1068 97.324 23.5316 97.5124 23.9402C97.6 24.1301 97.736 24.2946 97.927 24.4272L98.6516 24.9303C98.0085 25.2171 97.4814 25.6254 97.0581 26.0783C96.4308 26.7493 96.0275 27.5286 95.8154 28.1447C95.6716 28.5627 95.5678 28.9471 95.6186 29.3534C95.62 29.3648 95.6217 29.3762 95.6236 29.3875C95.6276 29.4149 95.6321 29.4421 95.6373 29.469C93.2799 31.67 91.5629 34.3752 90.2922 37.2742C88.9763 40.2761 88.1413 43.4875 87.5683 46.5556C87.4966 46.9401 87.4271 47.3399 87.3473 47.8534C87.2729 48.3327 87.1957 48.8764 87.1067 49.558C87.1023 49.5798 87.0987 49.6019 87.0961 49.6243C86.9862 50.5613 86.8938 51.5762 86.8215 52.3704L86.7964 52.6466C86.7924 52.6702 86.7894 52.6942 86.7875 52.7186C86.7293 53.4477 86.8101 54.028 86.996 54.5109C87.1961 55.0303 87.5031 55.413 87.8827 55.7267C89.5176 57.0776 92.5819 57.0741 93.925 57.027V62.974H90.0379V58.9774C90.0379 58.5319 89.6797 58.1707 89.2379 58.1707C88.7961 58.1707 88.4379 58.5319 88.4379 58.9774V62.974H85.275V58.9774C85.275 58.5319 84.9168 58.1707 84.475 58.1707C84.0332 58.1707 83.675 58.5319 83.675 58.9774V63.7808C83.675 64.2263 84.0332 64.5875 84.475 64.5875H93.925V67.1098L83.396 67.0975C82.9558 67.0975 82.5991 67.4573 82.5991 67.9011L82.6039 72.2311L77.6843 72.2372V66.4809C77.6843 66.0354 77.3261 65.6742 76.8843 65.6742C76.4425 65.6742 76.0843 66.0354 76.0843 66.4809V72.2392L74.5019 72.2412C74.4697 72.2412 74.4381 72.2431 74.407 72.2468H70.1761V63.5041C71.7785 63.572 76.2637 63.694 78.5523 61.8029C79.0354 61.4038 79.4254 60.9185 79.678 60.2623C79.9167 59.6426 80.0199 58.8914 79.9438 57.9398C79.9419 57.9155 79.9389 57.8916 79.935 57.868L79.8984 57.4669C79.801 56.3961 79.6764 55.0277 79.5227 53.7173C79.52 53.6949 79.5165 53.6729 79.5122 53.6512C79.389 52.7068 79.2829 51.9591 79.1812 51.3047C79.0743 50.6162 78.9793 50.07 78.88 49.538C78.0998 45.3602 76.9631 40.988 75.1724 36.9028C73.4262 32.919 71.0602 29.2066 67.8017 26.2042C67.8294 26.1076 67.8493 26.0077 67.8622 25.9046C67.924 25.4102 67.7907 24.9221 67.6066 24.3873C67.3277 23.5769 66.7966 22.5512 65.9695 21.6665C65.329 20.9813 64.5085 20.3742 63.4847 20.0014C63.4504 19.989 63.416 19.9767 63.3812 19.9648L64.8277 18.9604C65.0439 18.8103 65.1972 18.6257 65.295 18.4135C65.5072 17.9531 65.4275 17.4649 65.1478 16.9884C64.9549 16.6601 64.6535 16.3263 64.2971 16.0186C63.7269 15.5265 62.9763 15.0737 62.3064 14.8188L63.5527 13.1859C63.6594 13.0461 63.7359 12.8942 63.785 12.7327C63.9587 12.162 63.7718 11.5126 63.3998 10.9175C63.0934 10.4271 62.648 9.94713 62.2026 9.60139C61.8881 9.35732 61.5594 9.16889 61.2559 9.07188L61.2527 9.07085C61.1851 9.04858 61.1135 9.03511 61.039 9.03189L60.5707 9.01083L60.5641 1.25096C60.5641 0.807166 60.2073 0.447388 59.7672 0.447388C59.3271 0.447388 58.9703 0.807166 58.9703 1.25096L58.9771 9.00409L58.3788 9.031C58.306 9.03239 58.2322 9.0439 58.1591 9.06655C57.901 9.1464 57.6313 9.28729 57.371 9.46967C56.8977 9.80122 56.4068 10.3043 56.0638 10.8302C55.6571 11.4539 55.4437 12.1465 55.6271 12.7493C55.6714 12.8951 55.7353 13.0309 55.8204 13.1544L56.9934 14.8574C56.3491 15.1179 55.6434 15.5504 55.101 16.0186C54.7445 16.3263 54.4431 16.6601 54.2503 16.9884C53.9706 17.4649 53.8909 17.953 54.1031 18.4135C54.201 18.6257 54.3542 18.8103 54.5703 18.9604L56.1074 20.0276C55.284 20.3386 54.5929 20.8038 54.0223 21.3388C53.0053 22.2923 52.3719 23.4766 52.0585 24.3873C51.876 24.9175 51.7435 25.4018 51.8014 25.8917C48.3326 29.0685 45.7932 33.1177 43.9377 37.4427C41.4839 43.1617 40.231 49.3507 39.6045 54.6205C39.5482 55.0943 39.4508 56.1708 39.3621 57.1523L39.2971 57.8679C39.2932 57.8915 39.2902 57.9155 39.2883 57.9398C39.2122 58.8914 39.3154 59.6426 39.554 60.2623C39.8067 60.9185 40.1967 61.4038 40.6798 61.8029C43.0595 63.7693 47.8151 63.559 49.234 63.4963L49.3137 63.4928V72.2468H45.593C45.5619 72.2431 45.5303 72.2412 45.4982 72.2412L43.9296 72.2392V66.4809C43.9296 66.0354 43.5715 65.6742 43.1297 65.6742C42.6878 65.6742 42.3296 66.0354 42.3296 66.4809V72.2372L37.4123 72.2311V67.9513H37.4092C37.4092 67.5075 37.0524 67.1478 36.6123 67.1478L26.075 67.1445V64.5875H35.525C35.9668 64.5875 36.325 64.2263 36.325 63.7808V58.9774C36.325 58.5319 35.9668 58.1707 35.525 58.1707C35.0832 58.1707 34.725 58.5319 34.725 58.9774V62.974H31.5621V58.9774C31.5621 58.5319 31.2039 58.1707 30.7621 58.1707C30.3203 58.1707 29.9621 58.5319 29.9621 58.9774V62.974H26.075V57.027C27.4181 57.0741 30.4824 57.0776 32.1173 55.7267C32.497 55.413 32.804 55.0303 33.004 54.5109C33.1899 54.028 33.2707 53.4477 33.2125 52.7186C33.2106 52.6942 33.2076 52.6702 33.2036 52.6466L33.1785 52.3704C33.1062 51.5762 33.0138 50.5613 32.9039 49.6243C32.9013 49.6019 32.8977 49.5798 32.8933 49.558C32.8043 48.8764 32.7271 48.3327 32.6527 47.8534C32.5729 47.3399 32.5035 46.9401 32.4317 46.5556C31.8587 43.4875 31.0237 40.2761 29.7079 37.2742C28.4372 34.3752 26.7201 31.67 24.3627 29.469C24.3679 29.4421 24.3724 29.4149 24.3764 29.3875C24.3783 29.3762 24.38 29.3648 24.3815 29.3534C24.4322 28.9471 24.3284 28.5627 24.1846 28.1447C23.9725 27.5286 23.5693 26.7493 22.9419 26.0783C22.5187 25.6254 21.9915 25.2171 21.3485 24.9303L22.073 24.4272C22.264 24.2946 22.4 24.1301 22.4877 23.9402C22.676 23.5316 22.6102 23.1068 22.37 22.6977C22.2168 22.4367 21.9805 22.1743 21.7029 21.9347C21.3432 21.6241 20.8873 21.3337 20.4485 21.1318L21.1892 20.1614C21.2834 20.0379 21.3509 19.9039 21.3943 19.7615C21.5417 19.2771 21.392 18.7404 21.0892 18.2559C20.8519 17.8761 20.5077 17.505 20.1637 17.2381C19.9161 17.0459 19.6545 16.8964 19.4096 16.8173C19.3407 16.7942 19.2676 16.7803 19.1915 16.7769L19.0544 16.7708ZM17.4521 6.89373L17.4559 11.3225C14.6077 12.3107 12.4415 11.8475 10.3451 11.3989C8.93387 11.097 7.55149 10.8012 5.97505 10.8956C5.58435 10.919 5.28363 10.934 5.20703 10.8826C5.16231 10.8527 5.14127 10.678 5.14947 10.2585C5.15251 10.2299 5.15413 10.2009 5.15413 10.1715V6.01174C5.15413 5.98832 5.17609 5.94672 5.21029 5.90138C5.23165 5.87306 5.22615 5.85838 5.23417 5.85662C7.09349 5.44889 8.63805 5.83188 10.2223 6.22471C12.2484 6.7271 14.3329 7.24396 17.2425 6.41798C17.2747 6.40885 17.3371 6.40911 17.4007 6.43809C17.4089 6.44182 17.4161 6.44755 17.4193 6.4558C17.4209 6.45975 17.4232 6.47193 17.4282 6.50801L17.4286 6.50795C17.4399 6.59185 17.4477 6.71141 17.4521 6.89373ZM24.475 67.144L11.9979 67.1402V64.5875H24.475V67.144ZM50.9137 73.8603H68.5761V77.9393H50.9137V73.8603ZM68.5761 72.2468H65.4632V66.4809C65.4632 66.0354 65.105 65.6742 64.6632 65.6742C64.2214 65.6742 63.8632 66.0354 63.8632 66.4809V72.2468H56.1507V66.4809C56.1507 66.0354 55.7926 65.6742 55.3507 65.6742C54.9089 65.6742 54.5507 66.0354 54.5507 66.4809V72.2468H50.9137V56.8469C50.9137 55.1553 51.7016 53.8175 52.941 52.8367L54.3993 51.9704C54.447 51.9423 54.4906 51.9099 54.5301 51.874C55.0009 51.6563 55.5022 51.4722 56.0243 51.3221C57.1939 50.9858 58.4675 50.8176 59.7449 50.8176C61.0223 50.8176 62.2959 50.9858 63.4655 51.3221C63.9877 51.4722 64.4889 51.6563 64.9597 51.874C64.9992 51.9099 65.0429 51.9423 65.0905 51.9704L66.5488 52.8367C67.7882 53.8175 68.5761 55.1553 68.5761 56.8469V72.2468ZM108.002 67.1263L95.525 67.1117V64.5875H108.002V67.1263ZM14.4384 48.5597C14.4744 48.5384 14.5081 48.5147 14.5395 48.4889C14.8665 48.3391 15.2142 48.212 15.5763 48.1079C16.4114 47.8678 17.322 47.7478 18.2365 47.7478C19.1509 47.7478 20.0616 47.8678 20.8966 48.1079C21.2588 48.212 21.6065 48.3391 21.9334 48.4889C21.9648 48.5147 21.9985 48.5384 22.0345 48.5597L23.0744 49.1774C23.9313 49.8566 24.475 50.7774 24.475 51.9368V62.974H22.6308V58.9774C22.6308 58.5319 22.2726 58.1707 21.8308 58.1707C21.389 58.1707 21.0308 58.5319 21.0308 58.9774V62.974H15.8252V58.9774C15.8252 58.5319 15.467 58.1707 15.0252 58.1707C14.5834 58.1707 14.2252 58.5319 14.2252 58.9774V62.974H11.9979V51.9368C11.9979 50.7774 12.5417 49.8566 13.3986 49.1774L14.4384 48.5597ZM12.3965 47.9071L9.32225 49.7334C9.62681 46.8416 10.1006 43.6532 10.8235 40.5879C11.6751 36.9772 12.8677 33.5554 14.5282 31.0385C14.7931 31.0985 15.0776 31.1518 15.3782 31.1977C16.2331 31.3282 17.2343 31.4034 18.3005 31.4034C19.3667 31.4034 20.368 31.3282 21.2228 31.1977C21.4267 31.1666 21.6231 31.1321 21.8111 31.0943C23.4449 33.5659 24.6056 36.6779 25.4287 39.929C26.2585 43.2066 26.7437 46.6144 27.0239 49.6581L24.0765 47.9072C23.3076 47.3034 22.3645 46.8537 21.3342 46.5575C20.353 46.2754 19.2928 46.1343 18.2365 46.1343C17.1801 46.1343 16.1199 46.2754 15.1388 46.5575C14.1084 46.8537 13.1655 47.3034 12.3965 47.9071ZM9.13523 51.71L10.4977 50.9007C10.4324 51.229 10.3979 51.5743 10.3979 51.9368V55.4097C10.0614 55.4242 9.51817 55.4438 8.89505 55.4252C8.94465 54.3175 9.02147 53.0623 9.13523 51.71ZM26.075 51.9368C26.075 51.5743 26.0406 51.229 25.9753 50.9007L27.181 51.6169C27.2212 52.2023 27.2541 52.7679 27.2809 53.3093C27.2925 53.5448 27.3307 54.0474 27.3706 54.5732C27.393 54.8682 27.416 55.17 27.4348 55.4238C26.899 55.4413 26.4194 55.4301 26.075 55.4173V51.9368ZM18.2285 36.3356C17.4509 36.3356 16.7327 36.5518 16.2003 36.9013C15.5665 37.3173 15.1745 37.9237 15.1745 38.6219C15.1745 39.32 15.5665 39.9265 16.2003 40.3425C16.7327 40.692 17.4509 40.9082 18.2285 40.9082C19.0061 40.9082 19.7243 40.692 20.2568 40.3425C20.8906 39.9265 21.2826 39.32 21.2826 38.6219C21.2826 37.9237 20.8906 37.3173 20.2568 36.9013C19.7243 36.5517 19.0061 36.3356 18.2285 36.3356ZM17.0691 38.25C17.3524 38.0641 17.7613 37.949 18.2285 37.949C18.6958 37.949 19.1047 38.064 19.388 38.25C19.57 38.3695 19.6826 38.5029 19.6826 38.6219C19.6826 38.7409 19.57 38.8743 19.388 38.9937C19.1047 39.1797 18.6958 39.2948 18.2285 39.2948C17.7613 39.2948 17.3524 39.1797 17.0691 38.9937C16.8871 38.8743 16.7745 38.7409 16.7745 38.6219C16.7745 38.5029 16.8871 38.3695 17.0691 38.25ZM31.1048 54.4788C30.5934 54.9014 29.8275 55.1419 29.026 55.2759C29.0076 55.022 28.9857 54.7344 28.9644 54.4534C28.9213 53.8857 28.88 53.343 28.8746 53.2337C28.6836 49.3713 28.1895 44.3142 26.9787 39.5319C26.2016 36.4622 25.128 33.4967 23.6485 31.0095C25.6423 32.9815 27.1255 35.3684 28.2453 37.9233C29.5076 40.803 30.3106 43.8943 30.8629 46.8518C30.9406 47.2678 31.0098 47.6622 31.0777 48.0992C31.147 48.5457 31.2221 49.0762 31.3123 49.7678C31.3133 49.7829 31.3146 49.7981 31.3164 49.8134C31.4442 50.9027 31.5265 51.8075 31.5909 52.5154L31.6164 52.7951C31.6167 52.8115 31.6174 52.828 31.6187 52.8446C31.657 53.3231 31.6164 53.6714 31.5164 53.931C31.4305 54.1542 31.2869 54.3283 31.1048 54.4788ZM7.30505 55.2836C6.48671 55.1513 5.70109 54.9095 5.17981 54.4788C4.99771 54.3283 4.85409 54.1542 4.76817 53.931C4.66819 53.6714 4.62763 53.3231 4.66587 52.8446C4.66717 52.828 4.66789 52.8114 4.66817 52.7949L4.71445 52.2852C4.77243 51.6441 4.83597 50.9412 4.89157 50.4734C5.33747 46.7228 6.22347 42.3313 7.95009 38.3069C9.10193 35.6223 10.6303 33.0957 12.6558 31.0293C11.1571 33.609 10.0625 36.8443 9.26729 40.216C8.00125 45.5841 7.48483 51.3349 7.30505 55.2836ZM17.2864 24.5252L15.5608 23.327C15.6128 23.2723 15.6735 23.2152 15.7405 23.1574C16.1027 22.8448 16.5764 22.5688 16.9262 22.4771L18.2029 22.4376L19.4797 22.4771C19.8295 22.5688 20.3032 22.8448 20.6654 23.1574C20.7324 23.2153 20.793 23.2723 20.8451 23.327L19.1194 24.5253C18.881 24.5184 18.6105 24.5149 18.3005 24.5149C17.8773 24.5149 17.5498 24.5184 17.2864 24.5252ZM18.1811 20.8297L17.6319 20.8467L16.5566 19.2857C16.5775 19.2539 16.6308 19.1748 16.6984 19.0711C16.8504 18.838 17.0732 18.6114 17.2913 18.4586C17.3395 18.4248 17.3826 18.3975 17.4188 18.378L18.2029 18.3428L18.9897 18.3781C19.046 18.4074 19.1141 18.4533 19.1887 18.5112C19.3959 18.672 19.6009 18.8917 19.7392 19.113C19.7913 19.1964 19.8378 19.2426 19.8583 19.2677L18.6559 20.8431L18.2248 20.8297C18.2103 20.8294 18.1957 20.8293 18.1811 20.8297ZM18.3005 29.79C17.3112 29.79 16.392 29.7216 15.6157 29.6032C14.8483 29.4861 14.2387 29.3261 13.8627 29.1418C13.8136 29.1177 13.8041 29.1786 13.8008 29.1517L13.7999 29.1454C13.7943 29.0571 13.8498 28.8796 13.9227 28.6679C14.0927 28.1739 14.4381 27.5298 14.9955 27.0072C15.3932 26.6343 15.8993 26.3282 16.5253 26.1973C16.6252 26.1764 16.7327 26.16 16.9609 26.1478C17.2004 26.135 17.6011 26.1283 18.3005 26.1283C19.0715 26.1283 19.5568 26.1484 19.8881 26.1856C20.1846 26.2189 20.3523 26.2635 20.5044 26.3189C21.0216 26.5072 21.4441 26.8225 21.7794 27.1812C22.2366 27.6702 22.5273 28.229 22.6784 28.6679C22.7537 28.8869 22.8106 29.0689 22.8002 29.1517L22.7993 29.1598C22.795 29.1744 22.784 29.1193 22.7383 29.1418C22.3623 29.3261 21.7527 29.4861 20.9853 29.6032C20.209 29.7216 19.2898 29.79 18.3005 29.79ZM102.544 11.3225L102.548 6.89373C102.552 6.71141 102.56 6.59185 102.571 6.50795L102.572 6.50801C102.577 6.47193 102.579 6.45975 102.581 6.4558C102.584 6.44755 102.591 6.44182 102.599 6.43809C102.663 6.40911 102.725 6.40885 102.758 6.41798C105.667 7.24396 107.752 6.7271 109.778 6.22471C111.362 5.83188 112.907 5.44889 114.766 5.85662C114.774 5.85838 114.768 5.87306 114.79 5.90138C114.824 5.94672 114.846 5.98832 114.846 6.01174V10.1715C114.846 10.2009 114.848 10.2299 114.851 10.2585C114.859 10.678 114.838 10.8527 114.793 10.8826C114.716 10.934 114.416 10.919 114.025 10.8956C112.449 10.8012 111.066 11.097 109.655 11.3989C107.558 11.8475 105.392 12.3107 102.544 11.3225ZM105.461 48.4889C105.492 48.5147 105.526 48.5384 105.562 48.5597L106.601 49.1774C107.458 49.8566 108.002 50.7774 108.002 51.9368V62.974H105.775V58.9774C105.775 58.5319 105.417 58.1707 104.975 58.1707C104.533 58.1707 104.175 58.5319 104.175 58.9774V62.974H98.9692V58.9774C98.9692 58.5319 98.611 58.1707 98.1692 58.1707C97.7274 58.1707 97.3692 58.5319 97.3692 58.9774V62.974H95.525V51.9368C95.525 50.7774 96.0687 49.8566 96.9256 49.1774L97.9655 48.5597C98.0015 48.5384 98.0352 48.5147 98.0666 48.4889C98.3935 48.3391 98.7412 48.212 99.1034 48.1079C99.9385 47.8678 100.849 47.7478 101.764 47.7478C102.678 47.7478 103.589 47.8678 104.424 48.1079C104.786 48.212 105.134 48.3391 105.461 48.4889ZM109.502 50.9007L110.865 51.71C110.979 53.0623 111.055 54.3175 111.105 55.4252C110.482 55.4438 109.939 55.4242 109.602 55.4097V51.9368C109.602 51.5743 109.568 51.229 109.502 50.9007ZM110.678 49.7334L107.604 47.9071C106.835 47.3034 105.892 46.8537 104.861 46.5575C103.88 46.2754 102.82 46.1343 101.764 46.1343C100.707 46.1343 99.647 46.2754 98.6659 46.5575C97.6355 46.8537 96.6925 47.3034 95.9235 47.9072L92.9762 49.6581C93.2563 46.6143 93.7415 43.2066 94.5713 39.929C95.3944 36.6779 96.5551 33.5659 98.1889 31.0943C98.3769 31.1321 98.5733 31.1666 98.7772 31.1977C99.632 31.3282 100.633 31.4034 101.699 31.4034C102.766 31.4034 103.767 31.3282 104.622 31.1977C104.922 31.1518 105.207 31.0985 105.472 31.0385C107.132 33.5554 108.325 36.9772 109.176 40.5879C109.899 43.6532 110.373 46.8416 110.678 49.7334ZM94.0247 50.9007C93.9594 51.229 93.925 51.5743 93.925 51.9368V55.4173C93.5806 55.4301 93.101 55.4414 92.5652 55.4238C92.584 55.17 92.607 54.8682 92.6294 54.5732C92.6693 54.0474 92.7075 53.5448 92.7191 53.3093C92.7459 52.7679 92.7788 52.2023 92.819 51.6169L94.0247 50.9007ZM101.771 37.949C102.239 37.949 102.648 38.0641 102.931 38.25C103.113 38.3695 103.226 38.5029 103.226 38.6219C103.226 38.7409 103.113 38.8743 102.931 38.9937C102.648 39.1797 102.239 39.2948 101.771 39.2948C101.304 39.2948 100.895 39.1797 100.612 38.9937C100.43 38.8743 100.317 38.7409 100.317 38.6219C100.317 38.5029 100.43 38.3695 100.612 38.25C100.895 38.064 101.304 37.949 101.771 37.949ZM103.8 36.9013C103.267 36.5518 102.549 36.3356 101.771 36.3356C100.994 36.3356 100.276 36.5517 99.7432 36.9013C99.1094 37.3173 98.7174 37.9237 98.7174 38.6219C98.7174 39.32 99.1094 39.9265 99.7432 40.3425C100.276 40.692 100.994 40.9082 101.771 40.9082C102.549 40.9082 103.267 40.692 103.8 40.3425C104.433 39.9265 104.826 39.32 104.826 38.6219C104.826 37.9237 104.433 37.3173 103.8 36.9013ZM90.974 55.2759C90.1725 55.142 89.4066 54.9014 88.8952 54.4788C88.7131 54.3283 88.5695 54.1542 88.4836 53.931C88.3836 53.6714 88.343 53.3231 88.3813 52.8446C88.3826 52.828 88.3833 52.8115 88.3836 52.7951L88.4091 52.5154C88.4735 51.8075 88.5558 50.9027 88.6836 49.8134C88.6854 49.7981 88.6867 49.7829 88.6877 49.7678C88.7779 49.0762 88.853 48.5457 88.9223 48.0992C88.9902 47.6622 89.0594 47.2678 89.1371 46.8518C89.6894 43.8943 90.4924 40.803 91.7547 37.9233C92.8745 35.3684 94.3577 32.9815 96.3515 31.0095C94.872 33.4967 93.7985 36.4622 93.0213 39.5319C91.8105 44.3142 91.3164 49.3713 91.1254 53.2337C91.12 53.343 91.0787 53.8857 91.0356 54.4534C91.0143 54.7344 90.9924 55.022 90.974 55.2759ZM114.82 54.4788C114.299 54.9095 113.513 55.1514 112.695 55.2836C112.515 51.3349 111.999 45.5841 110.733 40.216C109.938 36.8443 108.843 33.609 107.344 31.0293C109.37 33.0957 110.898 35.6223 112.05 38.3069C113.777 42.3313 114.663 46.7228 115.108 50.4734C115.164 50.9412 115.228 51.6441 115.286 52.2852L115.332 52.7949C115.332 52.8114 115.333 52.828 115.334 52.8446C115.372 53.3231 115.332 53.6714 115.232 53.931C115.146 54.1542 115.002 54.3283 114.82 54.4788ZM104.439 23.327L102.714 24.5252C102.45 24.5184 102.123 24.5149 101.699 24.5149C101.39 24.5149 101.119 24.5184 100.881 24.5253L99.1549 23.327C99.207 23.2723 99.2676 23.2153 99.3346 23.1574C99.6968 22.8448 100.171 22.5688 100.52 22.4771L101.797 22.4376L103.074 22.4771C103.424 22.5688 103.897 22.8448 104.259 23.1574C104.327 23.2152 104.387 23.2723 104.439 23.327ZM102.368 20.8467L101.819 20.8297C101.804 20.8293 101.79 20.8294 101.775 20.8297L101.344 20.8431L100.142 19.2677C100.162 19.2426 100.209 19.1964 100.261 19.113C100.399 18.8917 100.604 18.672 100.811 18.5112C100.886 18.4533 100.954 18.4074 101.01 18.3781L101.797 18.3428L102.581 18.378C102.617 18.3975 102.66 18.4248 102.709 18.4586C102.927 18.6114 103.15 18.838 103.302 19.0711C103.369 19.1748 103.422 19.2539 103.443 19.2857L102.368 20.8467ZM104.384 29.6032C103.608 29.7216 102.689 29.79 101.699 29.79C100.71 29.79 99.791 29.7216 99.0147 29.6032C98.2473 29.4861 97.6377 29.3261 97.2617 29.1418C97.216 29.1193 97.205 29.1744 97.2007 29.1598L97.1998 29.1517C97.1895 29.0689 97.2463 28.8869 97.3216 28.6679C97.4727 28.229 97.7634 27.6702 98.2206 27.1812C98.5559 26.8225 98.9785 26.5072 99.4957 26.3189C99.6477 26.2635 99.8155 26.2189 100.112 26.1856C100.443 26.1484 100.929 26.1283 101.699 26.1283C102.399 26.1283 102.8 26.135 103.039 26.1478C103.267 26.16 103.375 26.1764 103.475 26.1973C104.101 26.3282 104.607 26.6343 105.004 27.0072C105.562 27.5298 105.907 28.1739 106.077 28.6679C106.15 28.8796 106.206 29.0571 106.2 29.1454L106.199 29.1517C106.196 29.1786 106.186 29.1177 106.137 29.1418C105.761 29.3261 105.152 29.4861 104.384 29.6032ZM51.9386 51.5667L47.1948 54.3848C47.6094 50.2635 48.2738 45.6629 49.3148 41.2491C50.5061 36.1975 52.1861 31.4096 54.5403 27.9157C54.9493 28.0146 55.3976 28.1016 55.8775 28.1749C57.0328 28.3512 58.3877 28.4529 59.8325 28.4529C61.2773 28.4529 62.6322 28.3512 63.7876 28.1749C64.1325 28.1222 64.461 28.0625 64.7704 27.9963C67.085 31.4357 68.7198 35.792 69.8719 40.3428C71.0638 45.0507 71.7378 49.9544 72.1133 54.2768L67.5511 51.5666C66.5302 50.7642 65.275 50.1661 63.903 49.7716C62.5874 49.3933 61.1642 49.2042 59.7449 49.2042C58.3256 49.2042 56.9025 49.3933 55.5868 49.7716C54.2147 50.1661 52.9597 50.7642 51.9386 51.5667ZM47.1414 56.282L49.6204 54.8093C49.4213 55.4359 49.3137 56.1149 49.3137 56.8469V61.8828L49.1653 61.8892C48.6727 61.9109 47.7337 61.9524 46.6561 61.9047C46.7254 60.2691 46.8384 58.3848 47.0127 56.3434C47.0566 56.3271 47.0997 56.3067 47.1414 56.282ZM70.1761 56.8469C70.1761 56.1149 70.0685 55.4359 69.8694 54.8093L72.2665 56.2333C72.3266 57.0919 72.3753 57.9202 72.4144 58.711C72.4292 59.0101 72.482 59.7053 72.5372 60.4324C72.5774 60.9613 72.6188 61.5064 72.6472 61.9014C71.6151 61.9506 70.7029 61.9168 70.1761 61.894V56.8469ZM67.0965 46.3472C67.5384 46.3472 67.8965 45.986 67.8965 45.5405C67.8965 45.0949 67.5384 44.7337 67.0965 44.7337H52.0816C51.6398 44.7337 51.2816 45.0949 51.2816 45.5405C51.2816 45.986 51.6398 46.3472 52.0816 46.3472H67.0965ZM59.7341 35.7961C58.7272 35.7961 57.8014 36.0733 57.1187 36.5214C56.3347 37.0361 55.8497 37.7787 55.8497 38.6274C55.8497 39.4761 56.3347 40.2188 57.1187 40.7334C57.8014 41.1816 58.7272 41.4588 59.7341 41.4588C60.7409 41.4588 61.6667 41.1816 62.3494 40.7334C63.1335 40.2188 63.6185 39.4761 63.6185 38.6274C63.6185 37.7787 63.1335 37.0361 62.3494 36.5214C61.6667 36.0733 60.7409 35.7961 59.7341 35.7961ZM57.9875 37.8702C58.4211 37.5856 59.0375 37.4095 59.7341 37.4095C60.4306 37.4095 61.0471 37.5856 61.4807 37.8702C61.8129 38.0883 62.0185 38.3579 62.0185 38.6274C62.0185 38.8969 61.8129 39.1666 61.4807 39.3846C61.0471 39.6693 60.4306 39.8453 59.7341 39.8453C59.0375 39.8453 58.4211 39.6693 57.9875 39.3846C57.6553 39.1666 57.4497 38.8969 57.4497 38.6274C57.4497 38.3579 57.6553 38.0883 57.9875 37.8702ZM53.256 94.8806C52.8142 94.8806 52.456 95.2418 52.456 95.6874C52.456 96.1329 52.8142 96.4941 53.256 96.4941H66.758C67.1998 96.4941 67.558 96.1329 67.558 95.6874C67.558 95.2418 67.1998 94.8806 66.758 94.8806H53.256ZM38.1832 89.8191C37.7414 89.8191 37.3832 90.1803 37.3832 90.6258C37.3832 91.0713 37.7414 91.4325 38.1832 91.4325H81.8308C82.2726 91.4325 82.6308 91.0713 82.6308 90.6258C82.6308 90.1803 82.2726 89.8191 81.8308 89.8191H38.1832ZM23.1104 84.7575C22.6685 84.7575 22.3104 85.1187 22.3104 85.5643C22.3104 86.0098 22.6685 86.371 23.1104 86.371H96.9036C97.3454 86.371 97.7036 86.0098 97.7036 85.5643C97.7036 85.1187 97.3454 84.7575 96.9036 84.7575H23.1104ZM77.5398 60.555C76.7289 61.2251 75.4915 61.5768 74.238 61.7555C74.2095 61.3466 74.1696 60.8218 74.1309 60.3126C74.0725 59.5433 74.0167 58.8083 74.0081 58.6354C73.7476 53.3673 73.0735 46.4695 71.4219 39.9458C70.2759 35.4194 68.658 31.0624 66.3795 27.5258C66.4962 27.4787 66.606 27.4303 66.7085 27.3806C69.7959 30.2204 72.0445 33.7526 73.7099 37.552C75.447 41.515 76.5518 45.767 77.3112 49.8342C77.4165 50.3977 77.5112 50.9382 77.6062 51.5505C77.7028 52.1719 77.8067 52.9063 77.9311 53.8607C77.9321 53.8759 77.9333 53.8911 77.9352 53.9064C78.1068 55.3689 78.2213 56.6273 78.3109 57.6119L78.3478 58.0162C78.348 58.0327 78.3488 58.0492 78.3501 58.0659C78.4061 58.7668 78.3432 59.2861 78.1905 59.6825C78.0519 60.0424 77.8253 60.3191 77.5398 60.555ZM45.0659 61.7655C43.7879 61.59 42.5187 61.2379 41.6923 60.555C41.4067 60.3191 41.1801 60.0424 41.0416 59.6825C40.8889 59.2861 40.826 58.7668 40.882 58.0659C40.8833 58.0493 40.884 58.0328 40.8843 58.0164C40.9051 57.7903 40.9271 57.547 40.9496 57.2973C41.0304 56.4037 41.119 55.4238 41.192 54.8096C41.8047 49.656 43.0234 43.619 45.4002 38.0792C47.1391 34.0262 49.501 30.2331 52.7041 27.2441C52.7771 27.2883 52.8551 27.3309 52.9386 27.3718L52.9735 27.3888C50.6229 31.0307 48.9466 35.8397 47.7585 40.8772C45.9953 48.3536 45.2973 56.3714 45.0659 61.7655ZM58.3576 19.6373L55.6547 17.7605C55.7599 17.6001 55.9303 17.421 56.1385 17.2413C56.6738 16.7793 57.3854 16.3704 57.9102 16.2407L59.699 16.1853L61.4879 16.2407C62.0127 16.3704 62.7243 16.7793 63.2596 17.2413C63.4677 17.421 63.6382 17.6001 63.7433 17.7605L61.0394 19.638C60.694 19.6269 60.2962 19.6212 59.8325 19.6212C59.2002 19.6212 58.7273 19.6266 58.3576 19.6373ZM59.6772 14.5775L58.7664 14.6057L57.1482 12.2565C57.1383 12.1551 57.2409 11.9491 57.3951 11.7126C57.624 11.3615 57.9579 11.0213 58.2835 10.7932C58.3835 10.7232 58.4749 10.6684 58.5525 10.6334L59.699 10.5819L60.8469 10.6335C60.9566 10.682 61.0877 10.766 61.2276 10.8745C61.5363 11.1141 61.8424 11.4426 62.0499 11.7746C62.1791 11.9814 62.2651 12.1552 62.2631 12.2382L60.4601 14.6004L59.7209 14.5775C59.7064 14.5771 59.6918 14.5771 59.6772 14.5775ZM59.8325 26.8394C58.4646 26.8394 57.1917 26.7446 56.115 26.5803C55.037 26.4158 54.1737 26.1877 53.6323 25.9222C53.46 25.8377 53.3918 25.7702 53.3841 25.7092C53.3623 25.5343 53.4488 25.2473 53.5647 24.9105C53.8099 24.198 54.3076 23.2695 55.1099 22.5173C55.6893 21.9741 56.4283 21.5276 57.3447 21.3361C57.4947 21.3047 57.6539 21.2802 57.9846 21.2625C58.3265 21.2442 58.8804 21.2346 59.8325 21.2346C60.8958 21.2346 61.5705 21.263 62.0371 21.3153C62.469 21.3638 62.7183 21.4307 62.9472 21.514C63.7041 21.7896 64.3199 22.2483 64.807 22.7694C65.4639 23.4721 65.8825 24.2773 66.1004 24.9105C66.2163 25.2473 66.3028 25.5343 66.281 25.7092C66.2734 25.7702 66.2051 25.8377 66.0328 25.9222C65.4914 26.1877 64.6281 26.4158 63.5501 26.5803C62.4733 26.7446 61.2004 26.8394 59.8325 26.8394Z" fill="#101010"/>
</svg>
