<svg width="29" height="26" viewBox="0 0 29 26" fill="none" xmlns="http://www.w3.org/2000/svg">
<path d="M0.340546 19.0733C0.517069 18.7925 1.72827 18.2109 1.72827 18.2109C2.2068 17.9727 5.72555 16.2489 6.38698 16.0128C6.95377 15.8097 7.59499 15.579 8.16922 16.4339C8.60628 17.0805 9.88554 18.5735 10.3013 19.0446C10.5938 19.3763 10.8607 19.4848 11.5083 19.1615C11.6167 19.1084 14.7505 17.7685 16.9124 15.8565C18.8308 14.1625 20.1589 12.0698 20.6407 11.2478C20.9384 10.7459 20.7438 10.513 20.3791 10.1461C20.1526 9.92598 19.1604 8.72541 19.0817 8.6095C18.9233 8.36918 18.6404 7.7907 18.6404 7.7907C18.3544 7.22497 18.533 6.73368 18.6925 6.40935C18.8074 6.18604 20.6109 1.83996 20.7842 1.43162C21.2978 0.20447 21.8465 0.140669 22.3719 0.170444C22.6271 0.188522 25.0155 0.206596 25.7758 1.03285L25.9098 1.17428C26.6573 1.96438 28.2109 3.60838 28.2109 6.78792C28.2109 7.51953 28.094 8.28836 27.8526 9.1412C27.4091 10.6735 26.5414 12.3505 25.3951 13.885C25.3696 13.9169 23.6224 16.3435 22.7483 17.3495C19.9856 20.5312 16.8646 22.8813 13.7159 24.1116C9.692 25.6833 7.97569 26.0427 7.00056 26.0427C6.57308 26.0427 5.67558 25.8258 5.47991 25.8077C4.2517 25.6971 1.3295 24.1754 0.716986 22.4644C0.135311 20.8491 0.123613 19.4359 0.340546 19.0733Z" fill="white"/>
</svg>
