<svg width="30" height="21" viewBox="0 0 30 21" fill="none" xmlns="http://www.w3.org/2000/svg">
<path d="M28.2225 3.30737L15.2796 10.7226C15.2042 10.766 15.119 10.7882 15.0318 10.7882H14.9672C14.881 10.7882 14.7958 10.766 14.7194 10.7226L1.7775 3.30737C1.53168 3.16598 1.44256 2.84683 1.57967 2.59333C1.71678 2.33983 2.02625 2.24792 2.27206 2.38931L14.9995 9.68129L27.727 2.38931C27.9738 2.24792 28.2832 2.33983 28.4194 2.59333C28.5565 2.84683 28.4683 3.16598 28.2225 3.30737ZM27.7945 0.67742H2.20547C0.986192 0.67742 0 1.69547 0 2.95187V18.7245C0 19.9809 0.986192 21 2.20547 21H27.7945C29.0128 21 30 19.9809 30 18.7245V2.95187C30 1.69547 29.0128 0.67742 27.7945 0.67742Z" fill="white"/>
</svg>
