<svg width="38" height="37" viewBox="0 0 38 37" fill="none" xmlns="http://www.w3.org/2000/svg">
<path d="M36.9111 24.4235V24.1168H36.7778L36.8222 23.9415C36.8667 23.8977 36.9556 23.8538 37.0444 23.7662C37.1333 23.6786 37.1778 23.5471 37.1778 23.5033C37.1778 23.4156 37.2222 23.2842 37.1778 23.1527C37.1333 23.0651 37.0889 23.0213 37 22.8898C36.9556 22.846 36.9111 22.7583 36.8222 22.6707C36.7333 22.5831 36.6889 22.5392 36.6889 22.4954C36.6889 22.4516 36.6889 22.4078 36.6444 22.364C36.6444 22.3201 36.6 22.3201 36.5556 22.3201C36.5111 22.3201 36.5111 22.3201 36.4667 22.364C36.4222 22.4078 36.4667 22.4516 36.4222 22.4954C36.4222 22.5392 36.3778 22.5831 36.2889 22.6707C36.2 22.7583 36.1111 22.846 36.1111 22.8898C36.0222 23.0213 35.9333 23.0651 35.9333 23.1527C35.8889 23.2842 35.9333 23.4156 35.9333 23.5033C35.9333 23.5471 35.9778 23.6786 36.0667 23.7662C36.1556 23.8538 36.2 23.8977 36.2889 23.9415L36.3333 24.1168H36.2V24.4235H34.4222V24.1168H34.2889L34.3333 23.9415C34.3778 23.8977 34.4667 23.8538 34.5556 23.7662C34.6444 23.6786 34.6889 23.5471 34.6889 23.5033C34.6889 23.4156 34.7333 23.2842 34.6889 23.1527C34.6444 23.0651 34.6 23.0213 34.5111 22.8898C34.4667 22.846 34.4222 22.7583 34.3333 22.6707C34.2444 22.5831 34.2 22.5392 34.2 22.4954C34.2 22.4516 34.2 22.4078 34.1556 22.364C34.1556 22.3201 34.1111 22.3201 34.0667 22.3201C34.0222 22.3201 34.0222 22.3201 33.9778 22.364C33.9333 22.4078 33.9778 22.4516 33.9333 22.4954C33.9333 22.5392 33.8889 22.5831 33.8 22.6707C33.7111 22.7583 33.6222 22.846 33.6222 22.8898C33.5333 23.0213 33.4444 23.0651 33.4444 23.1527C33.4 23.2842 33.4444 23.4156 33.4444 23.5033C33.4444 23.5471 33.4889 23.6786 33.5778 23.7662C33.6667 23.8538 33.7111 23.8977 33.8 23.9415L33.8444 24.1168H33.7111V24.4235H31.9333V24.1168H31.8L31.8444 23.9415C31.8889 23.8977 31.9778 23.8538 32.0667 23.7662C32.1556 23.6786 32.2 23.5471 32.2 23.5033C32.2 23.4156 32.2444 23.2842 32.2 23.1527C32.1556 23.0651 32.1111 23.0213 32.0222 22.8898C31.9778 22.846 31.9333 22.7583 31.8444 22.6707C31.7556 22.5831 31.7111 22.5392 31.7111 22.4954C31.7111 22.4516 31.7111 22.4078 31.6667 22.364C31.6667 22.3201 31.6222 22.3201 31.5778 22.3201C31.5333 22.3201 31.5333 22.3201 31.4889 22.364C31.4444 22.4078 31.4889 22.4516 31.4444 22.4954C31.4444 22.5392 31.4 22.5831 31.3111 22.6707C31.2222 22.7583 31.1333 22.846 31.1333 22.8898C31.0444 23.0213 30.9556 23.0651 30.9556 23.1527C30.9111 23.2842 30.9556 23.4156 30.9556 23.5033C30.9556 23.5471 31 23.6786 31.0889 23.7662C31.1778 23.8538 31.2222 23.8977 31.3111 23.9415L31.3556 24.1168H31.2222V24.4235H29.4444V24.1168H29.3111L29.3556 23.9415C29.4 23.8977 29.4889 23.8538 29.5778 23.7662C29.6667 23.6786 29.7111 23.5471 29.7111 23.5033C29.7111 23.4156 29.7556 23.2842 29.7111 23.1527C29.6667 23.0651 29.6222 23.0213 29.5333 22.8898C29.4889 22.846 29.4444 22.7583 29.3556 22.6707C29.2667 22.5831 29.2222 22.5392 29.2222 22.4954C29.2222 22.4516 29.2222 22.4078 29.1778 22.364C29.1778 22.3201 29.1333 22.3201 29.0889 22.3201C29.0444 22.3201 29.0444 22.3201 29 22.364C28.9556 22.4078 29 22.4516 28.9556 22.4954C28.9556 22.5392 28.9111 22.5831 28.8222 22.6707C28.7333 22.7583 28.6444 22.846 28.6444 22.8898C28.6 22.9336 28.6 22.9774 28.5556 22.9774L24.3333 2.38194V0.760587L22.7333 2.33811H21.9333V2.07519H21.8L21.8444 1.89991C21.8889 1.85609 21.9778 1.81227 22.0667 1.72463C22.1111 1.63699 22.1556 1.54935 22.1556 1.50553C22.1556 1.41789 22.2 1.28643 22.1556 1.15497C22.1111 1.06733 22.0667 1.02351 21.9778 0.892048C21.9333 0.848227 21.8889 0.760587 21.8 0.672947C21.7111 0.585306 21.6667 0.541486 21.6667 0.497666C21.6667 0.453845 21.6667 0.410025 21.6222 0.366205C21.6222 0.322385 21.5778 0.322385 21.5333 0.322385C21.4889 0.322385 21.4889 0.322385 21.4444 0.366205C21.4 0.410025 21.4444 0.453845 21.4 0.497666C21.4 0.541486 21.3556 0.585306 21.2667 0.672947C21.1778 0.760587 21.0889 0.848227 21.0889 0.892048C21 1.02351 20.9111 1.06733 20.9111 1.15497C20.8667 1.28643 20.9111 1.41789 20.9111 1.50553C20.9111 1.54935 20.9556 1.68081 21.0444 1.76845C21.1333 1.85609 21.1778 1.89991 21.2667 1.94373L21.3111 2.11901H21.1778V2.33811H19.4V2.07519H19.2667L19.3111 1.89991C19.3556 1.85609 19.4444 1.81227 19.5333 1.72463C19.6222 1.63699 19.6667 1.50553 19.6667 1.46171C19.6667 1.37407 19.7111 1.24261 19.6667 1.11115C19.6222 1.02351 19.5778 0.979688 19.4889 0.848228C19.4444 0.804407 19.4 0.716767 19.3111 0.629126C19.2222 0.541486 19.1778 0.497666 19.1778 0.453845C19.1778 0.410025 19.1778 0.366205 19.1333 0.322385C19.1333 0.278565 19.0889 0.278564 19.0444 0.278564C19 0.278564 19 0.278565 18.9556 0.322385C18.9111 0.366205 18.9556 0.410025 18.9111 0.453845C18.9111 0.497666 18.8667 0.541486 18.7778 0.629126C18.6444 0.760587 18.5556 0.848227 18.5556 0.892048C18.4667 1.02351 18.3778 1.06733 18.3778 1.15497C18.3333 1.28643 18.3778 1.41789 18.3778 1.50553C18.3778 1.54935 18.4222 1.68081 18.5111 1.76845C18.6 1.85609 18.6444 1.89991 18.7333 1.94373L18.7778 2.11901H18.6444V2.33811H16.8667V2.07519H16.7333L16.7778 1.89991C16.8222 1.85609 16.9111 1.81227 17 1.72463C17.0889 1.63699 17.1333 1.50553 17.1333 1.46171C17.1333 1.37407 17.1778 1.24261 17.1333 1.11115C17.0889 1.02351 17.0444 0.979688 16.9556 0.848228C16.9111 0.804407 16.8667 0.716767 16.7778 0.629126C16.6889 0.541486 16.6444 0.497666 16.6444 0.453845C16.6444 0.410025 16.6444 0.366205 16.6 0.322385C16.6 0.278565 16.5556 0.278564 16.5111 0.278564C16.4667 0.278564 16.4667 0.278565 16.4222 0.322385C16.3778 0.366205 16.4222 0.410025 16.3778 0.453845C16.3778 0.497666 16.3333 0.541486 16.2444 0.629126C16.1556 0.716767 16.0667 0.804407 16.0667 0.848228C15.8889 1.02351 15.8 1.06733 15.8 1.15497C15.7556 1.28643 15.8 1.41789 15.8 1.50553C15.8 1.54935 15.8444 1.68081 15.9333 1.76845C16.0222 1.85609 16.0667 1.89991 16.1556 1.94373L16.2 2.11901H16.0667V2.33811H15.3111L13.6667 0.760587V2.38194L9.57778 23.0213C9.53333 22.9774 9.53334 22.9774 9.48889 22.9336C9.44445 22.8898 9.4 22.8022 9.31111 22.7145C9.22222 22.6269 9.17778 22.5831 9.17778 22.5392C9.17778 22.4954 9.17778 22.4516 9.13334 22.4078C9.13334 22.364 9.08889 22.364 9.04445 22.364C9 22.364 9 22.364 8.95556 22.4078C8.91111 22.4516 8.95556 22.4954 8.91111 22.5392C8.91111 22.5831 8.86667 22.6269 8.77778 22.7145C8.68889 22.8022 8.6 22.8898 8.6 22.9336C8.51111 23.0651 8.42222 23.1089 8.42222 23.1965C8.37778 23.328 8.42222 23.4595 8.42222 23.5471C8.42222 23.5909 8.46667 23.7224 8.55556 23.81C8.64445 23.8977 8.68889 23.9415 8.77778 23.9853L8.82222 24.1606H8.68889V24.4673H6.91111V24.1606H6.77778L6.82222 23.9853C6.86667 23.9415 6.95556 23.8977 7.04445 23.81C7.13333 23.7224 7.17778 23.5909 7.17778 23.5471C7.17778 23.4595 7.22222 23.328 7.17778 23.1965C7.13333 23.1089 7.08889 23.0651 7 22.9336C6.95556 22.8898 6.91111 22.8022 6.82222 22.7145C6.73334 22.6269 6.68889 22.5831 6.68889 22.5392C6.68889 22.4954 6.68889 22.4516 6.64445 22.4078C6.64445 22.364 6.6 22.364 6.55556 22.364C6.51111 22.364 6.51111 22.364 6.46667 22.4078C6.42222 22.4516 6.46667 22.4954 6.42222 22.5392C6.42222 22.5831 6.37778 22.6269 6.28889 22.7145C6.2 22.846 6.11111 22.9336 6.11111 22.9774C6.02222 23.1089 5.93333 23.1527 5.93333 23.2404C5.88889 23.3718 5.93333 23.5033 5.93333 23.5909C5.93333 23.6347 5.97778 23.7662 6.06667 23.8538C6.15556 23.9415 6.2 23.9853 6.28889 24.0291L6.33333 24.2044H6.2V24.5111H4.42222V24.2044H4.28889L4.33333 24.0291C4.37778 23.9853 4.46667 23.9415 4.55556 23.8538C4.64445 23.7662 4.68889 23.6347 4.68889 23.5909C4.68889 23.5033 4.73333 23.3718 4.68889 23.2404C4.64445 23.1527 4.6 23.1089 4.51111 22.9774C4.46667 22.9336 4.42222 22.846 4.33333 22.7583C4.24445 22.6707 4.2 22.6269 4.2 22.5831C4.2 22.5392 4.2 22.4954 4.15556 22.4516C4.15556 22.4078 4.11111 22.4078 4.06667 22.4078C4.02222 22.4078 4.02222 22.4078 3.97778 22.4516C3.93333 22.4954 3.97778 22.5392 3.93333 22.5831C3.93333 22.6269 3.88889 22.6707 3.8 22.7583C3.71111 22.846 3.62222 22.9336 3.62222 22.9774C3.53333 23.1089 3.44445 23.1527 3.44445 23.2404C3.4 23.3718 3.44445 23.5033 3.44445 23.5909C3.44445 23.6347 3.48889 23.7662 3.57778 23.8538C3.66667 23.9415 3.71111 23.9853 3.8 24.0291L3.84445 24.2044H3.71111V24.5111H1.93333V24.2044H1.71111L1.75556 24.0291C1.8 23.9853 1.88889 23.9415 1.97778 23.8538C2.06667 23.7662 2.11111 23.6347 2.11111 23.5909C2.11111 23.5033 2.15556 23.3718 2.11111 23.2404C2.06667 23.1527 2.02222 23.1089 1.93333 22.9774C1.88889 22.9336 1.84445 22.846 1.75556 22.7583C1.66667 22.6707 1.62222 22.6269 1.62222 22.5831C1.62222 22.5392 1.62222 22.4954 1.57778 22.4516C1.57778 22.4078 1.53333 22.4078 1.48889 22.4078C1.44445 22.4078 1.44445 22.4078 1.4 22.4516C1.35556 22.4954 1.4 22.5392 1.35556 22.5831C1.35556 22.6269 1.31111 22.6707 1.22222 22.7583C1.13333 22.846 1.04445 22.9336 1.04445 22.9774C0.955557 23.1089 0.866668 23.1527 0.866668 23.2404C0.822224 23.3718 0.866668 23.5033 0.866668 23.5909C0.866668 23.6347 0.911112 23.7662 1 23.8538C1.08889 23.9415 1.13333 23.9853 1.22222 24.0291V24.1606H1.08889V24.4673H0.244446V36.4303H4.33333V29.8572H4.06667V29.1123H4.95556H5.84445V29.8572H5.57778V36.4303H6.91111V29.8572H6.64445V29.1123H7.53334H8.42222V29.8572H8.15556V36.4303H9.48889V29.8572H9.22222V29.1123H10.1111H11V29.8572H10.7333V36.4303H16.7333V27.6662H19H21.3556V36.4303H27.3111V29.8572H27.0444V29.1123H27.9333H28.8222V29.8572H28.5556V36.4303H29.8889V29.8572H29.6222V29.1123H30.5111H31.4V29.8572H31.1333V36.4303H32.4667V29.8572H32.2V29.1123H33.0889H33.9778V29.8572H33.7111V36.4303H37.8444V24.4235H36.9111ZM6.06667 28.8932H4.91111H3.75556V28.3673H4.15556V28.0168H4.6V28.3673H4.91111H5.22222V28.0168H5.66667V28.3673H6.06667V28.8932ZM8.64445 28.8932H7.48889H6.33333V28.3673H6.73333V28.0168H7.17778V28.3673H7.48889H7.8V28.0168H8.24445V28.3673H8.64445V28.8932ZM11.1778 28.8932H10.0222H8.86667V28.3673H9.26667V28.0168H9.71111V28.3673H10.0222H10.3333V28.0168H10.7778V28.3673H11.1778V28.8932ZM19.4444 19.0336H18.5556V17.6314H19.4444V19.0336ZM19.4444 15.7909H18.5556V14.3887H19.4444V15.7909ZM19.4444 12.5482H18.5556V11.146H19.4444V12.5482ZM19.4444 9.30553H18.5556V7.90328H19.4444V9.30553ZM19.4444 6.06283H18.5556V4.66059H19.4444V6.06283ZM29.0444 28.8932H27.8889H26.7333V28.3673H27.1333V28.0168H27.5778V28.3673H27.8889H28.2V28.0168H28.6444V28.3673H29.0444V28.8932ZM31.6222 28.8932H30.4667H29.3111V28.3673H29.6667V28.0168H30.1111V28.3673H30.4222H30.7333V28.0168H31.1778V28.3673H31.5778V28.8932H31.6222ZM34.1556 28.8932H33H31.8444V28.3673H32.2444V28.0168H32.6889V28.3673H33H33.3111V28.0168H33.7556V28.3673H34.1556V28.8932Z" fill="white"/>
</svg>
