<svg width="127" height="120" viewBox="0 0 127 120" fill="none" xmlns="http://www.w3.org/2000/svg">
<path d="M121.239 114.652H110.11C112.336 113.609 114.431 112.174 116.395 110.217C122.025 104.609 124.25 96.2609 122.287 88.5653L122.025 87.7827L121.239 87.6522C119.275 87.1305 117.311 86.8696 115.347 86.8696C114.693 86.8696 114.169 86.8696 113.514 87C112.729 84.6522 111.55 82.3044 109.979 80.2174L109.587 79.5653L108.801 79.6957C106.968 79.9566 105.135 80.3479 103.564 81.1305C101.6 78.1305 98.8505 75.6522 95.7082 73.8261L95.0536 73.4348L94.268 73.6957C91.1257 75.5218 88.3762 78 86.4123 81C84.7103 80.3479 83.0082 79.8261 81.1752 79.5653H80.3896L79.8659 80.2174C78.2948 82.3044 77.1164 84.5218 76.3309 87C75.6762 87 75.1525 86.8696 74.4979 86.8696C72.534 86.8696 70.57 87.1305 68.6061 87.6522L67.8206 87.7827L67.6896 88.5653C65.5948 96.2609 67.8206 104.609 73.4505 110.217C75.2834 112.044 77.3783 113.478 79.735 114.652H70.4391C69.7845 102.522 60.2267 92.8696 48.1814 91.6957L59.1793 26.3479C59.1793 26.087 59.1793 25.9566 59.0484 25.8261C59.703 25.0435 60.6195 23.7392 60.6195 22.0435C60.6195 20.4783 59.9649 18.9131 58.5247 17.4783C57.2154 16.174 56.5608 14.7392 56.5608 13.174C56.6917 10.8261 58.5247 9.13048 58.5247 9.13048C58.6556 9.00004 60.6195 7.30439 60.6195 4.82613C60.6195 3.26091 59.9649 1.69569 58.5247 0.260912C58.3938 0.130477 58.2628 0.130477 58.2628 0.260912C58.1319 0.391347 58.1319 0.521782 58.2628 0.521782C59.5721 1.82613 60.2267 3.26091 60.2267 4.82613C60.2267 7.17396 58.2628 8.86961 58.2628 8.86961C58.1319 9.00004 56.168 10.6957 56.168 13.174C56.168 14.7392 56.8226 16.3044 58.2628 17.7392C59.5721 19.0435 60.2267 20.4783 60.2267 22.0435C60.2267 23.6087 59.3103 24.9131 58.7865 25.5653C58.6556 25.5653 58.6556 25.4348 58.5247 25.4348C58.1319 25.3044 57.6082 25.6957 57.6082 26.087L46.6102 91.5653C46.3484 91.5653 46.2175 91.5653 45.9556 91.5653C45.6938 91.5653 45.5628 91.5653 45.301 91.5653L34.303 26.087C34.1721 25.6957 33.7793 25.3044 33.3865 25.4348C33.2556 25.4348 33.2556 25.5653 33.2556 25.5653C32.2082 24.3913 31.6845 23.087 31.6845 21.7827C31.8154 19.4348 33.6484 17.7392 33.6484 17.7392C33.7793 17.6087 35.7432 15.9131 35.7432 13.4348C35.7432 11.8696 35.0886 10.3044 33.6484 8.86961C33.5175 8.73917 33.3865 8.73917 33.3865 8.86961C33.2556 9.00004 33.2556 9.13048 33.3865 9.13048C34.6958 10.4348 35.3505 11.8696 35.3505 13.4348C35.2195 15.7827 33.3865 17.4783 33.3865 17.4783C33.2556 17.6087 31.2917 19.3044 31.2917 21.7827C31.2917 23.2174 31.8154 24.5218 32.8628 25.6957C32.7319 25.9566 32.7319 26.087 32.7319 26.3479L43.7298 91.6957C36.5288 92.3479 30.3752 96.1305 26.3164 101.609L25.9237 100.044C25.6618 98.4783 24.0907 95.3479 22.3886 93.6522C23.436 90.5218 21.9958 88.0435 21.9958 87.9131C21.9958 87.9131 20.2938 84.7827 21.9958 81.3913C21.9958 81.2609 21.9958 81.1305 21.8649 81.1305C21.734 81.1305 21.603 81.1305 21.603 81.2609C19.77 84.9131 21.4721 88.0435 21.603 88.174C21.603 88.174 22.9123 90.5218 22.1267 93.3913C21.4721 92.8696 20.9484 92.6087 20.4247 92.6087C20.1628 92.6087 19.77 92.7392 19.5082 92.8696C15.9731 84.5218 20.0319 77.2174 20.0319 77.2174C20.0319 77.087 24.6144 69 20.0319 59.8696C20.0319 59.7392 19.901 59.7392 19.77 59.7392C19.6391 59.7392 19.6391 59.8696 19.6391 60C24.0907 68.8696 19.6391 76.8261 19.6391 76.9566C19.6391 77.087 15.4494 84.5218 19.1154 93.1305C17.1515 94.5653 15.1876 98.4783 14.9257 100.174L12.3072 111C12.0453 112.435 12.3072 113.87 13.0927 114.913H6.67726C5.89169 114.913 5.36798 115.565 5.36798 116.217C5.36798 117 6.02262 117.522 6.67726 117.522H121.239C122.025 117.522 122.548 116.87 122.548 116.217C122.679 115.174 122.025 114.652 121.239 114.652ZM114.3 89.6087C114.693 89.6087 115.086 89.6087 115.478 89.6087C116.918 89.6087 118.359 89.7392 119.799 90.1305C121.239 96.6522 119.275 103.696 114.431 108.391C111.027 111.783 106.706 113.739 101.993 114.13C101.469 114.13 100.945 114.261 100.422 114.261C99.767 114.261 99.1123 114.261 98.4577 114.13C99.5051 113.348 100.422 112.435 101.338 111.522C105.397 107.087 107.884 101.217 107.884 95.087C107.884 93.9131 107.754 92.6087 107.623 91.4348C108.932 90.7827 110.241 90.3913 111.681 90.1305C112.467 89.7392 113.383 89.6087 114.3 89.6087ZM108.408 82.4348C109.456 83.8696 110.372 85.5653 110.896 87.2609C109.587 87.5218 108.277 87.9131 107.099 88.4348C106.575 86.6087 105.921 84.9131 105.004 83.3479C106.051 82.9566 107.23 82.6957 108.408 82.4348ZM94.9226 76.5653C97.2793 78 99.3742 79.9566 100.945 82.3044C101.469 83.087 101.993 83.7392 102.386 84.6522C103.302 86.3479 103.957 88.0435 104.349 89.8696C104.611 90.7827 104.742 91.6957 104.873 92.7392C105.004 93.5218 105.004 94.3044 105.004 95.087C105.004 100.565 102.909 105.913 99.2432 109.826C98.4577 110.609 97.6721 111.391 96.7556 112.044C96.4938 112.304 96.101 112.565 95.8391 112.696C95.7082 112.826 95.4463 112.957 95.3154 113.087C95.1845 113.217 95.0536 113.217 94.9226 113.348C94.7917 113.217 94.6608 113.217 94.5298 113.087C94.3989 112.957 94.1371 112.826 94.0061 112.696C93.6133 112.435 93.3515 112.174 92.9587 111.913C92.0422 111.261 91.2566 110.478 90.4711 109.696C86.8051 105.783 84.5793 100.435 84.5793 94.9566C84.5793 94.174 84.5793 93.3913 84.7103 92.6087C84.8412 91.6957 84.9721 90.6522 85.234 89.7392C85.6267 87.9131 86.4123 86.2174 87.1979 84.5218C87.4597 84.1305 87.5907 83.7392 87.8525 83.3479C88.1144 82.9566 88.3762 82.5653 88.6381 82.174C90.4711 79.9566 92.5659 78 94.9226 76.5653ZM81.568 82.4348C82.7463 82.5653 83.9247 82.9566 84.9721 83.3479C84.0556 84.9131 83.401 86.6087 82.8773 88.4348C81.568 87.9131 80.3896 87.5218 79.0804 87.2609C79.735 85.5653 80.5206 84 81.568 82.4348ZM70.1773 90C72.0102 89.6087 73.8432 89.4783 75.6762 89.6087C76.1999 89.6087 76.5927 89.6087 77.1164 89.7392C77.6402 89.7392 78.0329 89.8696 78.4257 90C79.8659 90.2609 81.1752 90.6522 82.4845 91.3044C82.2226 92.4783 82.2226 93.7827 82.2226 94.9566C82.2226 101.087 84.5793 106.957 88.6381 111.391C89.5546 112.304 90.4711 113.217 91.5185 114C90.8639 114.13 90.2092 114.13 89.5546 114.13C89.0309 114.13 88.5072 114.13 87.9834 114C83.27 113.609 78.9494 111.652 75.5453 108.261C70.701 103.565 68.7371 96.6522 70.1773 90ZM45.9556 94.3044C57.4773 94.3044 66.9041 103.304 67.6896 114.652H27.7566C28.5422 113.478 28.8041 112.174 28.5422 110.609L27.2329 105.13C30.8989 98.6087 37.969 94.3044 45.9556 94.3044Z" fill="black"/>
</svg>
